{"glyphs":{"0":{"ha":832,"x_min":0,"x_max":0,"o":"m 535 978 l 297 978 b 201 947 256 978 224 967 b 168 853 179 926 168 894 l 168 125 b 201 31 168 83 179 52 b 297 0 224 10 256 0 l 535 0 b 631 31 576 0 608 10 b 664 125 653 52 664 83 l 664 853 b 631 947 664 894 653 926 b 535 978 608 967 576 978 z m 486 181 l 390 181 l 486 524 z m 346 797 l 442 797 l 346 454 z "},"1":{"ha":622,"x_min":0,"x_max":0,"o":"m 168 978 l 168 797 l 279 797 l 279 0 l 454 0 l 454 978 z "},"2":{"ha":763,"x_min":0,"x_max":0,"o":"m 179 242 b 172 213 177 234 175 225 b 168 181 169 202 168 191 l 168 0 l 594 0 l 594 181 l 356 181 l 583 738 b 591 766 586 745 589 754 b 594 796 593 778 594 788 l 594 861 b 560 951 594 903 583 933 b 465 978 537 969 505 978 l 168 978 l 168 797 l 407 797 z "},"3":{"ha":763,"x_min":0,"x_max":0,"o":"m 210 586 l 210 406 l 417 406 l 417 181 l 168 181 l 168 0 l 465 0 b 561 31 507 0 539 10 b 594 125 583 52 594 83 l 594 382 b 525 496 594 441 571 479 b 576 534 546 503 563 516 b 594 601 588 552 594 575 l 594 853 b 561 947 594 894 583 926 b 465 978 539 967 507 978 l 168 978 l 168 797 l 417 797 l 417 586 z "},"4":{"ha":832,"x_min":0,"x_max":0,"o":"m 346 978 l 168 978 l 168 404 l 486 404 l 486 0 l 664 0 l 664 978 l 486 978 l 486 588 l 346 588 z "},"5":{"ha":763,"x_min":0,"x_max":0,"o":"m 168 181 l 168 0 l 465 0 b 561 31 507 0 539 10 b 594 125 583 52 594 83 l 594 461 b 561 555 594 503 583 534 b 465 586 539 576 507 586 l 346 586 l 346 797 l 594 797 l 594 978 l 168 978 l 168 406 l 417 406 l 417 181 z "},"6":{"ha":829,"x_min":0,"x_max":0,"o":"m 532 0 b 628 31 574 0 606 10 b 661 125 650 52 661 83 l 661 463 b 628 556 661 504 650 535 b 532 586 606 576 574 586 l 344 586 l 344 797 l 661 797 l 661 978 l 297 978 b 203 951 257 978 226 969 b 168 861 180 933 168 903 l 168 125 b 201 31 168 83 179 52 b 297 0 224 10 256 0 z m 485 406 l 485 181 l 344 181 l 344 406 z "},"7":{"ha":763,"x_min":0,"x_max":0,"o":"m 218 0 l 403 0 l 583 738 b 591 766 586 745 589 754 b 594 796 593 778 594 788 l 594 978 l 168 978 l 168 797 l 410 797 z "},"8":{"ha":836,"x_min":0,"x_max":0,"o":"m 168 853 l 168 601 b 187 534 168 575 174 552 b 238 496 199 516 216 503 b 168 382 191 479 168 441 l 168 125 b 201 31 168 83 179 52 b 297 0 224 10 256 0 l 539 0 b 635 31 581 0 613 10 b 668 125 657 52 668 83 l 668 382 b 599 496 668 441 645 479 b 649 534 620 503 637 516 b 668 601 662 552 668 575 l 668 853 b 635 947 668 894 657 926 b 539 978 613 967 581 978 l 297 978 b 201 947 256 978 224 967 b 168 853 179 926 168 894 z m 346 181 l 346 797 l 490 797 l 490 586 l 386 586 l 386 404 l 490 404 l 490 181 z "},"9":{"ha":829,"x_min":0,"x_max":0,"o":"m 297 978 b 201 947 256 978 224 967 b 168 853 179 926 168 894 l 168 518 b 201 424 168 476 179 445 b 297 393 224 403 256 393 l 483 393 l 483 181 l 168 181 l 168 0 l 532 0 b 626 27 572 0 603 9 b 661 117 650 45 661 75 l 661 853 b 628 947 661 894 650 926 b 532 978 606 967 574 978 z m 346 574 l 346 797 l 483 797 l 483 574 z "}," ":{"ha":451,"x_min":0,"x_max":0,"o":""},"!":{"ha":514,"x_min":0,"x_max":0,"o":"m 346 978 l 346 267 l 168 267 l 168 978 z m 168 181 l 346 181 l 346 0 l 168 0 z "},"\"":{"ha":732,"x_min":0,"x_max":0,"o":"m 386 675 l 386 978 l 564 978 l 564 800 b 531 706 564 758 553 727 b 435 675 508 685 476 675 z m 168 675 l 168 978 l 346 978 l 346 800 b 313 706 346 758 335 727 b 217 675 290 685 258 675 z "},"#":{"ha":918,"x_min":0,"x_max":0,"o":"m 168 714 l 168 533 l 250 533 l 250 458 l 168 458 l 168 278 l 250 278 l 250 0 l 428 0 l 428 278 l 490 278 l 490 0 l 668 0 l 668 278 l 750 278 l 750 458 l 668 458 l 668 533 l 750 533 l 750 714 l 668 714 l 668 978 l 490 978 l 490 714 l 428 714 l 428 978 l 250 978 l 250 714 z m 428 533 l 490 533 l 490 458 l 428 458 z "},"$":{"ha":763,"x_min":0,"x_max":0,"o":"m 583 242 l 354 797 l 594 797 l 594 978 l 469 978 l 469 1075 l 292 1075 l 292 978 b 201 950 253 977 222 968 b 168 861 179 932 168 903 l 168 796 b 172 766 168 788 169 778 b 179 738 174 754 176 745 l 408 181 l 168 181 l 168 0 l 292 0 l 292 -97 l 469 -97 l 469 0 b 594 125 553 1 594 43 l 594 182 b 590 215 594 193 593 204 b 583 242 588 225 585 234 z "},"%":{"ha":1151,"x_min":0,"x_max":0,"o":"m 828 125 l 828 413 l 867 413 l 867 125 z m 789 0 l 906 0 b 983 81 957 0 983 27 l 983 458 b 906 538 983 511 957 538 l 789 538 b 710 458 736 538 710 511 l 710 81 b 789 0 710 27 736 0 z m 775 978 l 588 978 l 379 0 l 567 0 z m 286 565 l 286 853 l 325 853 l 325 565 z m 247 440 l 364 440 b 442 521 416 440 442 467 l 442 899 b 364 978 442 951 416 978 l 247 978 b 168 899 194 978 168 951 l 168 521 b 247 440 168 467 194 440 z "},"&":{"ha":876,"x_min":0,"x_max":0,"o":"m 708 586 l 708 406 l 651 406 l 651 0 l 297 0 b 201 31 256 0 224 10 b 168 125 179 52 168 83 l 168 382 b 238 496 168 441 191 479 b 187 534 216 503 199 516 b 168 601 174 552 168 575 l 168 853 b 201 947 168 894 179 926 b 297 978 224 967 256 978 l 651 978 l 651 797 l 346 797 l 346 181 l 474 181 l 474 404 l 386 404 l 386 586 z "},"'":{"ha":514,"x_min":0,"x_max":0,"o":"m 168 675 l 168 978 l 346 978 l 346 800 b 313 706 346 758 335 727 b 217 675 290 685 258 675 z "},"(":{"ha":617,"x_min":0,"x_max":0,"o":"m 449 181 l 346 181 l 346 797 l 449 797 l 449 978 l 297 978 b 203 951 257 978 226 969 b 168 861 180 933 168 903 l 168 125 b 201 31 168 83 179 52 b 297 0 224 10 256 0 l 449 0 z "},")":{"ha":617,"x_min":0,"x_max":0,"o":"m 168 181 l 271 181 l 271 797 l 168 797 l 168 978 l 319 978 b 414 951 359 978 391 969 b 449 861 437 933 449 903 l 449 125 b 415 31 449 83 438 52 b 319 0 393 10 361 0 l 168 0 z "},"*":{"ha":581,"x_min":0,"x_max":0,"o":"m 331 1036 l 328 968 l 385 993 l 413 904 l 356 883 l 396 829 l 329 774 l 290 831 l 251 774 l 188 829 l 222 883 l 168 904 l 194 992 l 251 968 l 249 1036 z "},"+":{"ha":697,"x_min":0,"x_max":0,"o":"m 168 586 l 258 586 l 258 676 l 439 676 l 439 586 l 529 586 l 529 406 l 439 406 l 439 315 l 258 315 l 258 406 l 168 406 z "},",":{"ha":514,"x_min":0,"x_max":0,"o":"m 168 -122 l 168 181 l 346 181 l 346 3 b 313 -91 346 -39 335 -70 b 217 -122 290 -112 258 -122 z "},"-":{"ha":590,"x_min":0,"x_max":0,"o":"m 168 586 l 168 406 l 422 406 l 422 586 z "},".":{"ha":514,"x_min":0,"x_max":0,"o":"m 168 181 l 346 181 l 346 0 l 168 0 z "},"/":{"ha":704,"x_min":0,"x_max":0,"o":"m 550 978 l 363 978 l 154 0 l 342 0 z "},":":{"ha":514,"x_min":0,"x_max":0,"o":"m 168 181 l 346 181 l 346 0 l 168 0 z m 168 586 l 346 586 l 346 406 l 168 406 z "},";":{"ha":514,"x_min":0,"x_max":0,"o":"m 168 586 l 346 586 l 346 406 l 168 406 z m 168 -121 l 168 181 l 346 181 l 346 4 b 313 -90 346 -37 335 -69 b 217 -121 290 -110 258 -121 z "},"<":{"ha":672,"x_min":0,"x_max":0,"o":"m 154 489 l 335 0 l 518 0 l 346 489 l 518 978 l 335 978 z "},"=":{"ha":628,"x_min":0,"x_max":0,"o":"m 168 472 l 460 472 l 460 292 l 168 292 z m 168 700 l 460 700 l 460 519 l 168 519 z "},">":{"ha":672,"x_min":0,"x_max":0,"o":"m 518 489 l 338 0 l 154 0 l 326 489 l 154 978 l 338 978 z "},"?":{"ha":763,"x_min":0,"x_max":0,"o":"m 465 978 b 561 947 507 978 539 967 b 594 853 583 926 594 894 l 594 531 b 561 437 594 489 583 458 b 465 406 539 416 507 406 l 396 406 l 396 267 l 218 267 l 218 461 b 251 555 218 503 229 534 b 347 586 274 576 306 586 l 417 586 l 417 797 l 168 797 l 168 978 z m 218 181 l 396 181 l 396 0 l 218 0 z "},"@":{"ha":1181,"x_min":0,"x_max":0,"o":"m 522 169 l 883 169 b 979 201 925 169 957 180 b 1013 294 1001 222 1013 253 l 1013 919 b 978 1009 1013 961 1001 991 b 883 1036 955 1027 923 1036 l 297 1036 b 203 1009 257 1036 226 1027 b 168 919 180 991 168 961 l 168 67 b 201 -27 168 25 179 -6 b 297 -58 224 -48 256 -58 l 983 -58 l 983 122 l 346 122 l 346 856 l 835 856 l 835 347 l 788 347 l 788 683 b 754 777 788 725 776 756 b 658 808 732 798 700 808 l 522 808 b 426 777 481 808 449 798 b 393 683 404 756 393 725 l 393 294 b 426 201 393 253 404 222 b 522 169 449 180 481 169 z m 568 631 l 613 631 l 613 347 l 568 347 z "},"A":{"ha":904,"x_min":0,"x_max":0,"o":"m 372 94 l 378 104 b 385 117 381 111 384 115 l 383 138 l 393 147 l 394 149 b 394 151 394 150 394 150 b 394 154 394 152 394 153 l 393 156 l 393 172 b 392 189 393 182 393 188 l 388 181 l 388 176 b 386 165 388 175 387 171 b 383 148 385 160 384 154 b 378 131 381 142 380 136 b 374 124 376 126 375 124 l 376 163 b 378 170 377 163 378 166 b 379 178 379 174 379 177 l 379 181 l 378 181 l 378 243 l 383 269 b 392 285 389 270 392 275 l 392 290 l 390 294 l 367 249 b 364 243 365 247 364 245 l 367 222 b 363 213 367 216 365 213 l 360 214 l 357 222 l 354 222 l 363 200 b 358 193 363 195 361 193 l 357 193 b 346 207 354 193 350 198 b 339 228 341 216 339 223 b 340 235 339 230 339 232 b 342 246 341 239 342 242 l 336 256 b 342 274 337 262 339 268 b 346 294 344 280 346 287 b 345 297 346 295 346 296 l 344 297 b 342 290 344 295 343 293 b 339 285 342 288 341 286 l 331 283 l 328 282 l 329 282 b 324 276 326 282 325 280 l 285 247 l 281 247 b 274 250 278 247 275 248 b 268 253 272 252 270 253 b 260 248 265 253 263 251 b 256 238 258 245 256 241 l 250 207 l 249 207 l 251 242 l 233 242 b 243 245 236 244 239 245 b 251 247 247 246 250 246 l 251 249 l 242 256 l 246 256 b 261 260 252 256 257 257 b 270 271 265 264 268 267 b 276 281 272 275 275 278 b 283 286 278 284 281 286 l 293 285 b 306 288 298 285 302 286 b 318 293 310 289 314 291 l 339 313 l 349 325 b 360 334 351 328 355 331 b 368 343 366 337 368 340 l 367 344 l 361 343 l 326 306 b 310 297 319 300 313 297 l 343 331 b 355 346 348 335 352 340 b 368 361 358 351 363 356 l 368 368 l 378 396 b 372 397 377 396 375 396 l 368 397 b 367 400 367 397 367 398 l 367 403 b 377 438 367 416 370 427 b 403 463 384 448 393 456 b 408 472 405 464 406 468 b 419 476 411 475 415 476 b 428 479 425 476 428 477 l 418 522 b 430 556 418 535 422 547 b 463 571 438 566 449 571 b 486 561 473 571 481 568 b 497 538 492 555 495 547 l 504 494 b 503 491 504 494 504 492 l 501 489 l 501 488 b 509 478 501 484 504 481 b 522 475 514 476 519 475 b 535 486 526 475 530 479 b 542 510 537 491 539 499 b 549 529 544 521 547 527 b 556 560 552 539 555 550 b 557 592 556 570 557 581 l 558 592 b 562 585 560 592 561 589 b 565 570 562 580 563 575 b 571 556 566 565 568 560 b 583 549 574 551 578 549 b 592 551 586 549 589 549 b 603 553 596 552 599 553 b 597 542 603 550 601 547 b 583 530 592 538 588 534 l 569 517 b 561 507 565 513 562 510 b 560 500 560 507 560 505 b 557 490 560 495 559 492 l 549 468 b 566 452 555 461 561 455 b 578 432 571 449 575 442 l 576 393 l 577 392 b 578 389 578 391 578 390 l 571 389 l 571 385 b 572 381 572 384 572 382 l 572 376 l 574 374 b 576 369 576 372 576 370 l 578 359 l 579 356 l 582 343 l 582 328 b 587 322 585 325 586 323 b 588 315 587 320 588 318 l 588 311 b 586 307 588 309 587 308 l 578 269 b 574 261 575 268 574 265 b 568 256 574 258 572 256 l 568 238 b 561 224 564 234 562 229 b 553 211 560 219 557 215 l 546 211 l 542 207 l 533 206 b 530 187 532 203 531 197 b 528 168 528 177 528 171 l 528 143 l 522 115 l 517 44 b 506 24 512 37 509 30 b 503 0 504 17 503 9 l 750 0 l 544 978 l 360 978 l 154 0 l 418 0 l 407 33 b 401 39 406 38 404 40 b 393 51 397 38 395 42 l 386 100 b 394 109 390 101 392 104 b 396 124 395 114 396 119 b 393 132 396 129 395 132 b 390 128 392 132 391 131 l 392 119 l 382 101 b 377 97 381 100 379 99 b 372 94 375 95 373 94 z m 463 136 b 458 124 462 133 460 129 b 456 113 456 119 456 115 b 458 100 456 108 457 104 b 458 90 458 96 458 93 l 457 78 b 458 72 458 77 458 75 l 458 21 b 460 0 458 8 459 1 l 464 0 b 463 18 463 1 463 7 l 463 46 b 465 54 464 48 465 50 l 463 64 b 464 74 463 68 463 71 b 465 83 465 78 465 81 l 465 132 z m 533 340 l 533 321 b 543 306 533 311 537 306 b 542 326 543 312 543 319 b 538 344 542 333 540 339 z m 317 282 b 293 271 312 278 304 275 b 276 256 282 267 276 262 b 285 260 281 256 284 257 b 293 268 287 264 289 266 l 296 269 b 308 274 300 271 304 273 b 317 282 311 275 314 277 z m 533 282 l 535 278 b 538 269 537 276 538 273 l 540 269 l 542 286 l 539 289 z m 354 318 b 342 308 350 315 347 312 b 332 293 338 303 335 299 b 343 305 335 297 338 301 b 357 313 348 309 352 312 l 357 315 b 354 318 357 317 356 318 z "},"B":{"ha":835,"x_min":0,"x_max":0,"o":"m 538 0 b 633 31 579 0 611 10 b 667 125 656 52 667 83 l 667 382 b 597 496 667 441 644 479 b 648 534 619 503 635 516 b 667 601 660 552 667 575 l 667 853 b 633 947 667 894 656 926 b 538 978 611 967 579 978 l 168 978 l 168 0 z m 386 406 l 489 406 l 489 181 l 346 181 l 346 797 l 489 797 l 489 586 l 386 586 z "},"C":{"ha":835,"x_min":0,"x_max":0,"o":"m 346 797 l 346 181 l 489 181 l 489 354 l 667 354 l 667 125 b 633 31 667 83 656 52 b 538 0 611 10 579 0 l 297 0 b 201 31 256 0 224 10 b 168 125 179 52 168 83 l 168 853 b 201 947 168 894 179 926 b 297 978 224 967 256 978 l 538 978 b 633 947 579 978 611 967 b 667 853 656 926 667 894 l 667 624 l 489 624 l 489 797 z "},"D":{"ha":835,"x_min":0,"x_max":0,"o":"m 538 0 b 633 31 579 0 611 10 b 667 125 656 52 667 83 l 667 853 b 633 947 667 894 656 926 b 538 978 611 967 579 978 l 168 978 l 168 0 z m 346 797 l 489 797 l 489 181 l 346 181 z "},"E":{"ha":760,"x_min":0,"x_max":0,"o":"m 168 978 l 168 0 l 592 0 l 592 181 l 346 181 l 346 406 l 550 406 l 550 586 l 346 586 l 346 797 l 592 797 l 592 978 z "},"F":{"ha":760,"x_min":0,"x_max":0,"o":"m 168 978 l 168 0 l 346 0 l 346 406 l 550 406 l 550 586 l 346 586 l 346 797 l 592 797 l 592 978 z "},"G":{"ha":829,"x_min":0,"x_max":0,"o":"m 661 0 l 661 586 l 400 586 l 400 404 l 486 404 l 486 181 l 346 181 l 346 797 l 661 797 l 661 978 l 297 978 b 203 951 257 978 226 969 b 168 861 180 933 168 903 l 168 125 b 201 31 168 83 179 52 b 297 0 224 10 256 0 z "},"H":{"ha":832,"x_min":0,"x_max":0,"o":"m 346 978 l 168 978 l 168 0 l 346 0 l 346 404 l 486 404 l 486 0 l 664 0 l 664 978 l 486 978 l 486 588 l 346 588 z "},"I":{"ha":514,"x_min":0,"x_max":0,"o":"m 168 978 l 346 978 l 346 0 l 168 0 z "},"J":{"ha":746,"x_min":0,"x_max":0,"o":"m 578 125 b 544 31 578 83 567 52 b 449 0 522 10 490 0 l 168 0 l 168 181 l 400 181 l 400 978 l 578 978 z "},"K":{"ha":844,"x_min":0,"x_max":0,"o":"m 346 0 l 168 0 l 168 978 l 346 978 z m 385 306 l 385 682 l 501 978 l 690 978 l 488 489 l 690 0 l 501 0 z "},"L":{"ha":746,"x_min":0,"x_max":0,"o":"m 168 978 l 346 978 l 346 181 l 578 181 l 578 0 l 168 0 z "},"M":{"ha":938,"x_min":0,"x_max":0,"o":"m 168 978 l 332 978 l 468 618 l 611 978 l 769 978 l 769 0 l 592 0 l 592 507 l 468 204 l 344 507 l 344 0 l 168 0 z "},"N":{"ha":831,"x_min":0,"x_max":0,"o":"m 518 0 l 663 0 l 663 978 l 486 978 l 486 506 l 313 978 l 168 978 l 168 0 l 344 0 l 344 426 z "},"O":{"ha":835,"x_min":0,"x_max":0,"o":"m 538 0 l 297 0 b 201 31 256 0 224 10 b 168 125 179 52 168 83 l 168 853 b 201 947 168 894 179 926 b 297 978 224 967 256 978 l 538 978 b 633 947 579 978 611 967 b 667 853 656 926 667 894 l 667 125 b 633 31 667 83 656 52 b 538 0 611 10 579 0 z m 357 229 b 359 216 357 227 358 223 b 363 200 360 209 362 204 b 369 178 365 196 368 189 l 369 172 b 371 165 369 169 370 166 l 375 154 l 429 154 l 429 158 b 432 182 430 169 431 176 b 436 203 433 188 434 194 b 438 208 436 206 437 208 b 441 216 438 211 440 214 b 444 225 442 218 444 221 l 446 228 b 449 232 447 231 448 232 l 451 232 b 458 242 456 235 458 238 l 459 245 l 461 256 l 461 257 b 466 255 463 257 465 256 l 468 253 b 465 244 468 249 467 246 b 463 239 463 243 463 241 l 467 243 l 472 239 b 481 249 474 239 477 242 b 485 243 481 245 482 243 b 488 244 487 243 488 244 l 488 243 l 494 243 l 501 233 b 506 218 504 231 506 225 b 508 214 507 218 508 217 l 511 214 l 513 214 l 513 215 b 510 218 511 215 510 216 l 510 225 l 515 235 b 517 232 516 235 517 234 b 519 231 517 231 518 231 l 526 235 b 528 232 527 235 528 234 l 533 232 b 536 233 535 232 536 232 l 536 235 l 536 239 l 536 240 b 538 243 537 240 538 241 b 533 245 536 245 534 246 b 528 249 532 245 531 246 l 529 251 b 530 252 530 251 530 252 l 529 253 b 534 255 533 253 534 253 b 538 258 534 256 535 257 b 539 258 538 259 538 259 l 540 257 l 540 256 b 542 259 541 256 542 258 b 546 261 543 260 544 261 b 549 259 548 261 549 260 l 550 257 l 551 258 b 553 260 552 258 553 259 b 551 262 553 261 552 261 b 550 265 550 262 550 263 b 547 272 549 266 548 269 b 546 279 546 276 546 278 b 549 289 548 281 549 284 b 544 302 549 294 547 298 b 539 314 542 306 540 310 l 539 315 l 544 311 l 543 326 b 544 331 543 328 543 330 b 544 333 544 331 544 332 l 544 336 l 540 344 b 533 361 538 351 536 356 b 529 371 531 366 529 369 b 521 383 529 377 526 381 b 509 403 516 391 512 397 b 499 422 506 408 502 415 b 494 447 497 434 495 442 b 492 449 492 451 492 451 b 475 494 484 464 479 480 b 461 543 471 509 467 525 l 461 549 b 467 551 461 550 463 551 l 468 551 b 474 543 468 550 470 547 b 475 535 475 542 475 539 b 483 517 475 528 478 522 l 506 472 l 506 472 b 507 469 507 471 507 470 l 506 468 l 506 460 b 505 446 506 458 505 453 b 501 431 504 438 503 433 l 501 429 b 507 424 501 425 503 424 b 510 428 506 424 507 425 l 513 431 l 508 414 l 510 404 b 514 412 512 407 513 409 b 518 418 515 414 516 416 b 526 430 521 423 523 427 b 536 440 528 433 531 437 l 536 446 b 534 456 536 450 535 453 b 532 468 533 459 532 463 b 533 472 532 470 532 471 b 533 474 533 472 533 473 l 532 482 b 528 516 532 493 531 504 b 521 550 525 528 523 539 b 519 551 521 551 520 551 b 518 553 519 552 519 553 b 516 551 517 553 516 552 b 513 550 516 550 514 550 b 510 553 511 550 510 551 l 510 558 l 532 561 b 542 563 533 562 536 563 l 546 563 b 553 556 550 561 552 559 b 558 551 554 554 556 552 l 565 549 b 574 540 570 547 573 544 b 575 526 575 535 575 531 b 569 511 575 519 573 514 b 563 504 565 508 563 506 l 563 503 l 564 503 b 572 506 567 504 569 505 b 578 510 574 508 576 509 b 583 525 581 513 583 519 l 585 539 b 586 550 586 540 586 544 b 585 554 586 552 586 553 b 583 558 584 555 583 556 l 583 571 l 578 574 l 575 576 l 572 579 b 556 596 565 583 559 588 b 544 606 553 599 549 602 b 529 618 540 610 535 614 b 517 625 527 619 523 621 b 504 633 510 629 506 631 l 501 635 b 496 672 501 645 500 657 b 475 701 492 686 485 696 l 474 702 b 471 704 473 703 472 703 b 479 735 473 715 475 726 b 497 758 483 745 489 753 b 510 767 499 760 503 763 b 524 776 517 772 522 775 l 529 782 b 532 789 531 784 532 786 b 528 790 532 790 531 790 b 519 790 525 790 522 790 b 513 789 517 789 514 789 b 492 810 500 789 493 796 l 492 831 b 488 839 492 836 490 839 b 484 833 486 839 484 837 l 483 826 l 483 819 b 482 815 483 818 483 816 b 479 804 481 813 480 810 b 478 793 478 799 478 795 b 469 751 476 780 473 766 b 451 710 465 737 459 723 l 450 710 b 447 713 448 710 447 711 b 444 719 447 715 446 718 b 439 722 444 720 442 721 b 435 725 436 722 435 723 l 435 763 b 436 767 436 763 436 765 l 435 783 b 433 785 434 785 433 786 b 431 786 432 785 431 785 b 422 807 429 794 426 800 b 404 821 417 813 412 818 l 397 821 b 392 824 395 823 394 824 l 385 822 l 381 819 b 368 814 375 818 371 816 b 360 797 365 812 363 806 b 358 792 359 796 358 794 b 357 789 358 791 358 790 b 356 788 357 788 356 788 b 350 781 352 787 350 784 l 350 767 l 350 749 b 351 731 350 738 350 731 l 353 726 b 349 725 352 725 350 725 b 343 722 347 725 345 724 b 340 719 342 721 341 720 b 338 717 339 717 338 717 l 332 717 l 331 717 l 331 715 l 326 713 b 317 708 323 711 320 709 b 311 704 315 707 313 706 l 294 686 l 286 680 b 283 669 284 678 283 675 b 282 653 282 669 282 663 l 282 633 b 283 626 282 631 282 628 b 285 618 284 625 285 622 l 285 615 b 283 599 284 610 283 604 b 282 585 282 594 282 589 b 279 580 282 580 281 578 b 276 563 277 581 276 575 b 268 553 275 557 272 554 b 263 540 264 553 263 549 l 263 528 b 265 524 263 526 264 525 b 267 521 266 524 267 523 l 271 496 b 275 491 272 494 273 492 b 279 485 277 490 278 488 b 282 475 281 475 282 472 l 282 468 l 282 465 l 283 467 b 286 461 285 465 286 463 b 288 456 286 458 287 456 b 294 451 289 455 291 453 b 300 447 296 448 298 447 b 304 449 303 447 304 448 b 313 441 307 447 310 444 b 317 429 315 438 317 434 l 319 397 l 319 374 l 318 367 b 314 358 317 367 316 364 b 310 344 312 352 311 347 b 301 333 307 340 304 336 b 293 319 297 329 295 325 l 292 319 b 292 317 292 318 292 318 l 275 264 b 274 262 275 263 275 262 b 274 260 274 261 274 261 l 268 243 b 267 240 267 242 267 241 l 267 239 l 267 238 b 271 235 267 236 268 235 l 274 238 l 300 315 b 304 321 300 319 301 321 b 311 315 309 321 311 319 b 306 300 309 311 307 306 b 300 285 304 294 302 289 b 297 278 299 283 298 281 b 294 269 295 276 294 273 l 282 232 l 283 229 b 285 231 284 229 285 230 b 286 235 285 232 285 234 l 318 308 b 319 318 319 309 319 313 l 319 342 l 321 357 l 325 358 b 328 363 325 360 326 362 l 331 364 l 331 369 b 332 367 331 369 332 369 l 332 357 b 346 331 333 346 338 337 l 349 313 l 332 301 l 332 282 l 332 275 b 333 269 332 272 332 270 l 336 265 l 336 260 l 337 258 b 338 256 337 257 338 256 l 339 251 b 340 242 339 250 339 247 b 343 239 341 238 342 237 l 346 235 l 350 232 b 357 229 353 232 355 231 z m 310 504 l 311 544 b 313 552 312 547 313 550 b 317 560 314 554 315 557 b 319 556 319 558 319 556 l 319 553 b 322 537 320 548 321 543 b 329 521 322 531 325 525 b 324 507 329 514 328 510 b 319 499 321 504 319 501 l 319 494 l 318 494 b 317 492 317 494 317 494 b 318 485 317 490 317 488 b 318 482 319 482 319 481 l 318 472 l 317 472 l 317 467 b 311 482 313 470 311 475 l 311 483 b 313 486 311 485 312 486 l 313 499 b 311 500 313 500 312 500 b 310 503 311 501 311 502 z m 508 335 b 509 337 508 336 509 336 l 510 338 b 511 345 510 339 510 342 b 514 353 512 348 513 351 l 515 353 b 521 337 518 348 520 343 b 522 321 522 331 522 325 l 522 311 l 521 311 b 515 317 517 311 515 313 l 513 317 b 510 328 511 319 510 322 z m 501 358 l 501 363 l 508 364 l 508 361 b 506 353 508 357 507 355 b 501 358 503 354 501 356 z "},"P":{"ha":835,"x_min":0,"x_max":0,"o":"m 168 978 l 168 0 l 346 0 l 346 797 l 490 797 l 490 586 l 386 586 l 386 406 l 538 406 b 633 437 579 406 611 416 b 667 531 656 458 667 489 l 667 853 b 633 947 667 894 656 926 b 538 978 611 967 579 978 z "},"Q":{"ha":835,"x_min":0,"x_max":0,"o":"m 346 181 l 346 797 l 489 797 l 489 261 z m 297 0 l 328 0 l 371 -122 l 556 -122 l 513 0 l 538 0 b 633 31 579 0 611 10 b 667 125 656 52 667 83 l 667 853 b 633 947 667 894 656 926 b 538 978 611 967 579 978 l 297 978 b 201 947 256 978 224 967 b 168 853 179 926 168 894 l 168 125 b 201 31 168 83 179 52 b 297 0 224 10 256 0 z "},"R":{"ha":835,"x_min":0,"x_max":0,"o":"m 538 978 l 168 978 l 168 0 l 346 0 l 346 797 l 489 797 l 489 586 l 386 586 l 386 385 l 513 0 l 696 0 l 558 408 b 635 433 589 410 615 418 b 667 504 656 447 667 471 l 667 853 b 633 947 667 894 656 926 b 538 978 611 967 579 978 z "},"S":{"ha":763,"x_min":0,"x_max":0,"o":"m 168 181 l 168 0 l 465 0 b 561 31 507 0 539 10 b 594 125 583 52 594 83 l 594 461 b 561 555 594 503 583 534 b 465 586 539 576 507 586 l 346 586 l 346 797 l 594 797 l 594 978 l 297 978 b 201 947 256 978 224 967 b 168 853 179 926 168 894 l 168 531 b 201 437 168 489 179 458 b 297 406 224 416 256 406 l 417 406 l 417 181 z "},"T":{"ha":797,"x_min":0,"x_max":0,"o":"m 629 978 l 168 978 l 168 797 l 310 797 l 310 0 l 488 0 l 488 797 l 629 797 z "},"U":{"ha":835,"x_min":0,"x_max":0,"o":"m 297 0 l 538 0 b 633 31 579 0 611 10 b 667 125 656 52 667 83 l 667 978 l 489 978 l 489 181 l 346 181 l 346 978 l 168 978 l 168 125 b 201 31 168 83 179 52 b 297 0 224 10 256 0 z "},"V":{"ha":904,"x_min":0,"x_max":0,"o":"m 750 978 l 561 978 l 451 440 l 343 978 l 154 978 l 360 0 l 544 0 z "},"W":{"ha":938,"x_min":0,"x_max":0,"o":"m 168 0 l 332 0 l 468 360 l 611 0 l 769 0 l 769 978 l 592 978 l 592 471 l 468 774 l 344 471 l 344 978 l 168 978 z "},"X":{"ha":844,"x_min":0,"x_max":0,"o":"m 154 978 l 326 489 l 154 0 l 338 0 l 422 250 l 507 0 l 690 0 l 518 489 l 690 978 l 507 978 l 422 728 l 338 978 z "},"Y":{"ha":844,"x_min":0,"x_max":0,"o":"m 338 978 l 154 978 l 332 490 l 332 0 l 510 0 l 510 489 l 690 978 l 507 978 l 422 728 z "},"Z":{"ha":763,"x_min":0,"x_max":0,"o":"m 179 242 b 172 213 177 234 175 225 b 168 182 169 200 168 190 l 168 0 l 594 0 l 594 181 l 356 181 l 583 738 b 591 766 586 745 589 754 b 594 796 593 778 594 788 l 594 978 l 168 978 l 168 797 l 407 797 z "},"[":{"ha":617,"x_min":0,"x_max":0,"o":"m 449 181 l 346 181 l 346 797 l 449 797 l 449 978 l 168 978 l 168 0 l 449 0 z "},"\\":{"ha":704,"x_min":0,"x_max":0,"o":"m 154 978 l 342 978 l 550 0 l 363 0 z "},"]":{"ha":617,"x_min":0,"x_max":0,"o":"m 168 181 l 271 181 l 271 797 l 168 797 l 168 978 l 449 978 l 449 0 l 168 0 z "},"^":{"ha":904,"x_min":0,"x_max":0,"o":"m 750 0 l 156 0 l 361 978 l 544 978 z m 524 181 l 451 539 l 381 181 z "},"_":{"ha":718,"x_min":0,"x_max":0,"o":"m 168 135 l 550 135 l 550 -46 l 168 -46 z "},"`":{"ha":503,"x_min":0,"x_max":0,"o":"m 258 1208 l 81 1208 l 168 1028 l 335 1028 z "},"a":{"ha":904,"x_min":0,"x_max":0,"o":"m 750 0 l 561 0 l 451 538 l 344 0 l 154 0 l 361 978 l 544 978 z "},"b":{"ha":835,"x_min":0,"x_max":0,"o":"m 538 0 b 633 31 579 0 611 10 b 667 125 656 52 667 83 l 667 382 b 597 496 667 441 644 479 b 648 534 619 503 635 516 b 667 601 660 552 667 575 l 667 853 b 633 947 667 894 656 926 b 538 978 611 967 579 978 l 168 978 l 168 0 z m 386 406 l 489 406 l 489 181 l 346 181 l 346 797 l 489 797 l 489 586 l 386 586 z "},"c":{"ha":760,"x_min":0,"x_max":0,"o":"m 592 181 l 346 181 l 346 797 l 592 797 l 592 978 l 297 978 b 203 951 257 978 226 969 b 168 861 180 933 168 903 l 168 125 b 201 31 168 83 179 52 b 297 0 224 10 256 0 l 592 0 z "},"d":{"ha":835,"x_min":0,"x_max":0,"o":"m 538 0 b 633 31 579 0 611 10 b 667 125 656 52 667 83 l 667 853 b 633 947 667 894 656 926 b 538 978 611 967 579 978 l 168 978 l 168 0 z m 346 797 l 489 797 l 489 181 l 346 181 z "},"e":{"ha":760,"x_min":0,"x_max":0,"o":"m 168 978 l 168 0 l 592 0 l 592 181 l 346 181 l 346 406 l 550 406 l 550 586 l 346 586 l 346 797 l 592 797 l 592 978 z "},"f":{"ha":760,"x_min":0,"x_max":0,"o":"m 168 978 l 168 0 l 346 0 l 346 406 l 550 406 l 550 586 l 346 586 l 346 797 l 592 797 l 592 978 z "},"g":{"ha":829,"x_min":0,"x_max":0,"o":"m 661 0 l 661 586 l 400 586 l 400 404 l 486 404 l 486 181 l 346 181 l 346 797 l 661 797 l 661 978 l 297 978 b 203 951 257 978 226 969 b 168 861 180 933 168 903 l 168 125 b 201 31 168 83 179 52 b 297 0 224 10 256 0 z "},"h":{"ha":832,"x_min":0,"x_max":0,"o":"m 346 978 l 168 978 l 168 0 l 346 0 l 346 404 l 486 404 l 486 0 l 664 0 l 664 978 l 486 978 l 486 588 l 346 588 z "},"i":{"ha":514,"x_min":0,"x_max":0,"o":"m 168 978 l 346 978 l 346 0 l 168 0 z "},"j":{"ha":746,"x_min":0,"x_max":0,"o":"m 578 125 b 544 31 578 83 567 52 b 449 0 522 10 490 0 l 168 0 l 168 181 l 400 181 l 400 978 l 578 978 z "},"k":{"ha":844,"x_min":0,"x_max":0,"o":"m 346 0 l 346 401 l 501 0 l 690 0 l 488 489 l 690 978 l 501 978 l 346 589 l 346 978 l 168 978 l 168 0 z "},"l":{"ha":746,"x_min":0,"x_max":0,"o":"m 168 978 l 346 978 l 346 181 l 578 181 l 578 0 l 168 0 z "},"m":{"ha":938,"x_min":0,"x_max":0,"o":"m 168 978 l 332 978 l 468 618 l 611 978 l 769 978 l 769 0 l 592 0 l 592 507 l 468 204 l 344 507 l 344 0 l 168 0 z "},"n":{"ha":831,"x_min":0,"x_max":0,"o":"m 518 0 l 663 0 l 663 978 l 486 978 l 486 506 l 313 978 l 168 978 l 168 0 l 344 0 l 344 426 z "},"o":{"ha":835,"x_min":0,"x_max":0,"o":"m 297 0 l 538 0 b 633 31 579 0 611 10 b 667 125 656 52 667 83 l 667 853 b 633 947 667 894 656 926 b 538 978 611 967 579 978 l 297 978 b 201 947 256 978 224 967 b 168 853 179 926 168 894 l 168 125 b 201 31 168 83 179 52 b 297 0 224 10 256 0 z m 346 797 l 489 797 l 489 181 l 346 181 z "},"p":{"ha":835,"x_min":0,"x_max":0,"o":"m 168 978 l 168 0 l 346 0 l 346 797 l 490 797 l 490 586 l 386 586 l 386 406 l 538 406 b 633 437 579 406 611 416 b 667 531 656 458 667 489 l 667 853 b 633 947 667 894 656 926 b 538 978 611 967 579 978 z "},"q":{"ha":835,"x_min":0,"x_max":0,"o":"m 346 181 l 346 797 l 489 797 l 489 181 z m 297 0 l 328 0 l 371 -122 l 556 -122 l 513 0 l 538 0 b 633 31 579 0 611 10 b 667 125 656 52 667 83 l 667 853 b 633 947 667 894 656 926 b 538 978 611 967 579 978 l 297 978 b 201 947 256 978 224 967 b 168 853 179 926 168 894 l 168 125 b 201 31 168 83 179 52 b 297 0 224 10 256 0 z "},"r":{"ha":835,"x_min":0,"x_max":0,"o":"m 538 978 l 168 978 l 168 0 l 346 0 l 346 797 l 489 797 l 489 586 l 386 586 l 386 385 l 513 0 l 696 0 l 558 408 b 635 433 589 410 615 418 b 667 504 656 447 667 471 l 667 853 b 633 947 667 894 656 926 b 538 978 611 967 579 978 z "},"s":{"ha":763,"x_min":0,"x_max":0,"o":"m 583 242 b 590 215 585 234 588 225 b 594 182 593 204 594 193 l 594 125 b 561 31 594 83 583 52 b 465 0 539 10 507 0 l 168 0 l 168 181 l 408 181 l 179 738 b 172 766 176 745 174 754 b 168 796 169 778 168 788 l 168 861 b 203 951 168 903 180 933 b 297 978 226 969 257 978 l 594 978 l 594 797 l 354 797 z "},"t":{"ha":794,"x_min":0,"x_max":0,"o":"m 626 978 l 168 978 l 168 797 l 308 797 l 308 0 l 486 0 l 486 797 l 626 797 z "},"u":{"ha":835,"x_min":0,"x_max":0,"o":"m 297 0 l 538 0 b 633 31 579 0 611 10 b 667 125 656 52 667 83 l 667 978 l 489 978 l 489 181 l 346 181 l 346 978 l 168 978 l 168 125 b 201 31 168 83 179 52 b 297 0 224 10 256 0 z "},"v":{"ha":904,"x_min":0,"x_max":0,"o":"m 750 978 l 561 978 l 451 440 l 343 978 l 154 978 l 360 0 l 544 0 z "},"w":{"ha":1139,"x_min":0,"x_max":0,"o":"m 985 978 l 796 978 l 703 546 l 636 978 l 504 978 l 433 546 l 343 978 l 154 978 l 360 0 l 501 0 l 563 386 l 639 0 l 779 0 z "},"x":{"ha":844,"x_min":0,"x_max":0,"o":"m 154 978 l 326 489 l 154 0 l 338 0 l 422 250 l 507 0 l 690 0 l 518 489 l 690 978 l 507 978 l 422 728 l 338 978 z "},"y":{"ha":844,"x_min":0,"x_max":0,"o":"m 338 978 l 154 978 l 332 490 l 332 0 l 510 0 l 510 489 l 690 978 l 507 978 l 422 728 z "},"z":{"ha":763,"x_min":0,"x_max":0,"o":"m 179 242 b 172 213 177 234 175 225 b 168 182 169 200 168 190 l 168 0 l 594 0 l 594 181 l 356 181 l 583 738 b 591 766 586 745 589 754 b 594 796 593 778 594 788 l 594 978 l 168 978 l 168 797 l 407 797 z "},"{":{"ha":1883,"x_min":0,"x_max":0,"o":"m 1169 117 b 1180 108 1171 115 1175 112 b 1197 94 1185 103 1191 99 b 1214 79 1203 89 1208 84 b 1225 69 1219 75 1223 71 l 1239 64 b 1294 24 1256 49 1275 36 b 1354 0 1313 12 1333 4 l 1363 0 b 1403 5 1372 0 1385 2 b 1457 20 1422 8 1439 13 b 1503 46 1475 27 1490 36 b 1524 82 1517 56 1524 68 l 1517 178 b 1519 183 1517 176 1517 178 b 1524 211 1520 189 1522 198 l 1535 333 b 1538 336 1535 335 1536 336 l 1539 335 b 1542 333 1540 335 1541 334 b 1567 317 1551 328 1559 322 b 1594 310 1575 312 1584 310 l 1618 317 b 1623 315 1620 317 1622 316 b 1628 314 1624 314 1626 314 l 1656 317 l 1668 310 b 1672 305 1670 308 1671 306 b 1675 300 1672 303 1673 302 l 1688 294 l 1700 288 l 1704 288 b 1715 300 1712 288 1715 292 b 1700 317 1715 310 1710 316 b 1675 322 1690 319 1681 320 b 1660 330 1668 324 1663 327 b 1649 340 1657 333 1653 337 b 1644 342 1648 341 1646 342 b 1639 346 1643 343 1641 344 l 1633 350 l 1632 353 b 1631 358 1631 356 1631 357 l 1628 364 b 1626 368 1627 366 1626 367 b 1607 384 1620 375 1613 381 b 1585 399 1600 387 1593 392 b 1578 424 1580 403 1578 412 l 1578 440 b 1575 451 1578 446 1577 450 b 1559 458 1572 452 1567 454 b 1534 468 1551 461 1543 464 b 1510 478 1525 472 1517 475 b 1494 483 1502 481 1497 482 b 1482 490 1494 484 1489 487 b 1467 499 1475 494 1469 497 b 1464 501 1467 500 1466 500 l 1461 503 b 1450 516 1459 506 1456 510 b 1432 534 1444 522 1438 528 b 1414 551 1425 540 1419 546 l 1401 564 b 1395 567 1400 564 1398 565 b 1385 576 1392 570 1388 572 b 1374 584 1381 579 1378 582 b 1368 588 1371 586 1369 588 b 1365 590 1366 588 1365 588 l 1365 600 b 1369 615 1365 606 1367 611 b 1379 631 1372 620 1375 625 l 1403 671 b 1410 675 1404 674 1406 675 l 1506 660 l 1514 660 b 1594 686 1545 660 1572 669 b 1653 749 1617 704 1636 725 b 1658 772 1655 759 1656 767 b 1660 783 1659 778 1660 781 l 1660 831 b 1614 911 1654 865 1639 892 b 1526 954 1589 931 1560 945 b 1424 972 1493 963 1459 969 b 1332 975 1388 974 1358 975 l 1290 975 b 1205 933 1257 968 1228 953 b 1169 850 1181 912 1169 884 l 1176 800 b 1175 796 1176 797 1176 796 b 1169 794 1172 796 1170 795 b 1144 790 1164 794 1156 793 b 1125 786 1133 788 1127 786 l 1056 778 b 1047 775 1052 778 1049 777 l 1036 775 b 1011 774 1029 775 1020 775 b 992 772 1002 773 995 772 b 978 770 990 772 985 772 b 965 768 970 769 966 768 l 960 768 b 940 773 952 768 946 770 b 921 778 934 776 927 778 b 898 774 913 778 906 777 b 874 768 890 772 882 770 b 849 764 869 767 861 766 b 813 758 838 762 825 760 b 776 752 800 755 787 753 b 751 750 764 751 756 750 b 728 748 745 748 737 747 b 708 742 720 748 713 746 l 689 724 b 672 715 684 719 679 716 b 656 710 666 713 660 712 l 550 690 b 545 694 549 691 547 692 b 539 697 543 695 541 696 l 499 732 b 458 754 486 740 472 748 b 415 775 443 761 429 768 b 369 801 400 784 384 793 b 318 813 353 809 337 813 b 259 799 297 813 277 808 b 212 765 241 791 225 779 b 180 714 198 750 188 733 b 168 653 172 694 168 674 b 194 564 168 619 177 590 b 218 533 200 554 208 543 b 253 501 228 522 240 511 b 292 472 266 490 279 481 b 328 451 305 464 317 457 b 346 446 333 449 339 447 b 364 439 352 445 358 443 b 388 411 369 431 376 422 b 419 385 399 400 409 391 l 432 385 b 446 385 435 385 439 385 b 466 388 452 386 459 387 b 485 393 473 390 479 391 b 493 399 490 395 493 397 l 493 401 l 483 418 l 483 421 b 497 428 491 424 495 426 b 500 435 499 431 500 433 l 500 438 b 504 446 500 438 501 441 b 517 453 507 448 511 450 b 531 463 522 457 527 460 l 568 499 l 576 499 b 610 497 588 499 600 498 b 642 492 621 495 631 494 b 670 470 655 490 664 483 b 689 436 676 458 682 446 l 733 369 b 749 341 740 361 745 352 b 760 309 752 330 756 320 b 776 279 765 298 770 288 b 800 256 782 270 790 262 b 870 217 824 242 847 229 b 940 188 893 206 916 196 b 960 178 947 185 953 182 b 982 174 967 175 975 174 b 994 177 987 174 991 175 b 1006 181 998 179 1002 181 b 1014 178 1009 181 1012 180 b 1022 174 1016 177 1019 175 b 1051 156 1028 172 1038 166 b 1089 132 1065 145 1078 138 b 1093 128 1091 130 1092 129 b 1096 126 1094 128 1095 127 b 1101 124 1098 126 1100 125 l 1106 122 l 1107 121 l 1113 118 b 1117 117 1114 117 1116 117 z "},"|":{"ha":514,"x_min":0,"x_max":0,"o":"m 168 1100 l 346 1100 l 346 -122 l 168 -122 z "},"}":{"ha":783,"x_min":0,"x_max":0,"o":"m 283 119 b 289 98 284 116 286 109 b 294 75 292 87 294 80 b 300 56 296 69 298 63 l 306 33 l 306 24 b 307 15 306 19 306 16 b 310 8 307 13 308 10 b 314 0 313 5 314 3 l 399 0 l 399 6 b 403 42 400 19 401 31 b 411 78 406 53 408 65 b 413 83 412 79 413 81 b 415 89 414 86 414 88 b 421 99 417 93 419 96 b 426 110 423 101 425 105 b 427 118 426 111 427 113 b 431 125 428 123 429 125 l 432 125 l 433 124 b 435 124 433 124 434 124 l 436 125 b 446 139 441 129 444 133 l 451 156 l 451 157 b 458 155 453 157 456 156 b 463 151 461 153 463 152 b 458 142 463 147 461 144 b 453 135 454 140 453 138 b 456 137 454 135 455 135 b 460 139 456 138 458 139 b 463 137 462 139 463 138 b 467 135 464 135 465 135 b 482 149 474 135 479 139 b 489 140 482 143 484 140 b 492 142 491 140 492 141 l 492 140 b 494 139 493 139 494 139 b 497 140 495 139 496 139 l 499 140 b 503 139 501 140 503 140 l 514 126 b 519 115 517 123 518 119 b 521 101 519 112 520 107 b 525 96 524 101 525 100 l 526 96 l 528 96 l 528 97 b 530 97 529 97 529 97 b 532 96 530 96 531 96 l 533 96 l 533 97 b 529 103 531 98 530 100 b 528 110 528 106 528 108 l 528 111 l 531 113 b 534 121 531 113 533 116 b 538 128 535 125 537 128 b 541 125 539 128 541 127 b 544 122 541 123 543 122 b 547 123 545 122 546 122 l 547 124 b 556 129 549 125 552 127 b 558 125 557 129 558 128 l 567 125 b 569 129 569 125 569 126 b 569 131 569 130 569 131 b 568 133 568 132 568 132 b 569 136 568 135 569 136 b 572 139 571 136 572 137 l 568 141 l 567 142 b 558 147 565 142 562 144 l 558 149 l 561 150 b 562 151 562 150 562 150 l 561 153 b 567 156 566 153 568 154 b 571 161 567 157 568 159 b 574 161 572 162 573 162 l 575 160 l 575 154 b 576 156 576 154 576 155 b 578 162 577 157 578 159 b 585 165 579 164 581 165 b 590 157 588 165 590 163 b 594 163 593 157 594 159 b 593 166 594 164 594 166 b 590 169 592 166 591 168 b 586 179 588 171 587 175 b 585 189 585 184 585 187 l 587 199 b 588 204 587 202 588 203 b 582 223 588 211 586 217 b 574 239 578 229 575 234 l 574 240 l 574 242 l 579 235 l 582 235 b 581 245 582 238 582 242 b 581 256 581 248 581 252 b 581 263 581 259 581 262 b 582 268 582 265 582 266 l 582 269 l 582 272 l 576 282 b 565 307 573 290 569 299 b 549 332 560 315 555 324 l 549 333 b 554 328 550 331 552 330 b 560 324 556 327 558 325 l 560 325 b 555 336 560 330 558 333 b 547 343 552 339 549 341 b 526 371 540 353 533 363 b 510 394 520 379 514 387 b 499 433 502 407 499 420 b 473 499 488 455 480 476 b 451 568 466 521 459 544 l 451 574 l 451 575 l 451 576 b 460 582 451 580 454 582 l 461 582 b 464 574 462 577 463 575 b 469 569 465 574 467 572 b 474 558 471 566 473 562 b 479 550 475 555 476 552 b 483 542 481 548 482 546 b 486 533 483 539 484 536 l 521 468 l 522 467 b 522 464 522 466 522 465 l 521 461 b 519 456 520 460 519 458 b 518 449 519 452 519 450 b 517 429 518 446 518 439 b 515 408 517 419 516 412 l 515 404 b 522 397 515 400 518 397 b 526 403 524 397 525 399 l 528 415 b 530 420 529 417 529 419 l 531 422 l 532 422 b 534 420 533 422 534 422 b 536 417 534 419 535 418 l 536 414 l 536 411 l 535 410 b 533 407 535 410 534 409 l 525 385 l 525 382 b 531 372 525 378 527 375 b 537 381 533 375 535 378 b 543 389 538 383 540 386 b 556 406 548 394 552 400 b 568 421 559 411 563 416 l 568 422 b 569 424 569 422 569 423 l 569 428 b 567 444 569 433 569 439 b 565 463 566 450 565 456 b 566 466 565 464 566 466 b 567 469 566 466 567 468 l 566 473 b 565 478 566 475 565 477 l 565 482 b 558 530 565 498 563 514 b 547 578 553 546 549 562 b 546 582 547 581 547 582 b 543 585 546 584 545 585 b 538 583 541 585 540 584 b 533 581 537 581 535 581 b 529 585 531 581 530 582 b 526 593 528 589 527 591 l 565 596 b 578 597 566 597 570 597 l 579 597 l 585 597 b 595 590 589 595 593 593 b 606 582 597 586 601 584 b 612 579 606 582 609 581 l 617 576 b 628 565 622 575 626 571 b 631 546 630 559 631 552 b 622 526 631 537 628 530 b 614 513 617 522 614 517 b 615 510 614 511 614 510 b 626 516 619 511 623 513 b 636 524 630 519 633 522 b 643 543 641 528 643 535 b 645 553 644 544 645 547 b 646 564 646 558 646 562 b 648 572 647 567 647 569 b 649 581 648 574 649 577 b 646 586 649 582 648 584 b 643 593 644 588 643 590 l 643 610 l 641 611 b 636 614 640 612 638 613 l 626 624 b 614 633 622 627 618 631 b 603 644 610 636 606 640 b 583 660 596 649 590 654 b 561 675 576 665 569 670 l 539 686 l 517 697 l 514 700 b 507 755 515 716 513 734 b 475 799 501 776 491 790 l 470 800 b 464 803 467 801 465 802 b 480 847 469 819 474 833 b 508 879 486 860 495 871 b 531 892 512 882 519 886 b 551 904 542 897 549 901 b 560 911 553 906 556 908 b 565 921 563 914 565 917 b 558 924 565 923 563 924 b 546 922 554 924 550 923 b 533 921 542 921 538 921 b 499 954 514 921 502 932 l 499 960 l 499 964 l 499 986 b 493 996 499 993 497 996 b 488 988 490 996 488 993 b 485 979 487 983 486 980 l 485 969 b 483 963 485 966 484 963 b 481 945 482 960 481 954 b 479 929 480 936 479 931 b 463 869 476 909 471 889 b 435 810 454 849 445 829 l 433 810 b 430 815 431 810 430 811 b 426 822 429 818 428 820 b 415 825 425 823 421 824 b 407 831 410 826 407 828 b 408 841 407 832 407 836 b 410 850 409 846 410 849 l 410 861 l 410 868 l 410 875 l 410 885 b 413 890 412 887 413 888 l 411 902 b 407 914 410 910 409 914 b 403 916 405 916 404 916 b 400 917 403 916 402 916 b 387 949 398 929 394 940 b 360 971 380 959 371 966 b 356 972 360 972 358 972 b 353 974 354 972 353 973 b 347 976 350 975 348 975 b 339 976 346 976 344 976 b 336 975 337 976 336 976 l 331 975 b 304 963 318 970 309 966 b 289 935 300 960 294 950 l 287 928 l 286 926 b 283 919 286 924 285 921 b 282 918 283 919 283 918 b 272 911 275 917 272 915 l 272 897 l 272 893 l 272 892 l 274 889 l 274 865 l 274 853 b 275 840 274 845 274 841 b 278 833 275 838 276 835 b 269 831 275 831 272 831 b 261 826 267 832 264 830 b 258 822 260 825 259 824 b 254 819 256 820 255 819 b 249 818 253 819 251 818 l 246 818 l 244 818 l 244 817 l 238 814 b 224 808 233 811 228 809 b 211 803 219 807 215 806 b 199 788 206 798 202 793 b 186 775 195 783 191 779 b 170 759 175 770 170 765 b 163 731 171 753 168 744 l 163 697 b 167 686 163 693 164 689 b 172 675 171 683 172 680 l 172 672 b 168 651 171 665 170 658 b 163 631 166 644 164 637 b 157 621 163 628 161 625 b 156 608 156 620 156 616 b 154 597 156 602 155 598 b 149 590 153 594 152 591 b 143 585 147 588 145 587 b 138 579 141 584 139 582 b 135 565 136 576 135 572 l 135 549 b 139 543 137 546 138 544 b 142 538 140 542 141 540 l 146 506 l 146 500 b 153 494 148 497 150 495 b 160 485 156 492 158 489 l 162 474 b 163 472 162 472 163 471 l 163 461 b 167 458 164 459 166 458 l 171 460 b 174 453 173 458 174 456 b 174 453 174 455 174 455 b 176 443 175 451 175 448 b 185 436 178 441 181 439 b 197 432 190 433 194 432 b 201 433 199 432 200 432 b 214 420 205 429 209 424 b 221 404 219 416 221 411 l 224 360 l 224 356 b 226 343 225 351 225 347 b 228 331 227 339 228 335 l 228 328 b 224 322 227 327 226 325 b 222 317 223 319 222 318 b 216 301 221 315 219 310 b 208 283 213 293 210 287 b 194 267 204 278 199 272 b 182 246 189 261 185 254 l 181 245 b 181 243 181 245 181 244 l 153 168 b 151 166 153 167 152 166 b 150 163 150 166 150 164 b 144 144 148 158 146 152 l 142 133 l 142 132 b 146 129 142 130 143 129 b 150 132 147 129 148 130 l 197 242 b 201 249 197 246 199 249 b 211 242 208 249 211 246 b 203 221 207 235 205 228 b 197 200 201 213 199 206 b 190 188 195 195 193 191 b 186 176 188 185 186 181 l 163 124 l 163 122 l 167 118 b 171 122 169 118 170 119 b 174 129 172 125 173 127 l 222 232 b 224 238 223 233 224 235 l 224 244 l 224 256 l 224 269 l 224 279 b 228 290 225 281 226 284 b 232 300 231 295 232 298 l 235 303 b 240 308 235 305 236 306 l 244 310 l 244 321 b 246 314 245 321 246 319 l 247 299 b 265 263 248 286 254 274 l 268 238 b 258 228 268 236 265 233 b 246 221 251 224 247 222 l 246 196 b 247 188 246 194 246 191 b 249 175 247 184 248 180 l 251 171 l 251 163 l 252 160 b 253 156 253 159 253 157 l 256 150 b 257 144 256 147 256 145 b 261 133 259 138 260 134 l 265 129 b 269 127 267 129 268 128 b 272 125 269 126 270 125 b 278 124 273 124 275 124 b 283 119 280 124 281 122 z m 525 268 l 525 269 b 526 272 525 270 525 271 l 526 274 b 531 283 527 275 529 279 b 536 293 532 288 534 291 l 538 293 l 539 293 b 548 272 544 287 547 279 b 550 249 549 264 550 256 l 550 247 l 550 243 b 549 238 550 241 550 239 l 549 235 l 547 235 b 542 239 546 236 545 237 b 538 243 540 241 538 242 l 533 243 b 528 258 530 244 528 249 l 525 267 z m 514 303 b 515 308 514 306 514 307 l 519 309 b 524 310 521 309 523 310 l 525 310 l 525 306 b 521 293 525 298 524 294 b 514 303 516 298 514 301 z m 213 476 b 212 481 213 477 212 479 b 214 483 211 482 212 483 b 222 478 219 481 222 480 l 222 468 l 219 468 l 219 460 b 213 476 215 467 213 473 z m 208 511 l 208 513 l 208 518 l 208 519 b 210 547 208 530 209 539 b 211 571 211 556 211 563 b 215 583 213 575 214 580 b 221 594 215 587 217 591 b 224 589 223 594 224 592 l 225 585 b 232 561 228 576 230 569 b 243 539 234 554 238 546 l 243 538 b 235 518 243 530 240 524 b 226 504 229 513 226 508 b 228 501 226 502 227 501 b 229 499 229 500 229 500 l 224 499 l 219 501 b 213 506 217 502 214 504 b 210 509 212 506 211 508 z "},"~":{"ha":721,"x_min":0,"x_max":0,"o":"m 485 406 l 319 406 l 286 476 l 254 406 l 154 406 l 236 586 l 403 586 l 435 515 l 467 586 l 567 586 z "},"":{"ha":168,"x_min":0,"x_max":0,"o":""},"¡":{"ha":514,"x_min":0,"x_max":0,"o":"m 346 0 l 346 711 l 168 711 l 168 0 z m 168 797 l 346 797 l 346 978 l 168 978 z "},"¢":{"ha":760,"x_min":0,"x_max":0,"o":"m 346 292 l 592 292 l 592 111 l 490 111 l 490 0 l 313 0 l 313 111 l 297 111 b 201 142 256 111 224 122 b 168 236 179 163 168 194 l 168 750 b 203 840 168 792 180 822 b 297 867 226 858 257 867 l 313 867 l 313 978 l 490 978 l 490 867 l 592 867 l 592 686 l 346 686 z "},"£":{"ha":835,"x_min":0,"x_max":0,"o":"m 168 586 l 168 406 l 256 406 l 256 181 l 168 181 l 168 0 l 667 0 l 667 181 l 433 181 l 433 406 l 596 406 l 596 586 l 433 586 l 433 797 l 526 797 l 526 978 l 385 978 b 289 947 343 978 311 967 b 256 853 267 926 256 894 l 256 586 z "},"¤":{"ha":844,"x_min":0,"x_max":0,"o":"m 154 978 l 226 772 l 226 204 l 154 0 l 338 0 l 358 64 l 485 64 l 507 0 l 690 0 l 618 204 l 618 772 l 690 978 l 507 978 l 485 915 l 358 915 l 338 978 z m 371 758 l 472 758 l 472 221 l 371 221 z "},"¥":{"ha":844,"x_min":0,"x_max":0,"o":"m 422 728 l 338 978 l 154 978 l 332 490 l 215 490 l 215 310 l 332 310 l 332 263 l 215 263 l 215 82 l 332 82 l 332 0 l 510 0 l 510 82 l 628 82 l 628 263 l 510 263 l 510 310 l 628 310 l 628 490 l 510 490 l 690 978 l 507 978 z "},"¦":{"ha":514,"x_min":0,"x_max":0,"o":"m 346 465 l 168 465 l 168 -122 l 346 -122 z m 168 1100 l 168 513 l 346 513 l 346 1100 z "},"§":{"ha":844,"x_min":0,"x_max":0,"o":"m 517 64 b 618 172 584 64 618 100 l 618 772 l 690 978 l 507 978 l 485 915 l 328 915 b 226 807 260 915 226 879 l 226 204 l 154 0 l 338 0 l 358 64 z m 371 758 l 472 758 l 472 221 l 371 221 z "},"¨":{"ha":732,"x_min":0,"x_max":0,"o":"m 168 1208 l 346 1208 l 346 1028 l 168 1028 z m 386 1208 l 564 1208 l 564 1028 l 386 1028 z "},"©":{"ha":601,"x_min":0,"x_max":0,"o":"m 297 1036 b 237 1021 276 1036 256 1031 b 188 974 218 1011 201 995 b 168 904 175 950 168 926 b 207 811 168 868 181 837 b 301 772 232 785 263 772 b 352 783 319 772 336 776 b 394 811 368 790 382 799 b 423 853 406 823 416 837 b 433 904 430 869 433 886 b 396 997 433 937 421 968 b 297 1036 370 1023 337 1036 z m 303 1011 b 374 981 327 1011 350 1001 b 407 904 396 959 407 934 b 375 831 407 875 396 850 b 301 799 354 809 329 799 b 225 831 272 799 246 809 b 194 904 205 850 194 875 b 224 979 194 933 204 958 b 303 1011 248 1000 274 1011 z m 333 886 b 300 856 325 866 314 856 b 265 906 277 856 265 872 b 274 940 265 919 268 931 b 301 954 280 950 289 954 b 333 929 314 954 325 946 l 360 936 b 301 978 350 964 330 978 b 253 958 282 978 266 971 b 235 904 241 945 235 927 b 253 850 235 881 241 863 b 301 831 265 837 281 831 b 360 876 330 831 350 846 z "},"ª":{"ha":829,"x_min":0,"x_max":0,"o":"m 297 0 b 201 31 256 0 224 10 b 168 125 179 52 168 83 l 168 463 b 201 556 168 504 179 535 b 297 586 224 576 256 586 l 446 586 l 446 406 l 344 406 l 344 181 l 485 181 l 485 797 l 168 797 l 168 978 l 532 978 b 626 951 572 978 603 969 b 661 861 650 933 661 903 l 661 0 z "},"«":{"ha":736,"x_min":0,"x_max":0,"o":"m 388 376 l 388 614 l 568 696 l 568 529 l 497 494 l 568 461 l 568 294 z m 168 376 l 168 614 l 349 696 l 349 529 l 278 494 l 349 461 l 349 294 z "},"¬":{"ha":697,"x_min":0,"x_max":0,"o":"m 168 586 l 529 586 l 529 315 l 349 315 l 349 406 l 168 406 z "},"­":{"ha":510,"x_min":0,"x_max":0,"o":"m 168 586 l 168 406 l 342 406 l 342 586 z "},"®":{"ha":601,"x_min":0,"x_max":0,"o":"m 297 1036 b 240 1022 279 1036 259 1031 b 188 975 220 1013 202 997 b 168 904 175 951 168 927 b 207 811 168 868 181 837 b 301 772 232 785 263 772 b 352 783 319 772 336 776 b 394 811 368 790 382 799 b 423 853 406 823 416 837 b 433 904 430 869 433 886 b 423 955 433 922 430 939 b 394 997 416 971 406 985 b 350 1026 381 1009 367 1019 b 297 1036 333 1033 316 1036 z m 303 1011 b 350 999 319 1011 334 1007 b 390 960 368 990 381 977 b 407 904 401 941 407 923 b 375 829 407 875 396 850 b 301 799 355 809 330 799 b 225 829 271 799 245 809 b 194 904 205 850 194 875 b 224 979 194 933 204 958 b 303 1011 245 1000 271 1011 z m 242 833 l 269 833 l 269 892 l 278 892 b 299 885 284 892 291 889 b 317 856 304 879 310 869 l 329 833 l 364 833 l 349 863 b 336 880 343 870 339 876 l 332 886 b 317 894 328 890 323 893 b 356 935 343 900 356 913 b 344 963 356 946 352 955 b 308 974 336 970 324 974 l 242 974 z m 269 914 l 269 951 l 296 951 b 325 933 315 951 325 945 b 293 914 325 920 314 914 z "},"¯":{"ha":718,"x_min":0,"x_max":0,"o":"m 168 1022 l 550 1022 l 550 842 l 168 842 z "},"°":{"ha":514,"x_min":0,"x_max":0,"o":"m 168 1028 l 346 1028 l 346 1208 l 168 1208 z m 233 1147 l 282 1147 l 282 1089 l 233 1089 z "},"±":{"ha":697,"x_min":0,"x_max":0,"o":"m 168 678 l 258 678 l 258 768 l 439 768 l 439 678 l 529 678 l 529 497 l 439 497 l 439 407 l 258 407 l 258 497 l 168 497 z m 168 363 l 529 363 l 529 182 l 168 182 z "},"²":{"ha":1140,"x_min":0,"x_max":0,"o":"m 599 0 l 596 68 l 594 70 l 590 76 b 581 94 588 82 585 88 b 575 106 577 100 575 104 b 568 118 570 107 568 112 l 567 122 b 565 128 567 124 566 126 l 561 194 l 560 195 b 560 197 560 196 560 196 b 565 203 560 198 562 200 b 577 167 573 192 577 180 b 581 128 578 154 579 141 b 602 90 582 115 590 102 b 636 57 615 77 626 66 b 640 54 636 56 638 55 b 653 44 644 51 648 48 b 664 38 659 40 662 38 b 669 40 665 38 666 38 b 672 46 671 42 672 44 b 674 53 673 47 674 49 b 672 57 674 55 673 56 l 675 60 l 688 60 l 669 106 b 665 119 667 110 665 115 b 664 133 664 123 664 128 l 664 144 l 681 140 l 692 144 l 708 143 l 725 146 b 733 142 730 146 732 144 b 742 138 734 139 737 138 l 756 143 l 760 139 l 782 96 b 800 71 794 92 800 84 l 799 67 b 803 51 799 62 800 57 b 815 33 807 45 810 39 b 826 15 819 27 822 21 b 831 0 829 9 831 4 l 900 0 l 888 26 l 886 27 b 885 29 885 28 885 28 b 878 43 883 31 881 36 b 874 57 875 50 874 55 b 882 65 874 63 876 65 b 889 65 884 65 886 65 b 893 61 892 64 893 63 b 892 58 893 60 893 59 l 890 57 l 890 56 b 896 46 894 52 896 49 l 918 7 l 924 7 b 940 13 928 7 934 9 b 950 28 947 17 950 22 b 949 30 950 27 950 28 b 944 39 948 32 946 35 b 938 50 943 43 941 46 b 932 58 936 54 934 56 b 928 64 931 62 930 64 l 926 64 l 926 63 l 926 65 b 924 69 925 66 925 68 b 904 103 920 82 913 94 l 875 146 b 874 149 875 148 875 149 l 874 150 l 874 157 l 874 161 b 867 170 873 162 870 165 b 861 181 863 175 861 179 b 856 183 859 182 857 183 l 854 184 b 851 186 853 184 852 185 l 851 188 b 849 192 850 189 850 191 b 846 197 848 194 847 195 b 845 203 846 200 846 202 l 844 206 b 843 214 844 210 844 213 b 836 222 841 216 839 219 b 832 231 833 226 832 229 l 829 233 l 824 233 b 808 230 819 233 814 232 b 800 218 803 228 800 224 l 804 207 l 789 207 b 780 209 784 207 781 208 b 771 222 778 210 775 215 l 768 222 b 761 217 764 222 762 221 b 756 213 760 214 758 213 l 739 213 b 733 220 738 213 736 215 b 728 231 729 225 728 229 b 749 244 734 235 741 240 b 761 265 757 249 761 256 l 761 267 l 817 304 l 835 324 b 854 331 840 328 847 331 b 865 343 862 332 865 336 b 863 349 865 347 864 349 b 864 349 864 349 865 349 b 856 351 863 350 860 350 l 856 353 l 874 368 l 889 414 l 900 410 b 915 415 904 410 909 411 b 924 426 921 418 924 422 l 922 428 b 913 460 919 441 916 451 b 904 489 911 468 908 478 b 897 504 902 493 900 498 b 887 524 894 511 891 517 b 874 540 883 530 878 536 b 860 547 869 545 864 547 l 840 546 b 827 550 836 546 831 547 b 811 554 823 553 818 554 l 810 554 b 804 553 807 554 805 554 b 772 538 792 548 781 543 b 743 522 763 532 753 527 b 717 512 735 519 726 515 b 688 507 707 509 698 507 l 661 508 l 578 468 l 578 457 l 561 432 b 553 423 558 431 556 428 b 547 415 551 418 549 415 l 551 442 b 548 446 551 444 550 445 b 544 453 546 447 544 449 l 544 454 l 546 456 b 552 464 548 457 550 460 b 556 475 554 468 556 471 l 556 506 b 561 510 556 508 557 510 l 642 533 b 673 546 652 537 662 541 b 703 564 684 550 694 556 b 708 572 706 568 708 570 l 688 569 b 692 578 688 574 689 577 b 700 582 696 579 698 580 l 735 618 b 766 661 745 628 755 643 b 782 713 777 680 782 697 b 781 716 782 714 782 716 l 781 717 l 779 717 l 760 688 b 753 683 758 686 756 684 b 750 679 751 682 750 681 l 750 681 b 751 692 750 685 750 689 b 751 703 751 696 751 699 l 742 701 b 758 740 748 714 754 727 b 765 781 763 753 765 767 l 765 790 l 763 792 l 759 786 b 751 773 757 782 754 778 b 742 760 749 768 745 763 b 731 754 738 756 734 754 l 728 754 l 725 776 b 724 786 725 778 725 781 b 721 793 724 791 723 793 b 717 792 718 793 717 793 b 707 767 714 784 711 776 b 693 742 703 759 699 750 b 674 722 688 734 681 728 b 649 714 666 717 658 714 l 642 714 b 640 724 642 716 641 719 b 636 731 639 728 638 731 l 632 728 b 626 715 630 726 628 722 b 617 701 623 709 620 704 l 615 697 l 613 693 l 611 690 b 603 681 606 686 604 682 b 596 675 602 679 600 677 l 586 675 b 568 676 581 675 575 675 b 558 686 562 677 558 681 b 560 693 558 690 559 692 b 565 701 562 694 563 697 b 575 714 567 703 570 707 b 582 726 580 720 582 725 l 594 750 b 599 756 597 750 599 752 l 621 776 b 625 786 624 777 625 781 b 631 797 625 790 627 794 b 699 846 657 807 680 824 b 703 851 700 848 701 850 b 706 857 705 853 706 855 b 700 867 706 862 704 865 b 692 872 696 869 694 870 l 711 868 l 711 869 b 710 872 711 870 711 871 l 700 886 l 700 889 l 715 878 b 721 875 717 876 719 875 b 725 872 724 875 725 874 b 728 867 727 870 728 869 b 731 863 728 866 729 864 l 807 807 b 810 806 809 807 810 807 b 814 806 811 806 812 806 l 824 807 b 842 794 828 807 834 803 b 861 782 849 786 856 782 l 863 782 b 853 758 863 769 859 761 b 844 747 847 756 844 752 b 853 735 844 741 847 737 b 871 732 859 733 865 732 b 882 736 875 732 879 733 b 890 744 885 739 887 742 b 897 753 892 747 894 750 b 908 757 900 756 904 757 b 923 743 912 757 917 752 b 932 722 929 734 932 727 l 928 708 b 935 706 928 706 930 706 b 946 713 940 706 944 708 b 950 726 948 717 949 722 b 958 717 955 726 957 723 b 958 706 958 711 958 707 b 953 694 958 699 957 695 b 949 685 950 692 949 689 b 956 678 949 680 951 678 b 967 681 959 678 963 679 b 972 690 970 682 972 686 l 972 768 b 972 774 972 769 972 771 b 969 785 971 776 970 780 l 944 803 b 942 811 944 807 943 810 b 942 808 942 812 942 811 b 936 817 942 811 940 814 b 917 824 932 818 926 820 b 900 831 909 828 903 831 b 898 840 900 836 899 839 b 893 847 897 841 895 844 l 888 861 l 863 892 b 858 899 862 897 860 900 b 849 906 855 899 852 901 b 847 907 849 906 848 907 l 847 908 l 847 910 l 849 910 b 844 915 849 913 847 914 b 836 918 841 915 838 916 l 836 919 l 836 922 l 832 925 b 828 926 831 926 830 926 l 826 926 l 822 931 b 811 943 820 933 817 937 b 776 966 801 952 789 960 b 736 975 763 972 750 975 b 715 971 729 975 722 974 b 696 967 709 968 702 967 l 685 969 l 653 969 b 649 968 652 969 650 968 b 639 957 647 965 644 962 l 629 947 b 622 945 627 945 625 945 b 614 943 618 946 616 945 b 606 933 610 940 608 937 b 597 922 605 928 602 925 l 592 922 l 590 922 b 585 916 588 922 587 920 b 574 908 583 912 579 909 b 569 913 572 908 570 910 b 561 918 569 916 566 918 l 558 918 l 540 901 l 492 847 l 492 836 b 493 832 492 834 492 833 b 486 828 490 829 488 828 b 472 829 483 828 479 828 b 460 832 466 830 462 831 l 449 831 l 449 878 b 436 914 449 891 444 903 b 400 949 427 931 415 943 b 351 957 385 954 369 957 b 316 954 338 957 327 956 b 282 940 305 952 294 948 l 281 943 l 281 958 b 286 965 281 960 282 963 b 303 974 291 970 296 973 b 313 988 309 976 313 980 b 304 997 313 994 310 997 l 281 997 b 264 995 275 997 269 997 b 256 983 258 994 256 990 b 256 976 256 981 256 979 b 258 972 257 974 257 972 l 261 969 b 263 958 261 970 262 966 b 264 938 263 949 264 942 l 264 914 l 258 908 b 256 900 256 906 256 904 l 256 882 b 253 872 256 877 255 874 b 250 863 251 870 250 867 b 253 847 250 856 251 851 b 263 831 256 842 259 837 b 267 807 265 823 267 815 b 268 783 268 799 268 791 l 268 779 l 265 779 b 264 782 264 779 264 780 l 265 783 b 265 785 265 783 265 784 l 265 790 b 263 794 265 791 264 793 b 258 797 261 796 259 797 b 255 807 256 799 255 802 b 253 822 254 812 254 816 b 250 835 252 827 251 831 b 246 843 249 840 248 842 b 244 856 246 850 245 855 b 240 876 244 860 243 867 b 236 894 238 884 236 891 l 236 896 b 232 899 236 898 235 899 l 231 897 b 222 906 227 897 224 900 b 215 918 220 911 218 915 b 210 931 214 921 213 925 b 199 951 207 937 203 944 b 187 969 195 958 191 964 b 175 976 183 974 179 976 b 172 967 173 976 172 973 b 168 954 171 960 170 956 l 168 928 l 172 889 l 174 886 l 174 878 l 172 878 b 171 875 171 878 171 877 l 171 874 l 171 872 l 200 793 b 203 787 201 791 202 789 b 206 778 205 784 206 781 b 203 774 205 778 204 777 b 201 769 202 772 201 770 l 201 767 b 210 758 206 762 209 759 b 211 753 211 756 211 755 l 211 747 b 215 740 211 745 213 743 b 224 728 217 738 220 734 b 232 717 227 721 230 718 l 232 714 b 227 701 232 709 230 705 b 219 690 224 698 221 694 b 210 681 215 685 212 681 b 206 669 209 680 207 676 l 199 671 b 190 667 194 671 191 670 b 181 657 188 665 185 662 b 174 651 181 656 178 654 l 168 646 b 174 622 168 638 170 629 b 181 597 178 614 181 606 l 175 593 l 173 583 b 172 581 172 580 172 580 l 172 569 l 172 561 l 188 538 b 197 510 192 527 195 518 b 213 488 198 501 203 494 l 213 486 b 204 481 213 482 210 481 b 194 474 200 481 196 478 b 186 446 189 466 186 457 b 190 418 186 437 188 427 b 199 410 195 415 198 413 b 211 403 201 407 205 405 l 211 396 b 210 384 211 391 211 387 b 208 374 209 381 208 377 l 208 368 b 223 357 212 363 217 359 b 240 354 229 355 235 354 b 285 374 259 354 274 361 l 278 382 l 281 385 l 269 407 l 271 407 l 292 382 l 303 365 b 312 348 307 358 310 352 b 317 331 313 344 315 338 l 336 315 l 336 310 l 324 281 l 324 278 b 328 263 324 276 325 271 b 336 247 332 255 334 250 b 338 244 337 246 338 245 l 339 243 b 327 228 335 238 331 234 b 321 213 323 223 321 218 b 324 200 321 208 322 204 b 331 189 327 196 329 193 b 339 160 333 179 336 169 b 346 132 342 152 344 142 l 350 88 l 396 56 b 406 60 400 56 404 57 b 411 68 409 64 410 66 l 413 68 b 417 63 414 68 416 66 l 418 57 l 425 13 l 424 11 b 424 7 424 10 424 9 b 424 3 424 5 424 4 l 425 3 l 425 0 l 425 -1 l 425 0 z m 836 128 b 831 132 832 128 831 129 b 835 139 831 134 832 136 b 843 143 839 142 841 143 l 844 143 l 849 138 b 856 126 850 136 852 132 b 865 110 859 120 863 114 b 873 100 870 104 872 101 b 874 96 873 99 874 98 b 863 86 874 89 870 86 l 861 86 b 857 88 859 86 858 87 z m 811 172 l 811 175 b 813 179 811 176 812 177 b 815 183 815 181 815 182 b 813 188 815 184 815 186 b 811 193 812 191 811 192 l 811 194 l 811 197 b 820 187 814 192 817 188 b 825 181 823 185 825 183 b 822 171 825 179 824 175 b 814 164 820 166 818 164 b 811 167 812 164 811 165 z m 588 281 l 593 286 l 594 286 l 606 275 l 606 274 b 600 268 606 270 604 268 z m 568 326 b 574 332 568 330 570 332 l 575 332 l 614 290 b 608 285 614 288 612 286 l 607 285 b 590 303 603 289 598 295 l 575 318 b 572 322 574 318 573 319 b 568 326 570 325 569 326 z m 571 299 l 571 300 b 574 304 573 302 574 303 l 575 306 b 576 304 576 306 576 305 l 588 293 l 582 288 l 571 297 z m 554 318 l 561 324 l 571 314 l 565 308 l 564 307 l 564 308 z m 350 450 l 350 453 b 357 457 350 456 352 457 l 358 457 b 397 410 369 441 382 426 b 449 378 412 395 429 384 l 511 354 l 526 346 l 528 346 l 529 346 b 531 348 529 347 530 347 l 532 349 b 529 353 532 350 531 352 b 525 358 527 355 526 356 b 479 393 513 375 498 387 b 425 415 461 400 443 407 b 412 424 422 417 418 420 b 394 437 406 427 400 432 b 378 452 388 442 382 447 b 371 467 373 457 371 462 b 372 469 371 469 371 469 l 374 469 b 375 471 375 469 375 470 b 384 465 380 471 383 469 b 388 456 385 460 387 457 b 425 426 399 443 411 433 b 481 403 444 420 462 412 b 531 369 500 395 517 383 l 534 365 b 538 358 536 361 538 359 b 547 348 539 356 543 353 b 557 338 552 343 555 339 l 538 321 l 536 321 b 524 331 532 323 528 326 b 519 340 520 335 519 338 b 513 343 518 341 515 342 b 508 346 510 344 508 345 l 446 368 b 390 401 425 375 406 385 b 350 450 375 416 361 432 z m 786 481 b 793 478 788 481 790 480 b 800 476 796 477 798 476 l 800 475 l 794 464 b 785 445 792 458 788 452 b 774 426 781 438 777 432 b 765 413 770 420 767 415 b 764 410 764 413 764 412 l 768 413 l 811 450 l 811 447 l 781 407 b 780 405 781 406 780 405 l 779 404 l 779 403 l 781 403 b 792 401 783 403 787 402 b 799 393 796 400 799 398 l 746 393 l 743 393 b 767 434 752 407 760 421 b 785 478 774 447 780 462 z m 686 572 l 686 569 l 685 569 b 685 572 685 570 685 571 z m 628 586 b 635 597 628 590 630 593 b 649 604 639 600 644 602 l 649 603 l 649 601 l 644 595 l 643 593 b 640 586 641 593 640 591 b 639 583 640 584 640 583 b 634 585 637 583 635 584 b 628 586 633 586 631 586 z m 546 589 l 547 588 b 546 586 547 587 547 586 l 544 586 l 544 588 z m 560 643 b 567 644 562 643 564 644 b 574 640 569 645 572 644 l 572 634 l 571 632 l 571 628 b 574 618 571 621 572 618 b 579 619 576 618 578 619 l 579 618 l 575 615 b 563 603 574 613 570 609 b 549 593 556 597 551 594 b 544 590 549 591 547 590 b 545 597 544 594 545 596 b 549 604 546 597 547 600 b 552 627 550 609 552 616 b 560 643 553 638 555 643 z m 669 663 b 661 654 669 657 667 654 b 662 661 661 658 661 660 b 669 663 662 662 665 663 z m 642 667 b 675 681 648 676 659 681 l 675 679 l 671 674 b 664 667 668 671 666 669 b 661 665 663 666 662 665 l 644 665 z m 968 671 b 972 667 968 668 969 667 l 972 675 b 968 671 969 675 968 674 z m 676 683 b 678 682 677 683 678 683 l 678 681 l 676 681 l 675 681 l 675 682 b 676 683 675 683 675 683 z m 367 810 l 358 818 b 337 826 354 820 347 822 b 317 833 327 829 320 831 b 306 838 315 833 311 835 b 296 844 301 841 298 844 b 286 856 289 847 286 851 l 290 856 b 331 840 303 848 317 843 b 375 836 344 838 359 836 b 424 850 393 836 409 841 b 432 863 425 851 427 855 l 432 856 b 417 833 432 847 427 840 b 396 811 408 827 400 819 b 395 797 396 808 396 804 b 393 777 395 791 394 784 b 391 757 392 770 391 763 b 390 743 391 750 390 746 b 383 728 388 735 386 730 b 367 726 379 727 374 726 z m 950 731 l 950 729 l 950 728 b 949 729 949 728 949 728 b 950 731 949 730 949 731 z m 272 768 l 272 769 l 278 765 l 278 764 l 278 763 b 275 761 276 763 275 762 b 272 768 273 763 272 765 z m 828 906 b 831 907 828 906 829 907 l 832 907 b 842 897 836 904 839 901 b 846 890 844 894 846 891 l 846 889 l 844 889 l 828 903 z "},"³":{"ha":2760,"x_min":0,"x_max":0,"o":"m 1917 72 l 1819 57 b 1807 44 1818 52 1813 48 b 1788 39 1800 41 1794 39 b 1769 47 1780 39 1774 41 b 1751 61 1764 52 1758 56 b 1738 72 1750 63 1745 66 b 1722 82 1730 77 1725 80 l 1721 82 l 1719 82 l 1710 75 b 1699 78 1705 75 1702 76 b 1689 82 1697 81 1694 82 b 1681 78 1684 82 1682 81 b 1679 69 1681 76 1680 73 l 1679 82 b 1678 110 1679 89 1679 99 b 1677 138 1678 121 1678 130 b 1676 150 1677 145 1676 149 l 1678 68 b 1674 67 1676 68 1675 68 b 1656 64 1670 66 1664 65 b 1638 63 1647 63 1641 63 l 1636 61 b 1638 54 1636 57 1637 55 b 1639 50 1638 53 1639 52 l 1639 46 b 1638 65 1639 45 1638 51 b 1635 103 1637 78 1636 91 b 1633 124 1634 115 1633 122 l 1633 111 b 1631 83 1632 103 1632 94 b 1630 56 1631 73 1630 64 b 1628 43 1629 47 1629 43 b 1648 29 1632 33 1639 28 b 1664 24 1657 30 1662 28 b 1655 16 1659 22 1656 19 b 1649 4 1653 13 1651 9 l 1474 4 l 1456 24 l 1456 28 l 1481 28 b 1492 39 1482 34 1486 38 l 1481 46 l 1481 47 b 1485 54 1481 52 1482 54 l 1478 54 l 1483 57 l 1481 63 l 1397 63 b 1394 57 1395 63 1394 61 b 1392 40 1394 52 1394 47 b 1385 31 1391 34 1388 31 l 1356 31 b 1352 35 1354 31 1353 32 b 1351 47 1352 39 1351 42 l 1349 59 b 1346 67 1349 63 1348 66 l 1222 67 l 1172 63 l 715 63 l 471 63 b 462 78 468 63 465 69 b 453 109 459 87 456 97 b 447 142 451 121 449 132 b 444 164 445 153 444 160 l 444 167 b 453 176 444 171 447 175 l 535 144 b 560 160 542 151 550 156 b 586 175 569 165 578 169 l 808 369 l 897 326 l 1161 414 b 1155 432 1159 421 1157 427 b 1146 447 1153 437 1150 442 l 1118 503 b 1109 508 1117 505 1114 506 l 1101 511 l 626 615 l 617 697 l 603 611 l 601 611 l 601 613 l 590 621 b 585 619 588 621 587 620 b 578 618 583 619 581 618 b 569 626 572 618 569 621 b 491 647 543 634 516 641 b 413 661 466 653 439 657 l 407 664 l 268 689 b 251 694 263 693 258 694 b 235 703 244 693 238 696 b 226 728 230 713 227 721 b 221 753 225 734 224 743 b 204 804 216 771 211 788 b 186 856 198 820 192 837 b 176 879 182 858 179 866 b 168 903 172 892 170 900 l 168 957 l 185 964 l 368 958 l 368 996 b 362 1004 366 998 364 1000 b 358 1013 359 1008 358 1011 b 363 1019 360 1017 362 1019 l 415 1019 b 407 996 415 1010 413 1002 l 407 953 l 414 951 l 589 943 b 633 938 597 941 612 940 b 700 935 653 937 676 936 b 768 932 724 934 747 933 b 813 929 789 931 804 930 l 1282 904 l 1286 903 l 1365 903 l 1679 883 b 1722 879 1689 881 1704 880 b 1768 878 1741 878 1756 878 l 1783 878 b 1905 854 1823 874 1864 866 b 2024 807 1946 842 1986 826 b 2133 738 2063 788 2099 764 b 2224 647 2168 711 2198 681 b 2255 604 2237 632 2247 618 b 2282 560 2263 590 2272 575 l 2285 557 l 2310 585 l 2314 585 b 2327 569 2319 585 2324 580 b 2335 535 2330 559 2333 548 b 2342 497 2338 522 2340 509 b 2349 471 2344 484 2346 475 b 2379 408 2362 448 2372 427 b 2397 343 2387 389 2393 367 b 2398 332 2397 338 2397 335 b 2399 325 2398 329 2399 327 l 2399 310 b 2403 275 2399 295 2400 283 b 2408 282 2403 274 2405 276 b 2422 299 2412 288 2417 293 b 2439 315 2428 305 2433 311 b 2454 318 2444 320 2450 321 l 2471 224 b 2485 213 2476 220 2481 216 b 2493 207 2490 209 2492 207 l 2528 172 l 2550 142 b 2558 131 2551 140 2553 136 b 2572 115 2562 126 2566 121 b 2585 97 2577 109 2581 103 b 2592 85 2590 92 2592 88 b 2584 74 2592 79 2589 76 b 2567 72 2579 73 2573 72 b 2551 70 2561 71 2556 71 b 2543 65 2546 70 2543 68 l 2557 46 l 2315 46 b 2313 63 2314 54 2313 60 b 2303 67 2312 65 2308 67 b 2285 43 2291 67 2285 59 l 2050 125 l 2061 63 l 2026 63 l 2026 61 b 2025 57 2026 59 2026 58 l 2025 54 b 2018 41 2023 51 2021 47 b 2013 33 2015 35 2013 32 l 1938 33 b 1932 48 1936 33 1934 38 b 1927 81 1930 58 1928 69 b 1923 115 1926 93 1924 104 b 1919 135 1922 125 1920 132 l 1919 54 b 1919 65 1919 55 1919 59 b 1918 85 1918 71 1918 77 b 1917 110 1918 93 1918 102 b 1917 133 1917 119 1917 127 l 1917 149 l 1917 138 l 1917 110 l 1917 83 z "},"´":{"ha":503,"x_min":0,"x_max":0,"o":"m 244 1208 l 422 1208 l 335 1028 l 168 1028 z "},"µ":{"ha":835,"x_min":0,"x_max":0,"o":"m 538 0 l 346 0 l 346 -122 l 168 -122 l 168 978 l 346 978 l 346 181 l 489 181 l 489 978 l 667 978 l 667 125 b 633 31 667 83 656 52 b 538 0 611 10 579 0 z "},"¶":{"ha":835,"x_min":0,"x_max":0,"o":"m 667 978 l 667 -112 l 489 -112 l 489 797 l 450 797 l 450 -112 l 272 -112 l 272 407 b 168 531 203 413 168 455 l 168 853 b 201 947 168 894 179 926 b 297 978 224 967 256 978 z "},"·":{"ha":514,"x_min":0,"x_max":0,"o":"m 168 586 l 346 586 l 346 406 l 168 406 z "},"¸":{"ha":457,"x_min":0,"x_max":0,"o":"m 115 -60 l 168 -60 l 168 0 l 289 0 l 289 -176 l 115 -176 z "},"¹":{"ha":1303,"x_min":0,"x_max":0,"o":"m 293 143 b 451 35 341 96 394 60 b 642 -1 509 11 572 -1 b 830 37 708 -1 771 11 b 983 141 889 62 940 97 b 1087 294 1027 185 1061 236 b 1125 482 1112 353 1125 415 b 1101 642 1125 538 1117 591 b 1029 776 1086 693 1062 738 b 1032 781 1029 779 1030 781 b 1051 798 1039 786 1046 792 b 1067 808 1057 804 1062 807 b 1090 822 1073 812 1081 816 b 1107 832 1098 827 1104 830 l 1108 833 b 1110 835 1109 833 1110 834 b 1119 845 1113 838 1116 841 b 1129 859 1122 849 1125 854 b 1139 873 1133 864 1136 869 b 1144 882 1142 877 1144 880 b 1147 883 1145 882 1146 882 l 1149 885 l 1142 885 l 1085 869 l 1085 868 l 1083 868 b 1049 830 1072 855 1061 842 b 1013 796 1038 817 1025 806 b 842 926 958 852 901 896 b 632 971 782 956 713 971 b 445 934 565 971 503 959 b 294 831 387 909 337 875 b 192 676 251 787 217 735 b 154 482 167 616 154 551 b 179 327 154 429 163 378 b 254 189 196 277 221 231 l 160 90 l 160 88 b 172 64 160 80 164 72 b 192 44 179 56 186 49 l 289 143 z m 460 128 l 460 129 l 1025 618 l 1026 619 b 1028 619 1026 619 1027 619 b 1031 617 1031 619 1032 619 b 1033 611 1031 616 1031 614 b 1047 486 1043 590 1047 548 b 1016 331 1047 431 1037 380 b 931 201 995 281 967 238 b 805 111 896 163 853 133 b 649 78 756 89 704 78 b 563 88 619 78 591 81 b 483 114 536 95 509 104 b 473 117 481 114 478 115 b 463 122 468 120 464 121 l 460 125 z m 804 168 l 804 164 b 808 165 805 164 806 164 b 814 165 810 165 812 165 b 847 172 822 167 833 169 b 867 176 860 174 867 175 l 900 289 l 951 289 b 956 294 952 289 954 291 b 960 301 957 298 959 300 l 903 301 l 921 386 l 921 394 b 919 405 921 398 920 402 b 910 413 917 408 914 411 l 894 413 b 873 411 886 413 879 412 b 851 401 867 410 860 407 b 833 389 847 399 841 394 b 810 372 826 383 818 378 b 790 358 803 367 796 362 b 781 350 785 353 781 351 l 775 344 b 787 340 777 343 781 341 b 803 338 793 338 798 338 b 822 347 808 338 815 341 b 844 369 828 354 836 361 b 867 392 852 378 859 385 b 890 401 875 398 883 401 b 900 386 897 401 900 396 l 900 378 l 876 314 b 863 301 874 306 869 302 b 840 295 859 300 851 298 b 817 288 828 292 820 289 b 808 272 812 284 809 278 b 807 254 807 265 807 259 l 861 271 z m 276 204 l 294 221 l 294 225 b 292 238 294 230 294 234 b 288 251 290 242 288 247 l 283 264 l 283 292 b 298 358 283 315 288 337 b 347 404 308 380 324 395 b 338 370 344 392 340 381 b 333 338 335 359 333 349 b 336 303 333 330 334 319 b 350 272 338 288 343 278 l 465 378 l 465 379 b 459 408 465 388 463 398 b 453 439 455 419 453 429 b 464 489 453 456 456 473 b 496 526 471 505 482 517 b 508 533 498 528 502 531 b 521 539 515 536 519 538 l 522 539 b 505 503 514 527 508 515 b 500 467 502 491 500 479 l 500 450 b 501 432 500 444 500 438 b 510 424 502 426 505 424 l 621 508 b 615 544 617 515 615 527 l 615 556 b 624 606 615 573 618 590 b 658 642 630 622 642 634 l 658 640 b 653 615 658 631 657 622 b 649 590 650 607 649 599 l 649 568 b 652 554 649 567 650 563 b 660 542 654 546 657 542 l 671 549 l 760 617 b 763 621 762 617 763 618 l 758 663 b 760 690 758 671 759 680 b 769 715 762 699 765 708 b 780 726 771 718 775 722 l 788 732 l 789 732 b 788 714 788 731 788 725 l 788 671 b 790 658 788 669 788 665 b 797 647 791 651 794 647 l 897 718 l 897 721 b 895 737 897 726 897 732 b 893 754 894 742 893 748 b 895 767 893 757 894 761 b 900 785 897 773 898 779 b 908 801 902 791 904 797 b 918 808 911 806 914 808 l 918 764 l 919 760 b 921 754 920 757 921 755 b 926 745 923 752 924 749 l 928 739 l 931 739 l 999 781 l 1001 780 b 1006 776 1002 779 1004 778 l 1006 774 b 1001 769 1006 771 1004 769 b 989 762 999 768 994 765 b 971 751 983 759 977 755 b 953 741 964 748 959 744 b 942 732 948 738 944 735 l 936 726 b 963 705 944 716 953 709 b 996 694 974 701 985 697 l 999 694 b 978 685 991 690 984 687 b 957 682 972 683 965 682 b 925 693 944 682 933 686 b 906 704 917 700 910 704 b 901 701 905 703 903 702 b 897 697 900 700 898 699 b 883 684 894 694 890 690 b 859 664 876 678 868 671 b 834 643 850 656 842 650 b 817 629 826 637 820 632 l 810 624 b 844 608 820 616 831 611 b 882 604 856 606 869 604 b 875 594 882 600 880 597 b 860 588 870 592 865 589 b 843 583 854 586 849 584 b 833 582 838 582 834 582 b 807 588 823 582 814 584 b 781 601 800 592 791 597 l 681 515 l 681 514 b 699 496 681 506 687 500 b 726 489 712 491 721 489 b 745 487 729 488 735 487 b 764 486 755 486 761 486 b 737 467 756 479 747 472 b 701 460 726 462 714 460 b 663 470 688 460 676 463 b 639 481 651 477 643 481 l 532 393 l 532 390 b 538 385 532 389 534 388 b 547 378 542 382 545 380 b 625 356 573 363 599 356 b 616 345 625 352 622 348 b 595 336 610 342 603 339 b 571 330 587 333 579 331 b 553 328 563 328 556 328 b 517 334 539 328 527 330 b 489 350 506 338 497 344 l 386 258 b 379 251 384 257 382 255 b 372 242 376 247 374 244 l 372 240 b 454 213 399 222 426 213 l 460 213 b 472 213 464 213 468 213 b 479 214 475 214 477 214 b 485 215 480 215 482 215 l 489 215 l 492 215 b 450 182 478 201 464 190 b 393 169 436 174 417 169 b 361 175 380 169 369 171 b 333 192 353 179 344 184 l 328 193 l 307 169 l 303 172 z m 228 489 b 261 652 228 548 239 603 b 351 781 283 702 313 744 b 485 865 389 817 434 845 b 647 894 536 884 590 894 b 749 881 683 894 717 890 b 846 843 781 872 813 860 l 846 840 l 242 397 b 232 424 238 405 235 413 b 228 454 229 434 228 444 z m 386 700 b 405 658 386 681 392 668 b 447 644 417 649 431 644 b 487 662 465 644 478 650 b 500 704 496 673 500 688 b 499 716 500 710 500 714 b 496 726 499 718 498 722 l 447 836 l 446 835 l 444 833 b 442 829 442 832 442 831 l 418 774 b 413 764 417 772 415 769 b 403 749 410 759 407 754 b 395 733 400 743 397 738 b 392 725 393 729 392 726 b 388 712 390 719 388 715 b 386 700 387 709 386 705 z "},"º":{"ha":954,"x_min":0,"x_max":0,"o":"m 399 163 b 407 167 400 163 403 164 b 415 175 411 171 413 173 l 432 206 l 429 219 b 435 226 431 224 433 226 b 439 213 438 226 439 222 b 435 188 439 204 438 196 b 422 172 433 179 429 174 l 435 89 b 441 72 437 81 439 75 b 448 67 443 69 446 68 b 454 64 450 66 452 65 b 458 57 456 63 457 61 l 478 0 l 624 0 b 629 40 624 16 625 29 b 647 76 633 51 639 63 l 657 199 l 665 246 l 665 289 b 667 302 665 292 666 296 b 670 322 668 308 669 315 b 674 341 672 328 673 335 b 675 354 675 347 675 351 l 690 356 l 697 363 l 708 363 b 724 386 717 369 722 377 b 735 408 725 395 729 403 l 735 439 b 744 449 741 440 744 443 b 751 464 744 456 747 461 l 767 528 b 768 535 768 529 768 531 l 768 542 b 767 553 768 546 768 550 b 760 564 767 556 764 559 l 760 590 l 754 611 l 753 617 b 750 636 752 620 751 627 b 747 642 750 637 749 639 l 743 647 l 743 654 b 740 661 743 657 742 659 l 740 669 l 751 669 b 751 674 751 670 751 672 l 750 676 l 751 743 b 731 777 746 760 739 771 b 701 806 722 783 713 793 l 717 843 b 724 860 720 847 723 853 b 728 872 725 868 726 872 b 742 890 730 877 734 883 b 767 912 750 897 758 904 b 790 934 775 920 783 927 b 800 951 797 941 800 947 b 782 947 794 951 788 950 b 767 943 776 944 771 943 b 744 955 756 943 749 947 b 733 981 739 963 735 971 b 729 1006 731 990 730 998 b 724 1018 728 1014 726 1018 l 721 1018 b 718 963 721 999 720 980 b 707 910 716 946 713 928 b 701 897 705 908 703 904 b 696 876 700 891 698 884 b 690 853 694 869 692 861 b 683 836 687 846 685 840 b 661 817 675 823 668 817 b 636 823 655 817 646 819 b 621 839 626 827 621 832 l 621 840 l 623 844 b 625 850 624 847 625 849 l 614 925 b 594 965 609 941 603 954 b 554 982 585 976 572 982 b 498 957 530 982 511 974 b 478 899 484 940 478 921 l 494 824 b 479 819 494 821 489 819 b 461 813 472 819 466 817 b 456 802 459 809 457 805 b 451 796 454 799 452 797 b 406 753 433 785 418 770 b 389 693 395 735 389 715 l 389 688 b 392 683 389 685 390 683 l 399 682 b 408 681 403 681 406 681 l 392 633 l 392 621 b 369 594 381 613 374 604 b 349 568 364 585 357 576 l 290 511 b 319 525 298 511 307 516 l 379 590 l 389 593 l 392 590 b 378 574 392 586 387 580 b 358 558 370 568 363 563 l 342 538 l 306 504 b 285 494 299 500 292 497 b 263 490 278 492 271 490 l 240 492 b 229 483 236 492 232 489 b 219 465 226 478 223 472 b 203 447 215 459 209 453 b 176 439 196 442 188 439 l 169 439 l 186 428 l 186 425 b 171 422 182 423 177 422 b 154 415 164 421 159 419 l 186 415 l 181 356 l 183 356 l 193 408 b 201 426 195 415 198 421 b 214 435 205 432 209 435 b 225 430 219 435 222 433 b 236 425 228 427 231 425 l 243 425 l 315 475 b 322 485 316 480 319 483 l 327 486 l 342 490 b 348 499 345 491 347 494 b 350 511 348 503 349 507 l 351 510 b 353 507 352 509 353 508 b 346 472 353 494 350 482 b 336 439 341 461 338 450 l 346 422 b 344 406 346 417 345 411 b 342 392 342 400 342 395 b 345 375 342 387 343 381 b 353 356 347 369 350 362 b 363 339 357 349 360 344 b 372 332 366 334 369 332 l 375 332 b 382 344 380 332 382 336 l 367 382 l 372 382 l 376 368 l 382 365 b 389 382 387 365 389 371 l 385 418 b 389 428 385 422 386 425 l 429 507 l 432 499 l 432 490 b 418 464 432 474 427 465 l 408 418 l 408 311 l 410 311 l 410 306 b 409 292 410 304 409 299 b 406 279 409 285 407 281 l 401 213 b 408 226 403 213 406 217 b 416 255 411 234 414 244 b 422 285 418 266 420 276 b 425 303 424 295 425 301 l 425 311 l 432 325 b 435 296 434 323 435 313 l 435 268 l 435 265 b 436 260 436 263 436 262 b 435 256 436 259 436 257 l 435 253 l 418 236 l 419 200 b 414 188 419 198 418 194 b 404 171 410 181 407 175 b 399 163 401 166 400 163 z m 554 235 l 558 226 l 558 143 b 556 128 558 138 558 133 b 554 110 555 122 554 116 l 558 93 b 554 79 558 87 557 82 l 554 31 b 556 0 554 11 555 1 l 549 0 b 546 36 547 2 546 14 l 546 124 b 544 133 546 129 545 132 l 546 156 b 542 193 546 164 544 176 b 547 214 542 198 543 205 b 554 235 550 223 552 230 z m 675 585 l 683 593 b 691 560 688 583 691 572 b 692 525 691 548 692 536 b 675 551 681 525 675 534 z m 303 485 b 288 471 298 476 293 472 b 267 464 282 470 275 468 l 263 461 b 247 447 256 457 251 453 b 229 439 244 442 238 439 b 238 454 229 444 232 450 b 259 466 244 459 251 463 b 283 476 267 469 275 472 b 303 485 292 479 298 482 z m 675 485 l 685 497 l 690 492 l 688 464 l 683 464 b 678 478 683 469 681 474 z m 367 547 b 372 542 370 547 372 545 l 372 538 b 348 524 364 536 356 531 b 329 504 340 517 334 511 b 347 530 334 514 340 523 b 367 547 355 537 361 543 z "},"»":{"ha":736,"x_min":0,"x_max":0,"o":"m 349 376 l 349 614 l 168 696 l 168 529 l 239 494 l 168 461 l 168 294 z m 568 376 l 568 614 l 388 696 l 388 529 l 458 494 l 388 461 l 388 294 z "},"¼":{"ha":1813,"x_min":0,"x_max":0,"o":"m 906 22 b 878 18 896 22 887 21 b 850 14 870 15 860 14 b 802 22 830 14 814 17 b 758 40 791 28 776 34 l 638 158 b 628 167 632 162 629 165 b 626 172 627 169 626 170 l 626 179 l 626 181 b 624 190 625 183 625 186 b 600 217 617 200 609 209 b 586 247 591 226 586 236 b 592 256 586 252 588 255 b 597 265 595 258 597 261 b 592 272 597 268 595 270 b 579 276 588 273 584 274 b 565 283 575 277 570 280 b 556 300 561 287 557 293 b 552 308 554 301 553 304 b 551 318 552 313 551 316 b 538 356 549 333 544 345 b 522 394 531 366 526 379 b 518 404 520 402 519 405 b 513 403 517 403 515 403 b 506 408 512 403 509 405 l 500 417 b 490 432 496 422 493 427 b 486 439 488 432 486 434 b 342 449 436 444 388 447 b 201 454 295 452 249 453 b 176 476 190 463 182 470 b 168 504 171 482 168 491 b 174 528 168 510 170 518 b 192 544 177 539 183 544 l 364 544 l 364 547 b 364 550 366 547 366 548 b 361 554 362 552 361 553 b 360 557 361 556 361 557 l 306 557 l 306 596 l 360 596 l 363 588 b 369 581 366 583 368 581 l 422 581 l 428 590 l 464 590 b 468 585 466 590 467 588 b 471 577 469 583 470 580 b 474 569 472 574 473 571 l 600 569 l 600 533 l 551 533 l 551 521 l 559 518 b 572 514 564 516 569 515 b 602 498 586 509 596 504 b 608 464 608 492 610 481 b 620 479 612 467 616 472 b 632 494 624 487 628 492 b 638 499 632 497 634 499 l 642 499 b 647 499 644 499 645 499 b 651 500 648 500 650 500 l 657 500 l 663 500 b 668 499 664 500 666 500 b 674 499 670 499 672 499 l 678 499 b 696 497 681 499 687 498 b 725 494 705 496 715 495 b 754 492 735 494 745 493 b 772 490 763 491 769 490 l 775 490 b 801 497 784 490 793 493 b 829 504 810 502 819 504 b 873 501 844 504 859 503 b 918 499 887 500 902 499 l 924 499 l 943 499 l 950 499 b 955 508 954 502 955 505 b 954 514 954 510 954 512 l 908 514 b 903 528 907 514 906 519 b 895 560 901 537 898 548 l 885 598 b 876 625 882 610 879 619 b 856 670 872 636 865 651 b 839 722 846 689 841 706 b 838 736 838 723 838 728 l 838 750 l 838 781 b 828 869 838 810 834 840 b 782 944 821 898 806 923 l 781 946 b 800 965 781 954 787 960 b 829 971 813 969 823 971 l 851 971 b 872 965 859 971 866 969 b 860 955 869 961 866 957 b 845 949 855 953 850 950 b 832 941 840 947 836 944 b 826 925 828 938 826 932 l 826 918 l 850 844 l 856 839 b 924 898 874 868 897 887 b 1013 914 950 909 980 914 b 1097 891 1044 914 1072 906 b 1144 817 1122 876 1138 851 l 1153 813 l 1158 797 b 1169 761 1161 787 1165 775 b 1183 718 1174 747 1178 733 b 1193 682 1187 703 1190 691 b 1197 672 1194 680 1195 677 b 1199 663 1198 668 1199 664 l 1199 657 b 1192 646 1199 652 1196 649 b 1185 635 1187 643 1185 639 l 1185 631 b 1192 610 1187 626 1189 619 b 1204 596 1196 600 1200 596 l 1244 596 b 1256 603 1246 596 1250 598 b 1268 618 1262 609 1266 613 b 1269 622 1269 618 1269 619 l 1269 633 b 1265 651 1269 641 1268 647 b 1254 660 1261 655 1258 658 b 1244 667 1250 663 1247 665 b 1239 676 1241 670 1239 673 l 1239 793 b 1244 802 1242 797 1243 800 b 1244 808 1244 804 1244 806 b 1241 817 1244 813 1243 816 b 1231 826 1239 819 1235 822 l 1190 914 l 1190 1044 b 1193 1040 1192 1044 1193 1043 b 1243 982 1209 1022 1225 1002 b 1272 914 1261 962 1270 939 l 1272 900 b 1273 862 1272 890 1272 877 b 1276 826 1273 847 1275 835 l 1276 821 b 1272 813 1276 816 1275 813 b 1283 806 1275 808 1279 806 b 1294 799 1288 806 1292 803 l 1308 772 b 1322 736 1315 758 1319 746 b 1327 727 1324 732 1326 729 b 1331 722 1328 725 1330 723 b 1337 709 1332 719 1334 714 b 1340 699 1339 704 1340 700 l 1342 696 b 1335 679 1342 689 1340 684 b 1329 663 1331 675 1329 669 b 1338 645 1329 654 1332 648 b 1357 638 1343 642 1350 639 b 1378 632 1364 636 1372 634 b 1394 622 1385 630 1391 627 b 1396 615 1394 621 1395 619 b 1399 607 1397 612 1398 609 l 1403 607 b 1421 617 1410 607 1416 610 b 1443 626 1425 623 1433 626 b 1468 623 1450 626 1459 625 b 1490 613 1477 621 1485 617 b 1503 587 1498 606 1502 597 b 1508 560 1505 576 1506 567 b 1510 557 1508 559 1509 558 b 1511 554 1511 556 1511 555 b 1560 439 1532 521 1549 482 b 1589 318 1572 395 1581 355 b 1593 315 1591 316 1592 315 b 1599 311 1594 314 1596 313 b 1612 310 1602 311 1607 311 b 1621 308 1617 309 1620 308 l 1629 306 l 1632 306 b 1639 304 1637 306 1639 305 l 1644 258 b 1638 248 1643 256 1640 253 b 1631 236 1635 243 1632 239 l 1631 232 l 1631 226 l 1644 140 l 1644 138 b 1626 119 1644 130 1638 124 b 1600 113 1614 115 1606 113 b 1557 126 1584 113 1570 117 b 1535 164 1544 134 1537 147 l 1532 164 b 1520 160 1529 164 1525 163 b 1505 151 1515 157 1510 154 b 1491 140 1500 147 1495 144 b 1485 132 1487 137 1485 134 b 1490 116 1485 125 1486 119 b 1494 103 1493 113 1494 108 b 1490 90 1494 98 1493 94 b 1485 74 1486 85 1485 80 b 1492 38 1485 62 1487 50 b 1499 0 1496 25 1499 13 l 921 0 b 918 16 920 6 919 12 b 906 22 917 20 913 22 z m 896 114 l 888 109 b 869 99 882 106 876 102 b 849 88 862 95 855 91 b 839 82 843 84 840 82 l 818 68 l 818 64 l 872 64 b 884 72 874 67 878 69 b 896 76 890 74 894 75 l 900 110 z m 757 83 b 771 74 757 77 762 74 l 772 74 l 766 80 b 757 83 764 82 761 83 z m 750 86 b 747 89 750 88 749 89 b 745 86 745 89 745 88 b 749 83 746 84 747 83 b 750 86 750 83 750 84 z m 713 308 l 782 242 l 790 242 l 799 255 b 814 278 805 264 810 271 b 818 286 814 280 815 282 b 824 294 821 290 823 293 l 824 297 l 824 300 b 814 294 820 296 817 294 b 792 295 808 294 801 295 l 779 296 l 779 308 z m 540 521 b 538 517 538 521 538 519 b 540 514 538 515 538 514 b 546 517 544 514 546 515 b 540 521 546 519 544 521 z m 414 536 b 449 529 424 534 436 532 b 486 525 463 526 475 525 b 497 538 494 525 497 529 b 486 544 497 542 494 544 l 414 544 z m 918 536 l 921 526 l 954 526 l 918 686 b 917 692 917 686 917 688 l 917 697 b 933 719 917 705 922 712 b 972 737 944 726 957 732 b 1016 750 987 742 1002 746 b 1046 757 1030 754 1040 756 l 1046 760 l 1046 763 b 1042 768 1046 766 1044 768 b 1012 760 1031 768 1022 766 b 982 749 1002 755 992 751 b 922 738 962 744 941 740 b 864 722 902 735 882 730 b 858 718 862 722 860 721 b 856 711 856 715 856 713 l 854 711 l 854 710 l 856 707 b 875 674 863 695 869 684 b 890 636 881 663 886 651 z "},"½":{"ha":2608,"x_min":0,"x_max":0,"o":"m 168 474 l 344 474 l 361 465 b 367 445 362 461 364 454 b 375 417 369 436 372 427 b 384 390 378 408 381 399 b 392 374 387 382 390 376 b 394 365 392 371 392 368 b 399 358 395 361 397 359 b 409 387 402 365 406 374 b 420 425 412 399 416 412 b 434 459 424 438 429 449 b 451 474 439 469 445 474 l 611 474 b 628 465 615 474 620 471 b 632 458 629 462 630 459 b 635 456 634 457 635 456 l 665 365 l 672 358 b 678 376 673 361 675 367 b 687 405 681 386 684 395 l 696 432 b 703 449 699 440 701 446 l 708 461 b 718 474 712 469 715 474 l 888 474 l 744 0 l 588 0 b 576 23 585 0 581 8 b 559 75 571 38 565 56 b 542 132 553 94 547 113 b 528 168 536 150 531 163 l 475 0 l 314 0 z m 825 0 l 963 449 b 992 474 966 465 976 474 l 1211 474 b 1227 465 1218 474 1223 471 b 1236 449 1231 459 1234 453 l 1364 39 b 1371 24 1367 36 1369 31 b 1374 7 1373 16 1374 11 l 1374 5 b 1375 0 1375 3 1375 2 l 1206 0 b 1202 6 1205 0 1203 2 b 1199 14 1201 9 1200 12 b 1190 38 1197 18 1194 26 l 1182 61 l 1022 61 l 999 0 z m 1418 465 l 1783 465 b 1831 449 1801 465 1817 460 b 1868 410 1846 439 1858 426 b 1892 362 1878 395 1886 379 b 1900 317 1897 345 1900 330 b 1888 260 1900 295 1896 276 b 1860 217 1879 243 1870 229 b 1834 190 1851 206 1842 197 b 1822 179 1826 184 1822 180 l 1822 175 b 1830 170 1824 173 1827 172 b 1836 168 1833 169 1835 168 l 2074 168 l 2074 175 b 2019 248 2051 201 2033 225 b 1997 331 2004 271 1997 298 b 2044 435 1997 375 2013 410 b 2158 474 2076 461 2114 474 l 2424 474 l 2440 456 l 2440 317 l 2211 317 l 2211 304 b 2275 232 2235 284 2256 260 b 2303 140 2294 204 2303 174 b 2293 92 2303 125 2300 109 b 2267 47 2287 76 2278 61 b 2228 13 2256 33 2243 22 b 2181 0 2213 4 2197 0 l 1769 0 l 1724 14 l 1606 122 l 1606 0 l 1418 0 z m 1100 304 l 1069 199 l 1139 199 b 1138 206 1139 200 1139 203 b 1136 213 1138 209 1137 212 l 1107 311 z m 1658 336 l 1644 336 b 1621 335 1636 336 1628 336 b 1610 328 1613 334 1610 331 l 1610 282 l 1715 282 b 1729 289 1723 282 1727 284 b 1732 303 1731 294 1732 298 b 1716 331 1732 319 1727 328 b 1681 336 1705 334 1694 336 z m 171 675 l 551 675 l 482 763 b 467 796 474 773 469 784 b 465 835 466 808 465 821 l 465 840 b 474 886 465 855 468 870 b 497 930 479 902 487 916 b 533 963 507 943 519 954 b 581 975 547 971 563 975 l 1265 975 l 1265 826 l 1075 826 l 1064 814 l 1064 510 l 889 510 l 889 824 l 679 824 l 679 814 b 712 779 690 803 701 791 b 742 741 722 767 732 754 b 764 699 751 728 758 713 b 772 651 769 684 772 668 b 765 606 772 638 770 622 b 743 560 759 590 752 575 b 709 524 734 546 722 534 b 665 510 696 515 681 510 l 171 510 z m 1199 510 l 1340 975 l 1606 975 l 1747 510 l 1579 510 l 1576 515 b 1569 526 1575 519 1572 523 b 1565 538 1569 526 1567 530 b 1558 557 1562 545 1560 551 b 1549 571 1555 566 1551 571 l 1403 571 b 1394 564 1399 571 1396 569 b 1388 549 1391 559 1390 554 b 1384 533 1387 543 1385 538 b 1381 526 1383 529 1381 526 b 1377 515 1380 523 1378 519 b 1374 510 1376 512 1375 510 z m 1783 975 l 2133 975 b 2187 961 2153 975 2171 970 b 2228 926 2203 952 2217 940 b 2256 878 2240 911 2249 895 b 2265 826 2262 860 2265 843 b 2261 781 2265 808 2264 793 b 2247 747 2258 769 2254 757 b 2223 718 2241 737 2233 727 b 2188 686 2213 709 2201 698 l 2194 675 l 2440 675 l 2440 510 l 2119 510 b 2111 513 2119 510 2116 511 b 2097 519 2106 514 2102 516 b 2082 526 2091 521 2087 524 b 2074 533 2077 529 2075 531 b 2052 550 2069 536 2062 542 b 2022 577 2042 558 2032 567 b 1993 605 2012 587 2002 596 b 1974 625 1984 614 1977 620 l 1968 625 l 1968 510 l 1783 510 z m 1472 814 l 1440 708 l 1510 708 l 1508 717 b 1501 742 1506 723 1504 732 b 1492 774 1499 753 1495 764 b 1483 802 1488 785 1485 794 l 1479 814 z m 1974 838 l 1974 793 b 1980 787 1974 790 1976 788 b 1989 783 1984 785 1987 784 b 2005 783 1992 783 1997 783 b 2025 782 2013 782 2019 782 l 2044 782 b 2081 788 2056 782 2069 784 b 2099 814 2093 791 2099 800 b 2094 831 2099 820 2097 826 b 2082 838 2092 835 2088 838 z "},"¾":{"ha":1146,"x_min":0,"x_max":0,"o":"m 607 94 l 607 90 b 610 82 607 88 608 85 b 613 71 612 79 613 75 b 615 60 613 66 614 63 b 615 53 615 57 615 55 b 616 47 615 51 616 49 b 618 38 616 44 617 41 b 622 21 619 32 620 26 l 628 4 b 633 -1 628 0 630 -1 l 633 29 b 631 32 633 30 633 31 b 629 36 630 33 629 34 b 628 44 629 38 629 41 b 628 50 628 47 628 49 l 628 106 l 629 129 l 629 131 b 626 139 629 136 628 139 l 618 139 b 614 136 615 139 614 138 b 610 131 612 134 611 132 b 608 125 610 129 609 127 b 608 115 608 123 608 120 b 607 101 607 111 607 106 z m 514 131 b 517 122 516 129 517 126 b 518 115 517 119 517 116 b 519 108 518 113 518 111 b 519 99 519 106 519 102 b 520 88 519 95 520 91 l 521 83 b 522 76 521 81 521 79 l 522 71 b 524 56 523 66 524 61 b 525 42 525 51 525 46 b 535 17 525 31 528 23 l 536 25 l 536 38 b 537 65 536 45 536 54 b 538 89 537 75 538 83 l 538 94 l 538 108 b 537 113 538 109 537 111 l 535 124 b 533 127 534 124 533 125 l 532 131 b 531 135 532 131 532 133 b 531 142 531 138 531 140 l 531 154 b 528 161 530 155 529 157 b 526 169 528 165 527 168 l 524 174 b 522 181 523 178 522 180 l 522 189 l 522 190 l 522 201 b 525 208 522 204 523 206 b 533 247 527 222 529 235 b 536 289 536 259 537 273 b 538 290 537 289 538 289 b 534 299 538 292 536 295 b 526 306 532 302 529 305 b 519 319 523 309 520 314 b 517 326 518 321 517 324 l 517 333 l 515 338 b 513 343 514 340 513 342 l 508 349 b 507 357 507 350 507 352 b 500 367 507 363 505 367 l 478 367 b 467 358 473 367 470 364 b 457 347 465 353 462 349 b 455 301 457 330 456 314 b 453 258 453 288 453 274 b 455 247 453 256 453 253 b 460 231 456 241 458 235 l 463 224 b 469 217 464 223 466 221 b 474 210 471 214 473 212 b 494 187 477 204 484 197 b 513 161 503 177 510 169 l 513 146 b 513 137 513 142 513 139 b 514 131 514 134 514 132 z m 574 31 l 576 26 l 576 25 b 581 29 579 25 581 26 b 583 37 581 30 582 33 b 585 46 584 41 585 44 l 585 110 b 588 121 587 112 588 115 b 589 131 588 126 588 130 b 594 143 590 135 591 139 b 597 157 596 147 597 151 b 601 160 598 158 599 159 b 606 164 602 161 604 162 b 613 172 609 169 612 171 b 614 179 613 172 614 175 l 614 185 b 615 190 614 188 614 189 b 615 194 615 191 615 193 b 613 215 615 202 614 209 b 610 235 611 222 610 228 b 611 238 610 237 610 238 b 613 243 612 239 613 240 b 610 247 613 245 612 246 b 608 251 609 247 608 249 b 610 259 608 254 609 257 b 613 267 612 261 613 264 b 611 271 613 269 612 270 b 610 275 610 272 610 273 b 611 281 610 278 610 280 b 613 285 612 281 613 283 b 611 288 613 287 612 288 b 610 292 610 289 610 290 b 613 297 610 294 611 295 l 618 297 b 622 299 620 297 621 298 l 622 300 l 622 301 l 618 306 l 617 308 b 621 315 617 309 618 312 b 628 324 624 319 626 322 l 628 336 l 629 338 l 629 350 b 631 357 629 354 630 356 b 639 370 632 363 635 367 b 647 381 643 373 645 377 b 651 388 649 383 650 386 b 656 394 652 391 654 393 l 656 429 b 651 433 653 430 651 431 b 653 438 651 435 652 437 b 656 442 655 438 656 440 b 647 454 656 445 653 450 b 639 463 642 459 639 462 b 640 483 639 471 639 478 b 643 499 640 489 641 494 b 669 511 650 500 659 505 b 686 532 678 518 684 525 b 688 537 687 533 688 534 b 689 542 689 539 689 541 b 694 545 691 544 693 545 b 697 551 696 546 697 548 b 696 560 697 555 697 558 b 694 565 695 562 694 563 b 710 619 694 585 700 603 b 740 668 721 636 731 652 l 742 668 l 746 669 b 763 683 751 674 757 679 b 772 701 769 688 772 694 l 772 742 b 761 762 768 744 764 750 b 754 782 758 773 756 780 b 749 786 752 784 750 785 b 746 792 747 787 746 789 b 749 799 746 795 747 798 b 756 808 752 801 754 804 b 760 811 757 809 759 810 l 761 813 l 761 814 l 760 815 l 751 815 b 750 814 750 815 750 815 b 744 799 748 811 746 806 b 738 786 741 792 739 788 l 733 786 b 729 784 731 786 730 785 b 726 782 728 783 727 782 l 726 778 b 719 767 726 772 724 769 l 719 725 b 715 713 719 722 718 718 b 703 695 711 707 707 701 b 689 679 698 689 694 684 b 678 672 684 675 681 672 b 669 671 676 672 673 672 b 663 668 666 670 663 669 b 638 649 656 665 648 659 b 614 628 627 638 619 631 b 609 616 614 626 612 622 l 604 607 b 601 593 604 603 603 599 b 597 582 598 588 597 584 l 597 578 b 599 576 597 576 598 575 b 600 574 600 576 600 575 b 599 567 600 572 600 569 b 597 563 599 564 598 563 l 585 563 b 582 565 583 563 582 563 l 581 568 b 569 588 575 576 571 583 b 564 611 566 593 565 601 b 560 614 561 611 560 612 l 560 622 b 562 633 560 626 560 629 b 564 644 563 636 564 640 b 563 660 564 648 564 653 b 557 676 563 667 561 673 b 550 688 554 678 552 682 l 550 689 b 565 716 550 698 555 707 b 589 739 575 725 583 732 l 590 742 b 606 751 597 744 602 748 l 606 758 b 612 760 607 760 609 761 b 614 764 614 759 615 760 b 641 787 621 773 630 781 b 675 804 652 793 663 799 b 683 808 678 806 680 807 b 689 813 685 809 687 811 l 690 814 b 710 819 694 816 701 817 b 729 825 720 820 726 822 b 735 838 732 829 734 833 b 736 850 736 842 736 846 l 738 850 l 738 910 b 727 931 734 917 730 924 b 707 947 724 938 717 944 l 704 947 l 694 947 l 692 947 b 672 946 684 947 678 947 b 651 944 666 945 659 944 l 647 944 b 636 947 645 944 642 945 b 625 949 631 948 627 949 b 619 951 625 950 623 951 b 614 953 617 951 615 952 l 610 956 l 606 957 b 601 958 604 957 602 957 l 585 958 b 578 955 583 956 581 955 b 571 951 576 954 574 953 b 567 947 569 950 568 949 b 563 940 566 944 564 942 l 560 940 b 557 939 558 940 557 940 l 553 935 b 549 935 553 935 551 935 b 543 940 547 935 545 937 b 538 949 541 944 539 947 l 532 949 l 531 949 b 508 938 520 949 513 945 b 500 914 503 931 500 923 l 501 913 b 503 908 502 912 503 910 l 503 907 l 508 890 b 517 879 510 887 513 883 l 517 876 b 509 871 517 874 514 872 b 499 869 504 870 500 869 b 485 881 496 869 491 873 b 475 897 478 889 475 894 b 485 918 475 905 478 912 b 499 936 491 925 496 931 b 503 945 500 938 501 941 b 508 953 505 949 506 952 l 508 957 b 486 981 508 973 501 981 b 444 967 468 981 453 976 b 408 935 434 957 422 947 b 392 913 400 927 395 920 b 389 886 390 906 389 897 b 394 858 389 873 391 864 b 413 836 397 853 403 845 b 420 822 416 831 419 827 b 432 808 422 818 425 813 b 449 797 437 804 442 800 b 465 782 455 793 461 788 b 484 755 473 772 479 763 b 499 728 489 747 494 738 b 504 717 500 723 501 719 l 514 707 l 515 701 b 518 697 516 700 517 698 b 521 693 519 696 520 695 b 525 675 521 691 522 685 b 529 653 528 665 529 657 b 525 648 529 651 528 649 l 518 644 b 517 643 517 644 517 644 b 516 635 517 639 516 637 l 515 632 l 515 622 l 515 619 l 515 611 b 517 606 516 610 517 608 b 518 601 517 604 517 602 b 522 601 520 601 521 601 b 526 600 523 600 525 600 b 530 599 528 600 529 600 l 531 599 l 531 583 b 525 579 531 581 529 579 b 522 585 522 579 521 581 b 518 590 522 588 521 590 b 514 586 516 590 515 589 l 499 585 l 499 586 b 500 590 499 589 499 590 l 500 611 b 498 615 499 611 498 613 b 494 619 497 618 496 619 b 485 626 492 622 488 625 b 476 632 481 628 478 630 b 468 646 476 637 474 641 b 449 659 463 650 456 655 b 429 672 442 663 436 667 b 417 683 423 676 419 680 b 411 696 415 685 413 689 b 406 716 409 702 408 709 b 402 734 405 723 403 729 b 397 742 401 739 399 742 l 381 742 l 371 732 b 367 724 367 729 366 727 b 365 718 368 722 367 720 l 363 715 b 360 714 361 715 360 715 b 363 712 360 713 361 712 l 365 711 l 365 679 b 369 663 367 675 368 670 b 375 650 369 655 371 651 l 383 625 b 407 610 391 618 399 613 b 422 590 415 607 420 600 l 423 585 b 425 578 423 582 424 580 b 433 553 427 570 430 562 b 446 529 437 545 441 537 l 449 463 l 457 444 l 457 443 l 458 442 b 469 435 461 440 465 438 b 479 431 474 432 477 431 b 490 437 485 431 488 433 b 496 447 491 441 493 444 l 497 447 b 502 444 499 447 501 446 b 507 439 503 443 505 441 b 508 438 507 438 507 438 l 513 438 l 513 435 b 514 431 514 434 514 432 b 521 413 514 426 516 420 b 522 409 521 412 521 410 b 522 404 522 408 522 406 l 522 372 b 525 365 524 372 525 370 b 529 357 525 361 526 358 b 522 331 525 350 522 341 b 528 323 522 327 524 324 b 538 321 531 322 535 321 l 542 321 l 550 331 b 554 335 552 331 553 333 b 558 338 555 337 556 338 l 574 338 b 581 350 578 338 581 342 b 574 361 581 355 578 358 b 568 374 570 364 568 368 b 578 388 568 380 571 385 b 582 393 581 389 583 391 b 590 396 581 395 584 396 b 595 395 592 396 594 396 l 597 394 l 597 381 b 594 376 597 378 596 376 b 589 374 591 376 589 375 b 597 371 589 372 592 371 l 597 368 l 597 365 b 594 355 597 360 596 356 b 589 350 593 353 591 352 b 588 344 588 349 588 347 l 588 343 b 586 339 588 342 587 341 l 585 336 b 583 328 584 331 583 329 b 582 329 582 327 582 327 l 582 319 b 579 309 582 315 581 311 b 574 299 577 307 575 303 b 572 294 574 297 573 295 l 571 292 b 567 285 569 287 568 285 l 566 282 l 564 274 b 560 271 562 272 561 271 b 558 269 559 271 558 270 b 559 266 558 269 559 267 l 560 264 l 560 260 b 558 252 560 256 559 253 b 557 244 557 251 557 248 l 557 243 l 557 231 l 557 225 l 557 221 l 557 210 l 557 207 b 558 196 557 205 557 201 b 560 185 559 190 560 187 l 560 175 l 560 167 l 560 146 b 561 124 560 138 560 131 b 564 104 562 117 563 111 b 569 67 566 91 567 79 b 574 31 570 56 572 44 z m 457 139 l 459 131 l 460 128 l 460 125 l 463 117 b 468 82 464 109 466 98 b 479 50 470 66 474 56 l 479 53 b 482 56 479 55 480 56 b 483 65 482 57 482 60 b 485 74 484 69 485 72 b 486 80 485 75 485 77 b 488 86 487 83 488 85 b 490 109 489 94 490 101 b 489 132 489 117 489 125 l 489 139 l 489 160 l 489 165 b 485 170 489 167 488 169 b 478 175 482 172 480 173 l 472 176 b 463 176 467 176 464 176 l 461 176 b 458 172 459 176 458 175 b 457 165 457 169 457 167 l 457 161 l 457 140 z m 168 272 b 169 269 169 271 169 270 b 172 253 170 262 171 256 b 176 238 173 249 175 244 b 183 225 178 233 180 229 b 190 213 185 221 188 217 b 191 209 190 212 191 210 l 192 207 b 204 188 194 202 199 196 b 223 165 210 180 216 173 b 245 147 230 158 237 152 b 268 139 253 141 261 139 l 296 139 l 297 139 b 338 140 312 139 326 139 b 376 146 351 140 363 142 b 381 147 379 146 381 146 b 380 151 381 149 380 150 l 379 151 b 353 154 370 152 361 153 b 325 157 344 155 335 156 b 293 176 311 162 300 168 b 283 182 291 175 288 176 b 269 202 279 188 274 194 b 257 224 265 210 261 217 b 250 238 253 231 251 236 l 243 253 l 243 258 l 243 260 l 243 267 b 267 342 243 294 251 319 b 311 404 282 365 297 386 b 314 406 313 404 314 405 b 326 419 318 411 322 416 b 339 431 330 423 334 427 b 345 440 343 435 345 438 b 354 450 346 442 349 445 b 367 461 356 452 360 456 b 379 469 373 467 377 469 b 388 476 381 470 384 472 b 396 483 392 479 395 481 l 403 492 b 408 497 405 492 406 493 b 414 503 410 500 412 502 b 414 515 413 507 413 511 b 415 526 415 518 415 522 b 408 542 415 531 413 536 b 396 554 403 547 399 551 l 381 569 l 375 578 b 365 585 373 581 370 583 l 346 607 l 343 607 l 339 607 l 297 607 l 293 605 b 286 600 290 603 288 602 b 276 590 284 600 281 597 l 267 575 b 258 565 263 573 260 570 b 250 551 256 559 254 555 b 223 515 240 540 231 528 b 197 472 215 501 206 487 b 191 458 196 470 194 466 b 183 443 188 450 185 445 b 176 387 180 425 177 406 b 169 328 175 368 173 348 l 169 326 b 168 324 169 325 169 325 z m 796 161 b 805 151 795 156 798 153 b 818 149 812 150 816 149 l 829 146 b 835 144 831 146 833 145 b 839 143 837 144 838 143 l 846 143 l 850 143 l 858 143 b 881 149 867 143 874 145 b 904 167 891 155 899 161 b 924 190 910 172 916 180 b 928 202 925 195 927 199 b 936 214 929 205 931 209 b 944 228 939 218 942 222 b 956 250 947 234 951 242 b 962 278 959 260 961 270 b 961 308 962 287 962 297 b 964 310 961 309 962 310 l 965 310 b 971 308 969 310 971 309 b 978 306 971 306 973 306 b 975 311 978 307 977 309 l 961 319 b 958 326 959 321 958 324 b 953 331 957 329 956 331 b 951 339 952 331 951 334 l 951 342 l 949 350 b 948 362 949 352 948 356 b 947 381 947 368 947 374 b 945 401 946 388 946 395 b 944 413 945 407 944 411 l 944 419 l 944 429 l 943 431 b 940 437 942 431 941 433 b 938 447 939 441 938 444 l 938 460 b 936 475 938 469 937 474 l 936 479 l 934 490 b 933 494 934 492 933 494 b 925 510 933 500 931 505 b 915 514 922 512 919 513 b 907 518 912 515 909 516 l 876 518 l 875 518 l 875 519 l 875 522 l 889 539 b 892 547 890 542 891 544 b 894 558 894 550 894 554 l 894 563 l 894 565 b 884 573 893 567 889 570 b 872 575 879 576 875 577 b 858 588 866 580 861 584 b 843 601 856 591 850 596 b 822 613 838 607 831 611 b 796 615 812 614 803 615 b 775 610 786 615 779 613 b 760 596 771 606 766 601 l 757 593 b 756 590 756 593 756 592 b 754 586 755 589 754 588 l 749 578 b 740 571 745 573 742 571 b 731 566 738 568 734 566 b 721 561 728 566 725 564 b 705 540 715 556 710 550 b 697 514 700 531 697 522 l 697 513 b 718 494 702 504 709 498 b 730 481 723 491 727 486 b 740 469 733 476 737 472 b 746 465 741 467 743 465 b 759 453 751 461 756 457 b 772 442 762 450 767 446 b 793 418 780 435 787 427 b 817 392 800 409 807 400 b 831 363 819 381 823 372 b 847 331 838 353 844 343 b 854 308 851 323 853 316 b 858 283 855 300 856 292 b 864 260 862 277 864 269 b 861 239 864 252 863 245 b 856 217 859 232 857 225 l 856 203 b 832 179 854 195 846 188 b 799 161 818 171 807 165 z m 539 289 b 543 282 539 284 540 282 b 547 283 546 282 547 282 b 539 289 547 287 544 289 z m 588 417 b 593 426 588 420 589 423 b 603 429 597 428 600 429 l 606 429 l 606 425 l 606 406 l 606 403 l 604 403 l 603 403 b 597 406 599 403 597 404 b 594 410 597 406 596 408 l 592 410 b 589 413 590 411 589 412 l 588 413 l 588 414 z m 875 476 l 875 479 b 882 492 875 488 877 492 b 888 479 886 492 888 488 l 888 478 b 885 476 888 477 887 476 b 882 478 884 476 883 477 b 878 479 881 479 880 479 l 881 472 b 878 474 880 473 879 474 b 875 476 877 475 876 475 z m 657 499 b 658 496 658 498 658 497 b 663 499 661 494 663 495 l 663 500 l 663 501 l 660 501 b 657 499 658 501 657 500 z m 692 507 b 694 503 692 504 693 503 b 697 507 696 503 697 504 b 694 510 697 509 696 510 b 692 507 693 510 692 509 z m 521 669 b 517 661 518 669 517 667 l 521 661 z m 522 851 b 525 854 522 853 523 854 l 531 854 l 531 850 l 526 850 l 522 850 z "},"¿":{"ha":763,"x_min":0,"x_max":0,"o":"m 297 0 b 201 31 256 0 224 10 b 168 125 179 52 168 83 l 168 447 b 201 541 168 489 179 520 b 297 572 224 562 256 572 l 367 572 l 367 711 l 544 711 l 544 517 b 511 423 544 475 533 444 b 415 392 489 402 457 392 l 346 392 l 346 181 l 594 181 l 594 0 z m 544 797 l 367 797 l 367 978 l 544 978 z "},"À":{"ha":903,"x_min":0,"x_max":0,"o":"m 478 1208 l 300 1208 l 388 1028 l 554 1028 z m 372 94 l 378 104 b 385 117 381 111 384 115 l 383 138 l 393 147 l 394 149 b 394 151 394 150 394 150 b 394 154 394 152 394 153 l 393 156 l 393 172 b 392 189 393 182 393 188 l 388 181 l 388 176 b 386 165 388 175 387 171 b 383 148 385 160 384 154 b 378 131 381 142 380 136 b 374 124 376 126 375 124 l 376 163 b 378 170 377 163 378 166 b 379 178 379 174 379 177 l 379 181 l 378 181 l 378 243 l 383 269 b 392 285 389 270 392 275 l 392 290 l 390 294 l 367 249 b 364 243 365 247 364 245 l 367 222 b 363 213 367 216 365 213 l 360 214 l 357 222 l 354 222 l 363 200 b 358 193 363 195 361 193 l 357 193 b 346 207 354 193 350 198 b 339 228 341 216 339 223 b 340 235 339 230 339 232 b 342 246 341 239 342 242 l 336 256 b 342 274 337 262 339 268 b 346 294 344 280 346 287 b 345 297 346 295 346 296 l 344 297 b 342 290 344 295 343 293 b 339 285 342 288 341 286 l 331 283 l 328 282 l 329 282 b 324 276 326 282 325 280 l 282 247 l 278 247 b 271 250 275 247 273 248 b 265 253 269 252 267 253 b 258 248 263 253 260 251 b 253 238 255 245 254 241 l 247 207 l 246 207 l 249 242 l 231 242 b 240 245 233 244 237 245 b 249 247 244 246 247 246 l 249 249 l 239 256 l 243 256 b 258 260 250 256 255 257 b 267 271 262 264 265 267 b 274 281 270 275 272 278 b 281 286 275 284 278 286 l 293 285 b 306 288 298 285 302 286 b 318 293 310 289 314 291 l 339 313 l 349 325 b 360 334 351 328 355 331 b 368 343 366 337 368 340 l 367 344 l 361 343 l 326 306 b 310 297 319 300 313 297 l 343 331 b 355 346 348 335 352 340 b 368 361 358 351 363 356 l 368 368 l 378 396 b 372 397 377 396 375 396 l 368 397 b 367 400 367 397 367 398 l 367 403 b 377 438 367 416 370 427 b 403 463 384 448 393 456 b 408 472 405 464 406 468 b 419 476 411 475 415 476 b 428 479 425 476 428 477 l 418 522 b 430 556 418 535 422 547 b 463 571 438 566 449 571 b 486 561 473 571 481 568 b 497 538 492 555 495 547 l 504 494 b 503 491 504 494 504 492 l 501 489 l 501 488 b 510 478 501 484 504 481 b 525 475 516 476 521 475 b 538 486 529 475 533 479 b 544 510 539 491 542 499 b 551 529 547 521 550 527 b 558 560 555 539 557 550 b 560 592 559 570 560 581 l 561 592 b 565 585 563 592 564 589 b 569 570 566 580 567 575 b 575 556 570 565 572 560 b 589 549 578 551 582 549 b 598 551 592 549 595 549 b 608 553 601 552 605 553 b 602 542 608 550 606 547 b 588 530 598 538 593 534 b 572 517 582 526 577 522 b 564 507 568 513 565 510 b 561 500 563 507 562 505 b 557 490 560 495 559 492 l 549 468 b 566 452 555 461 561 455 b 578 432 571 449 575 442 l 576 393 l 577 392 b 578 389 578 391 578 390 l 571 389 l 571 385 b 572 381 572 384 572 382 l 572 376 l 574 374 b 576 369 576 372 576 370 l 578 359 l 579 356 l 582 343 l 582 328 b 587 322 585 325 586 323 b 588 315 587 320 588 318 l 588 311 b 586 307 588 309 587 308 l 578 269 b 574 261 575 268 574 265 b 568 256 574 258 572 256 l 568 238 b 561 224 564 234 562 229 b 553 211 560 219 557 215 l 546 211 l 542 207 l 533 206 b 530 187 532 203 531 197 b 528 168 528 177 528 171 l 528 143 l 522 115 l 517 44 b 506 24 512 37 509 30 b 503 0 504 17 503 9 l 750 0 l 544 978 l 360 978 l 154 0 l 418 0 l 407 33 b 401 39 406 38 404 40 b 393 51 397 38 395 42 l 386 100 b 394 109 390 101 392 104 b 396 124 395 114 396 119 b 393 132 396 129 395 132 b 390 128 392 132 391 131 l 392 119 l 382 101 b 377 97 381 100 379 99 b 372 94 375 95 373 94 z m 463 136 b 458 124 462 133 460 129 b 456 113 456 119 456 115 b 458 100 456 108 457 104 b 458 90 458 96 458 93 l 457 78 b 458 72 458 77 458 75 l 458 21 b 460 0 458 8 459 1 l 464 0 b 463 18 463 1 463 7 l 463 46 b 465 54 464 48 465 50 l 463 64 b 464 74 463 68 463 71 b 465 83 465 78 465 81 l 465 132 z m 533 340 l 533 321 b 543 306 533 311 537 306 b 542 326 543 312 543 319 b 538 344 542 333 540 339 z m 317 282 b 306 276 314 280 310 278 l 292 271 b 279 264 287 269 283 267 b 274 256 275 261 274 258 b 284 260 278 256 282 257 b 293 268 286 264 289 266 l 296 269 b 308 274 300 271 304 273 b 317 282 311 275 314 277 z m 533 282 l 535 278 b 538 269 537 276 538 273 l 540 269 l 542 286 l 539 289 z m 354 318 b 342 308 350 315 347 312 b 332 293 338 303 335 299 b 343 305 335 297 338 301 b 357 313 348 309 352 312 l 357 315 b 354 318 357 317 356 318 z "},"Á":{"ha":904,"x_min":0,"x_max":0,"o":"m 350 1028 l 517 1028 l 604 1208 l 426 1208 z m 372 94 l 378 104 b 385 117 381 111 384 115 l 383 138 l 393 147 l 394 149 b 394 151 394 150 394 150 b 394 154 394 152 394 153 l 393 156 l 393 172 b 392 189 393 182 393 188 l 388 181 l 388 176 b 386 165 388 175 387 171 b 383 148 385 160 384 154 b 378 131 381 142 380 136 b 374 124 376 126 375 124 l 376 163 b 378 170 377 163 378 166 b 379 178 379 174 379 177 l 379 181 l 378 181 l 378 243 l 383 269 b 392 285 389 270 392 275 l 392 290 l 390 294 l 367 249 b 364 243 365 247 364 245 l 367 222 b 363 213 367 216 365 213 l 360 214 l 357 222 l 354 222 l 363 200 b 358 193 363 195 361 193 l 357 193 b 346 207 354 193 350 198 b 339 228 341 216 339 223 b 340 235 339 230 339 232 b 342 246 341 239 342 242 l 336 256 b 342 274 337 262 339 268 b 346 294 344 280 346 287 b 345 297 346 295 346 296 l 344 297 b 342 290 344 295 343 293 b 339 285 342 288 341 286 l 331 283 l 328 282 l 329 282 b 324 276 326 282 325 280 l 282 247 l 278 247 b 271 250 275 247 273 248 b 265 253 269 252 267 253 b 258 248 263 253 260 251 b 253 238 255 245 254 241 l 247 207 l 246 207 l 249 242 l 231 242 b 240 245 233 244 237 245 b 249 247 244 246 247 246 l 249 249 l 239 256 l 243 256 b 258 260 250 256 255 257 b 267 271 262 264 265 267 b 274 281 270 275 272 278 b 281 286 275 284 278 286 l 293 285 b 306 288 298 285 302 286 b 318 293 310 289 314 291 l 339 313 l 349 325 b 360 334 351 328 355 331 b 368 343 366 337 368 340 l 367 344 l 361 343 l 326 306 b 310 297 319 300 313 297 l 343 331 b 355 346 348 335 352 340 b 368 361 358 351 363 356 l 368 368 l 378 396 b 372 397 377 396 375 396 l 368 397 b 367 400 367 397 367 398 l 367 403 b 377 438 367 416 370 427 b 403 463 384 448 393 456 b 408 472 405 464 406 468 b 419 476 411 475 415 476 b 428 479 425 476 428 477 l 418 522 b 430 556 418 535 422 547 b 463 571 438 566 449 571 b 486 561 473 571 481 568 b 497 538 492 555 495 547 l 504 494 b 503 491 504 494 504 492 l 501 489 l 501 488 b 510 478 501 484 504 481 b 525 475 516 476 521 475 b 538 486 529 475 533 479 b 544 510 539 491 542 499 b 551 529 547 521 550 527 b 558 560 555 539 557 550 b 560 592 559 570 560 581 l 561 592 b 565 585 563 592 564 589 b 569 570 566 580 567 575 b 575 556 570 565 572 560 b 589 549 578 551 582 549 b 598 551 592 549 595 549 b 608 553 601 552 605 553 b 602 542 608 550 606 547 b 588 530 598 538 593 534 b 572 517 582 526 577 522 b 564 507 568 513 565 510 b 561 500 563 507 562 505 b 557 490 560 495 559 492 l 549 468 b 566 452 555 461 561 455 b 578 432 571 449 575 442 l 576 393 l 577 392 b 578 389 578 391 578 390 l 571 389 l 571 385 b 572 381 572 384 572 382 l 572 376 l 574 374 b 576 369 576 372 576 370 l 578 359 l 579 356 l 582 343 l 582 328 b 587 322 585 325 586 323 b 588 315 587 320 588 318 l 588 311 b 586 307 588 309 587 308 l 578 269 b 574 261 575 268 574 265 b 568 256 574 258 572 256 l 568 238 b 561 224 564 234 562 229 b 553 211 560 219 557 215 l 546 211 l 542 207 l 533 206 b 530 187 532 203 531 197 b 528 168 528 177 528 171 l 528 143 l 522 115 l 517 44 b 506 24 512 37 509 30 b 503 0 504 17 503 9 l 750 0 l 544 978 l 360 978 l 154 0 l 418 0 l 407 33 b 401 39 406 38 404 40 b 393 51 397 38 395 42 l 386 100 b 394 109 390 101 392 104 b 396 124 395 114 396 119 b 393 132 396 129 395 132 b 390 128 392 132 391 131 l 392 119 l 382 101 b 377 97 381 100 379 99 b 372 94 375 95 373 94 z m 463 136 b 458 124 462 133 460 129 b 456 113 456 119 456 115 b 458 100 456 108 457 104 b 458 90 458 96 458 93 l 457 78 b 458 72 458 77 458 75 l 458 21 b 460 0 458 8 459 1 l 464 0 b 463 18 463 1 463 7 l 463 46 b 465 54 464 48 465 50 l 463 64 b 464 74 463 68 463 71 b 465 83 465 78 465 81 l 465 132 z m 533 340 l 533 321 b 543 306 533 311 537 306 b 542 326 543 312 543 319 b 538 344 542 333 540 339 z m 317 282 b 306 276 314 280 310 278 l 292 271 b 279 264 287 269 283 267 b 274 256 275 261 274 258 b 284 260 278 256 282 257 b 293 268 286 264 289 266 l 296 269 b 308 274 300 271 304 273 b 317 282 311 275 314 277 z m 533 282 l 535 278 b 538 269 537 276 538 273 l 540 269 l 542 286 l 539 289 z m 354 318 b 342 308 350 315 347 312 b 332 293 338 303 335 299 b 343 305 335 297 338 301 b 357 313 348 309 352 312 l 357 315 b 354 318 357 317 356 318 z "},"Â":{"ha":904,"x_min":0,"x_max":0,"o":"m 571 1208 l 333 1208 l 251 1028 l 418 1028 l 451 1099 l 486 1028 l 653 1028 z m 372 94 l 378 104 b 385 117 381 111 384 115 l 383 138 l 393 147 l 394 149 b 394 151 394 150 394 150 b 394 154 394 152 394 153 l 393 156 l 393 172 b 392 189 393 182 393 188 l 388 181 l 388 176 b 386 165 388 175 387 171 b 383 148 385 160 384 154 b 378 131 381 142 380 136 b 374 124 376 126 375 124 l 376 163 b 378 170 377 163 378 166 b 379 178 379 174 379 177 l 379 181 l 378 181 l 378 243 l 383 269 b 391 279 388 270 391 274 b 392 292 391 285 392 289 l 390 294 l 367 249 b 364 243 365 247 364 245 l 367 222 b 363 213 367 216 365 213 l 360 214 l 357 222 l 354 222 l 363 200 b 358 193 363 195 361 193 l 357 193 b 346 207 354 193 350 198 b 339 228 341 216 339 223 b 340 235 339 230 339 232 b 342 246 341 239 342 242 b 339 251 342 248 341 249 b 336 256 337 252 336 254 b 342 274 337 262 339 268 b 346 294 344 280 346 287 b 345 297 346 295 346 296 l 344 297 b 342 290 344 295 343 293 b 339 285 342 288 341 286 b 329 283 334 284 331 283 b 329 282 327 282 327 282 b 324 276 326 282 325 280 l 282 247 l 278 247 b 271 250 275 247 273 248 b 265 253 269 252 267 253 b 258 248 263 253 260 251 b 253 238 255 245 254 241 l 247 207 l 246 207 l 249 242 l 231 242 b 240 245 233 244 237 245 b 249 247 244 246 247 246 l 249 249 l 239 256 l 243 256 b 258 260 250 256 255 257 b 267 271 262 264 265 267 b 274 281 270 275 272 278 b 281 286 275 284 278 286 l 293 285 b 306 288 298 285 302 286 b 318 293 310 289 314 291 l 339 313 l 349 325 b 360 334 351 328 355 331 b 368 343 366 337 368 340 l 367 344 l 361 343 l 328 307 b 319 301 325 305 322 303 b 310 297 316 298 313 297 l 343 331 b 355 346 348 335 352 340 b 368 361 358 351 363 356 l 368 368 l 378 396 b 372 397 377 396 375 396 l 368 397 b 367 400 367 397 367 398 l 367 403 b 377 438 367 416 370 427 b 403 463 384 448 393 456 b 408 472 405 464 406 468 b 419 476 411 475 415 476 b 428 479 425 476 428 477 l 418 522 b 430 556 418 535 422 547 b 463 571 438 566 449 571 b 486 561 473 571 481 568 b 497 538 492 555 495 547 l 504 494 b 503 491 504 494 504 492 l 501 489 l 501 488 b 510 478 501 484 504 481 b 525 475 516 476 521 475 b 538 486 529 475 533 479 b 544 510 539 491 542 499 b 551 529 547 521 550 527 b 558 560 555 539 557 550 b 560 592 559 570 560 581 l 561 592 b 565 585 563 592 564 589 b 569 570 566 580 567 575 b 575 556 570 565 572 560 b 589 549 578 551 582 549 b 598 551 592 549 595 549 b 608 553 601 552 605 553 b 602 542 608 550 606 547 b 588 530 598 538 593 534 b 572 517 582 526 577 522 b 564 507 568 513 565 510 b 561 500 563 507 562 505 b 557 490 560 495 559 492 b 553 479 556 488 555 485 b 549 468 551 474 550 470 b 566 452 555 461 561 455 b 578 432 571 449 575 442 l 576 393 l 577 392 b 578 389 578 391 578 390 l 571 389 l 571 385 b 572 381 572 384 572 382 l 572 376 l 574 374 b 576 369 576 372 576 370 l 578 359 l 579 356 b 580 353 579 356 579 356 l 582 343 l 582 328 b 587 322 585 325 586 323 b 588 315 587 320 588 318 l 588 311 b 586 307 588 309 587 308 l 578 269 b 574 261 575 268 574 265 b 568 256 574 258 572 256 l 568 238 b 561 224 564 234 562 229 b 553 211 560 219 557 215 l 546 211 l 542 207 l 533 206 b 530 187 532 203 531 197 b 528 168 528 177 528 171 l 528 143 l 522 115 l 517 44 b 506 24 512 37 509 30 b 503 0 504 17 503 9 l 750 0 l 544 978 l 360 978 l 154 0 l 418 0 l 407 33 b 401 39 406 38 404 40 b 393 51 397 38 395 42 l 386 100 b 394 109 390 101 392 104 b 396 124 395 114 396 119 b 393 132 396 129 395 132 b 390 128 392 132 391 131 l 392 119 l 382 101 b 377 97 381 100 379 99 b 372 94 375 95 373 94 z m 463 136 b 458 124 462 133 460 129 b 456 113 456 119 456 115 b 458 100 456 108 457 104 b 458 90 458 96 458 93 l 457 78 b 458 72 458 77 458 75 l 458 43 l 458 21 b 460 0 458 8 459 1 l 464 0 b 463 18 463 1 463 7 l 463 35 l 463 46 b 465 54 464 48 465 50 l 463 64 b 464 74 463 68 463 71 b 465 83 465 78 465 81 l 465 132 z m 533 340 l 533 321 b 543 306 533 311 537 306 b 542 326 543 312 543 319 b 538 344 542 333 540 339 z m 317 282 b 306 276 314 280 310 278 l 292 271 b 279 264 287 269 283 267 b 274 256 275 261 274 258 b 284 260 278 256 282 257 b 293 268 286 264 289 266 l 296 269 b 308 274 300 271 304 273 b 317 282 311 275 314 277 z m 533 282 l 535 278 b 538 269 537 276 538 273 l 540 269 l 542 286 l 539 289 z m 354 318 b 342 308 350 315 347 312 b 332 293 338 303 335 299 b 343 305 335 297 338 301 b 357 313 348 309 352 312 l 357 314 l 358 314 l 357 315 b 354 318 357 317 356 318 z "},"Ã":{"ha":904,"x_min":0,"x_max":0,"o":"m 411 1028 l 576 1028 l 658 1208 l 558 1208 l 526 1138 l 494 1208 l 328 1208 l 246 1028 l 346 1028 l 378 1099 z m 372 94 l 378 104 b 385 117 381 111 384 115 l 383 138 l 393 147 l 394 149 b 394 151 394 150 394 150 b 394 154 394 152 394 153 l 393 156 l 393 172 b 392 189 393 182 393 188 l 388 181 l 388 176 b 386 165 388 175 387 171 b 383 148 385 160 384 154 b 378 131 381 142 380 136 b 374 124 376 126 375 124 l 376 163 b 378 170 377 163 378 166 b 379 178 379 174 379 177 l 379 181 l 378 181 l 378 243 l 383 269 b 391 278 388 270 391 273 b 392 290 391 282 392 287 l 390 294 l 367 249 b 364 243 365 247 364 245 l 367 222 b 363 213 367 216 365 213 l 360 214 l 357 222 l 354 222 l 363 200 b 358 193 363 195 361 193 l 357 193 b 346 207 354 193 350 198 b 339 228 341 216 339 223 b 340 235 339 230 339 232 b 342 246 341 239 342 242 l 336 256 b 342 274 337 262 339 268 b 346 294 344 280 346 287 b 345 297 346 295 346 296 l 344 297 b 342 290 344 295 343 293 b 339 285 342 288 341 286 b 329 283 334 284 331 283 b 329 282 327 282 327 282 b 324 276 326 282 325 280 l 282 247 l 278 247 b 271 250 275 247 273 248 b 265 253 269 252 267 253 b 258 248 263 253 260 251 b 253 238 255 245 254 241 l 247 207 l 246 207 l 249 242 l 231 242 b 240 245 233 244 237 245 b 249 247 244 246 247 246 l 249 249 l 239 256 l 243 256 b 258 260 250 256 255 257 b 267 271 262 264 265 267 b 274 281 270 275 272 278 b 281 286 275 284 278 286 l 293 285 b 306 288 298 285 302 286 b 318 293 310 289 314 291 l 339 313 l 349 325 b 360 334 351 328 355 331 b 368 343 366 337 368 340 l 367 344 l 361 343 l 326 306 b 310 297 319 300 313 297 l 343 331 b 355 346 348 335 352 340 b 368 361 358 351 363 356 l 368 368 l 378 396 b 372 397 377 396 375 396 l 368 397 b 367 400 367 397 367 398 l 367 403 b 377 438 367 416 370 427 b 403 463 384 448 393 456 b 408 472 405 464 406 468 b 419 476 411 475 415 476 b 428 479 425 476 428 477 l 418 522 b 430 556 418 535 422 547 b 463 571 438 566 449 571 b 486 561 473 571 481 568 b 497 538 492 555 495 547 l 504 494 b 503 491 504 494 504 492 l 501 489 l 501 488 b 510 478 501 484 504 481 b 525 475 516 476 521 475 b 538 486 529 475 533 479 b 544 510 539 491 542 499 b 551 529 547 521 550 527 b 558 560 555 539 557 550 b 560 592 559 570 560 581 l 561 592 b 565 585 563 592 564 589 b 569 570 566 580 567 575 b 575 556 570 565 572 560 b 589 549 578 551 582 549 b 598 551 592 549 595 549 b 608 553 601 552 605 553 b 602 542 608 550 606 547 b 588 530 598 538 593 534 b 572 517 582 526 577 522 b 564 507 568 513 565 510 b 561 500 563 507 562 505 b 557 490 560 495 559 492 l 549 468 b 566 452 555 461 561 455 b 578 432 571 449 575 442 l 576 393 l 577 392 b 578 389 578 391 578 390 l 571 389 l 571 385 b 572 381 572 384 572 382 l 572 376 l 574 374 b 576 369 576 372 576 370 l 578 359 l 579 356 b 580 353 579 356 579 356 l 582 343 l 582 328 b 587 322 585 325 586 323 b 588 315 587 320 588 318 l 588 311 b 586 307 588 309 587 308 l 578 269 b 574 261 575 268 574 265 b 568 256 574 258 572 256 l 568 238 b 561 224 564 234 562 229 b 553 211 560 219 557 215 l 546 211 l 542 207 l 533 206 b 530 187 532 203 531 197 b 528 168 528 177 528 171 l 528 143 l 522 115 l 517 44 b 506 24 512 37 509 30 b 503 0 504 17 503 9 l 750 0 l 544 978 l 360 978 l 154 0 l 418 0 l 407 33 b 401 39 406 38 404 40 b 393 51 397 38 395 42 l 386 100 b 394 109 390 101 392 104 b 396 124 395 114 396 119 b 393 132 396 129 395 132 b 390 128 392 132 391 131 l 392 119 l 382 101 b 377 97 381 100 379 99 b 372 94 375 95 373 94 z m 463 136 b 458 124 462 133 460 129 b 456 113 456 119 456 115 b 458 100 456 108 457 104 b 458 90 458 96 458 93 l 457 78 b 458 72 458 77 458 75 l 458 21 b 460 0 458 8 459 1 l 464 0 b 463 18 463 1 463 7 l 463 46 b 465 54 464 48 465 50 l 463 64 b 464 74 463 68 463 71 b 465 83 465 78 465 81 l 465 132 z m 533 340 l 533 321 b 543 306 533 311 537 306 b 542 326 543 312 543 319 b 538 344 542 333 540 339 z m 317 282 b 306 276 314 280 310 278 l 292 271 b 279 264 287 269 283 267 b 274 256 275 261 274 258 b 284 260 278 256 282 257 b 293 268 286 264 289 266 l 296 269 b 308 274 300 271 304 273 b 317 282 311 275 314 277 z m 533 282 l 535 278 b 538 269 537 276 538 273 l 540 269 l 542 286 l 539 289 z m 354 318 b 342 308 350 315 347 312 b 332 293 338 303 335 299 b 343 305 335 297 338 301 b 357 313 348 309 352 312 l 357 315 b 354 318 357 317 356 318 z "},"Ä":{"ha":904,"x_min":0,"x_max":0,"o":"m 650 1208 l 472 1208 l 472 1028 l 650 1028 z m 432 1208 l 254 1208 l 254 1028 l 432 1028 z m 372 94 l 378 104 b 385 117 381 111 384 115 l 383 138 l 393 147 l 394 149 b 394 151 394 150 394 150 b 394 154 394 152 394 153 l 393 156 l 393 172 b 392 189 393 182 393 188 l 388 181 l 388 176 b 386 165 388 175 387 171 b 383 148 385 160 384 154 b 378 131 381 142 380 136 b 374 124 376 126 375 124 l 376 163 b 378 170 377 163 378 166 b 379 178 379 174 379 177 l 379 181 l 378 181 l 378 243 l 383 269 b 391 279 388 270 391 274 b 392 292 391 285 392 289 l 390 294 l 367 249 b 364 243 365 247 364 245 l 367 222 b 363 213 367 216 365 213 l 360 214 l 357 222 l 354 222 l 363 200 b 358 193 363 195 361 193 l 357 193 b 346 207 354 193 350 198 b 339 228 341 216 339 223 b 340 235 339 230 339 232 b 342 246 341 239 342 242 b 339 251 342 248 341 249 b 336 256 337 252 336 254 b 342 274 337 262 339 268 b 346 294 344 280 346 287 b 345 297 346 295 346 296 l 344 297 b 342 290 344 295 343 293 b 339 285 342 288 341 286 b 329 283 334 284 331 283 b 329 282 327 282 327 282 b 324 276 326 282 325 280 l 282 247 l 278 247 b 271 250 275 247 273 248 b 265 253 269 252 267 253 b 258 248 263 253 260 251 b 253 238 255 245 254 241 l 247 207 l 246 207 l 249 242 l 231 242 b 240 245 233 244 237 245 b 249 247 244 246 247 246 l 249 249 l 239 256 l 243 256 b 258 260 250 256 255 257 b 267 271 262 264 265 267 b 274 281 270 275 272 278 b 281 286 275 284 278 286 l 293 285 b 306 288 298 285 302 286 b 318 293 310 289 314 291 l 339 313 l 349 325 b 360 334 351 328 355 331 b 368 343 366 337 368 340 l 367 344 l 361 343 l 328 307 b 319 301 325 305 322 303 b 310 297 316 298 313 297 l 343 331 b 355 346 348 335 352 340 b 368 361 358 351 363 356 l 368 368 l 378 396 b 372 397 377 396 375 396 l 368 397 b 367 400 367 397 367 398 l 367 403 b 377 438 367 416 370 427 b 403 463 384 448 393 456 b 408 472 405 464 406 468 b 419 476 411 475 415 476 b 428 479 425 476 428 477 l 418 522 b 430 556 418 535 422 547 b 463 571 438 566 449 571 b 486 561 473 571 481 568 b 497 538 492 555 495 547 l 504 494 b 503 491 504 494 504 492 l 501 489 l 501 488 b 510 478 501 484 504 481 b 525 475 516 476 521 475 b 538 486 529 475 533 479 b 544 510 539 491 542 499 b 551 529 547 521 550 527 b 558 560 555 539 557 550 b 560 592 559 570 560 581 l 561 592 b 565 585 563 592 564 589 b 569 570 566 580 567 575 b 575 556 570 565 572 560 b 589 549 578 551 582 549 b 598 551 592 549 595 549 b 608 553 601 552 605 553 b 602 542 608 550 606 547 b 588 530 598 538 593 534 b 572 517 582 526 577 522 b 564 507 568 513 565 510 b 561 500 563 507 562 505 b 557 490 560 495 559 492 b 553 479 556 488 555 485 b 549 468 551 474 550 470 b 566 452 555 461 561 455 b 578 432 571 449 575 442 l 576 393 l 577 392 b 578 389 578 391 578 390 l 571 389 l 571 385 b 572 381 572 384 572 382 l 572 376 l 574 374 b 576 369 576 372 576 370 l 578 359 l 579 356 b 580 353 579 356 579 356 l 582 343 l 582 328 b 587 322 585 325 586 323 b 588 315 587 320 588 318 l 588 311 b 586 307 588 309 587 308 l 578 269 b 574 261 575 268 574 265 b 568 256 574 258 572 256 l 568 238 b 561 224 564 234 562 229 b 553 211 560 219 557 215 l 546 211 l 542 207 l 533 206 b 530 187 532 203 531 197 b 528 168 528 177 528 171 l 528 143 l 522 115 l 517 44 b 506 24 512 37 509 30 b 503 0 504 17 503 9 l 750 0 l 544 978 l 360 978 l 154 0 l 418 0 l 407 33 b 401 39 406 38 404 40 b 393 51 397 38 395 42 l 386 100 b 394 109 390 101 392 104 b 396 124 395 114 396 119 b 393 132 396 129 395 132 b 390 128 392 132 391 131 l 392 119 l 382 101 b 377 97 381 100 379 99 b 372 94 375 95 373 94 z m 463 136 b 458 124 462 133 460 129 b 456 113 456 119 456 115 b 458 100 456 108 457 104 b 458 90 458 96 458 93 l 457 78 b 458 72 458 77 458 75 l 458 43 l 458 21 b 460 0 458 8 459 1 l 464 0 b 463 18 463 1 463 7 l 463 35 l 463 46 b 465 54 464 48 465 50 l 463 64 b 464 74 463 68 463 71 b 465 83 465 78 465 81 l 465 132 z m 533 340 l 533 321 b 543 306 533 311 537 306 b 542 326 543 312 543 319 b 538 344 542 333 540 339 z m 317 282 b 306 276 314 280 310 278 l 292 271 b 279 264 287 269 283 267 b 274 256 275 261 274 258 b 284 260 278 256 282 257 b 293 268 286 264 289 266 l 296 269 b 308 274 300 271 304 273 b 317 282 311 275 314 277 z m 533 282 l 535 278 b 538 269 537 276 538 273 l 540 269 l 542 286 l 539 289 z m 354 318 b 342 308 350 315 347 312 b 332 293 338 303 335 299 b 343 305 335 297 338 301 b 357 313 348 309 352 312 l 357 314 l 358 314 l 357 315 b 354 318 357 317 356 318 z "},"Å":{"ha":904,"x_min":0,"x_max":0,"o":"m 363 1028 l 540 1028 l 540 1208 l 363 1208 z m 428 1147 l 476 1147 l 476 1089 l 428 1089 z m 372 94 l 378 104 b 385 117 381 111 384 115 l 383 138 l 393 147 l 394 149 b 394 151 394 150 394 150 b 394 154 394 152 394 153 l 393 156 l 393 172 b 392 189 393 182 393 188 l 388 181 l 388 176 b 386 165 388 175 387 171 b 383 148 385 160 384 154 b 378 131 381 142 380 136 b 374 124 376 126 375 124 l 376 163 b 378 170 377 163 378 166 b 379 178 379 174 379 177 l 379 181 l 378 181 l 378 243 l 383 269 b 391 278 388 270 391 273 b 392 290 391 282 392 287 l 390 294 l 367 249 b 364 243 365 247 364 245 l 367 222 b 363 213 367 216 365 213 l 360 214 l 357 222 l 354 222 l 363 200 b 358 193 363 195 361 193 l 357 193 b 346 207 354 193 350 198 b 339 228 341 216 339 223 b 340 235 339 230 339 232 b 342 246 341 239 342 242 l 336 256 b 342 274 337 262 339 268 b 346 294 344 280 346 287 b 345 297 346 295 346 296 l 344 297 b 342 290 344 295 343 293 b 339 285 342 288 341 286 b 329 283 334 284 331 283 b 329 282 327 282 327 282 b 324 276 326 282 325 280 l 282 247 l 278 247 b 271 250 275 247 273 248 b 265 253 269 252 267 253 b 258 248 263 253 260 251 b 253 238 255 245 254 241 l 247 207 l 246 207 l 249 242 l 231 242 b 240 245 233 244 237 245 b 249 247 244 246 247 246 l 249 249 l 239 256 l 243 256 b 258 260 250 256 255 257 b 267 271 262 264 265 267 b 274 281 270 275 272 278 b 281 286 275 284 278 286 l 293 285 b 306 288 298 285 302 286 b 318 293 310 289 314 291 l 339 313 l 349 325 b 360 334 351 328 355 331 b 368 343 366 337 368 340 l 367 344 l 361 343 l 328 307 l 326 306 b 310 297 319 300 313 297 l 343 331 b 355 346 348 335 352 340 b 368 361 358 351 363 356 l 368 368 l 378 396 b 372 397 377 396 375 396 l 368 397 b 367 400 367 397 367 398 l 367 403 b 377 438 367 416 370 427 b 403 463 384 448 393 456 b 408 472 405 464 406 468 b 419 476 411 475 415 476 b 428 479 425 476 428 477 l 418 522 b 430 556 418 535 422 547 b 463 571 438 566 449 571 b 486 561 473 571 481 568 b 497 538 492 555 495 547 l 504 494 b 503 491 504 494 504 492 l 501 489 l 501 488 b 510 478 501 484 504 481 b 525 475 516 476 521 475 b 538 486 529 475 533 479 b 544 510 539 491 542 499 b 551 529 547 521 550 527 b 558 560 555 539 557 550 b 560 592 559 570 560 581 l 561 592 b 565 585 563 592 564 589 b 569 570 566 580 567 575 b 575 556 570 565 572 560 b 589 549 578 551 582 549 b 598 551 592 549 595 549 b 608 553 601 552 605 553 b 602 542 608 550 606 547 b 588 530 598 538 593 534 b 572 517 582 526 577 522 b 564 507 568 513 565 510 b 561 500 563 507 562 505 b 557 490 560 495 559 492 l 549 468 b 566 452 555 461 561 455 b 578 432 571 449 575 442 l 576 393 l 577 392 b 578 389 578 391 578 390 l 571 389 l 571 385 b 572 381 572 384 572 382 l 572 376 l 574 374 b 576 369 576 372 576 370 l 578 359 l 579 356 b 580 353 579 356 579 356 l 582 343 l 582 328 b 587 322 585 325 586 323 b 588 315 587 320 588 318 l 588 311 b 586 307 588 309 587 308 l 578 269 b 574 261 575 268 574 265 b 568 256 574 258 572 256 l 568 238 b 561 224 564 234 562 229 b 553 211 560 219 557 215 l 546 211 l 542 207 l 533 206 b 530 187 532 203 531 197 b 528 168 528 177 528 171 l 528 143 l 522 115 l 517 44 b 506 24 512 37 509 30 b 503 0 504 17 503 9 l 750 0 l 544 978 l 360 978 l 154 0 l 418 0 l 407 33 b 401 39 406 38 404 40 b 393 51 397 38 395 42 l 386 100 b 394 109 390 101 392 104 b 396 124 395 114 396 119 b 393 132 396 129 395 132 b 390 128 392 132 391 131 l 392 119 l 382 101 b 377 97 381 100 379 99 b 372 94 375 95 373 94 z m 463 136 b 458 124 462 133 460 129 b 456 113 456 119 456 115 b 458 100 456 108 457 104 b 458 90 458 96 458 93 l 457 78 b 458 72 458 77 458 75 l 458 21 b 460 0 458 8 459 1 l 464 0 b 463 18 463 1 463 7 l 463 46 b 465 54 464 48 465 50 l 463 64 b 464 74 463 68 463 71 b 465 83 465 78 465 81 l 465 132 z m 533 340 l 533 321 b 543 306 533 311 537 306 b 542 326 543 312 543 319 b 538 344 542 333 540 339 z m 317 282 b 306 276 314 280 310 278 l 292 271 b 279 264 287 269 283 267 b 274 256 275 261 274 258 b 284 260 278 256 282 257 b 293 268 286 264 289 266 l 296 269 b 308 274 300 271 304 273 b 317 282 311 275 314 277 z m 533 282 l 535 278 b 538 269 537 276 538 273 l 540 269 l 542 286 l 539 289 z m 354 318 b 342 308 350 315 347 312 b 332 293 338 303 335 299 b 343 305 335 297 338 301 b 357 313 348 309 352 312 l 357 315 b 354 318 357 317 356 318 z "},"Æ":{"ha":1239,"x_min":0,"x_max":0,"o":"m 372 94 b 377 97 373 94 375 95 b 382 101 379 99 381 100 l 392 119 l 390 128 b 393 132 391 131 392 132 b 396 124 395 132 396 129 b 394 109 396 119 395 114 b 386 100 392 104 390 101 l 393 51 b 401 39 395 42 397 38 b 407 33 404 40 406 38 l 418 0 l 154 0 l 360 978 l 544 978 l 647 489 l 647 978 l 1071 978 l 1071 797 l 825 797 l 825 586 l 1029 586 l 1029 406 l 825 406 l 825 181 l 1071 181 l 1071 0 l 503 0 b 506 24 503 9 504 17 b 517 44 509 30 512 37 l 522 115 l 528 143 l 528 168 b 530 187 528 171 528 177 b 533 206 531 197 532 203 l 542 207 l 546 211 l 553 211 b 561 224 557 215 560 219 b 568 238 562 229 564 234 l 568 256 b 574 261 572 256 574 258 b 578 269 574 265 575 268 l 586 307 b 588 311 587 308 588 309 l 588 315 b 587 322 588 318 587 320 b 582 328 586 323 585 325 l 582 343 l 580 353 b 579 356 579 356 579 356 l 578 359 l 576 369 b 574 374 576 370 576 372 l 572 376 l 572 381 b 571 385 572 382 572 384 l 571 389 l 578 389 b 577 392 578 390 578 391 l 576 393 l 578 432 b 566 452 575 442 571 449 b 549 468 561 455 555 461 b 553 479 550 470 551 474 b 557 490 555 485 556 488 b 561 500 559 492 560 495 b 564 507 562 505 563 507 b 572 517 565 510 568 513 b 588 530 577 522 582 526 b 602 542 593 534 598 538 b 608 553 606 547 608 550 b 598 551 605 553 601 552 b 589 549 595 549 592 549 b 575 556 582 549 578 551 b 569 570 572 560 570 565 b 565 585 567 575 566 580 b 561 592 564 589 563 592 l 560 592 b 558 560 560 581 559 570 b 551 529 557 550 555 539 b 544 510 550 527 547 521 b 538 486 542 499 539 491 b 525 475 533 479 529 475 b 510 478 521 475 516 476 b 501 488 504 481 501 484 l 501 489 l 503 491 b 504 494 504 492 504 494 l 497 538 b 486 561 495 547 492 555 b 463 571 481 568 473 571 b 430 556 449 571 438 566 b 418 522 422 547 418 535 l 428 479 b 419 476 428 477 425 476 b 408 472 415 476 411 475 b 403 463 406 468 405 464 b 377 438 393 456 384 448 b 367 403 370 427 367 416 l 367 400 b 368 397 367 398 367 397 l 372 397 b 378 396 375 396 377 396 l 368 368 l 368 361 b 355 346 363 356 358 351 b 343 331 352 340 348 335 l 310 297 b 319 301 313 297 316 298 b 328 307 322 303 325 305 l 361 343 l 367 344 l 368 343 b 360 334 368 340 366 337 b 349 325 355 331 351 328 l 339 313 l 318 293 b 306 288 314 291 310 289 b 293 285 302 286 298 285 l 281 286 b 274 281 278 286 275 284 b 267 271 272 278 270 275 b 258 260 265 267 262 264 b 243 256 255 257 250 256 l 239 256 l 249 249 l 249 247 b 240 245 247 246 244 246 b 231 242 237 245 233 244 l 249 242 l 246 207 l 247 207 l 253 238 b 258 248 254 241 255 245 b 265 253 260 251 263 253 b 271 250 267 253 269 252 b 278 247 273 248 275 247 l 282 247 l 324 276 b 329 282 325 280 326 282 b 329 283 327 282 327 282 b 339 285 331 283 334 284 b 342 290 341 286 342 288 b 344 297 343 293 344 295 l 345 297 b 346 294 346 296 346 295 b 342 274 346 287 344 280 b 336 256 339 268 337 262 b 339 251 336 254 337 252 b 342 246 341 249 342 248 b 340 235 342 242 341 239 b 339 228 339 232 339 230 b 346 207 339 223 341 216 b 357 193 350 198 354 193 l 358 193 b 363 200 361 193 363 195 l 354 222 l 357 222 l 360 214 l 363 213 b 367 222 365 213 367 216 l 364 243 b 367 249 364 245 365 247 l 390 294 l 392 292 b 391 279 392 289 391 285 b 383 269 391 274 388 270 l 378 243 l 378 181 l 379 181 l 379 178 b 378 170 379 177 379 174 b 376 163 378 166 377 163 l 374 124 b 378 131 375 124 376 126 b 383 148 380 136 381 142 b 386 165 384 154 385 160 b 388 176 387 171 388 175 l 388 181 l 392 189 b 393 172 393 188 393 182 l 393 156 l 394 154 b 394 151 394 153 394 152 b 394 149 394 150 394 150 l 393 147 l 383 138 l 385 117 b 378 104 384 115 381 111 z m 463 136 l 465 132 l 465 83 b 464 74 465 81 465 78 b 463 64 463 71 463 68 l 465 54 b 463 46 465 50 464 48 l 463 18 b 464 0 463 7 463 1 l 460 0 b 458 21 459 1 458 8 l 458 72 b 457 78 458 75 458 77 l 458 90 b 458 100 458 93 458 96 b 456 113 457 104 456 108 b 458 124 456 115 456 119 b 463 136 460 129 462 133 z m 533 340 l 538 344 b 542 326 540 339 542 333 b 543 306 543 319 543 312 b 533 321 537 306 533 311 z m 317 282 b 308 274 314 277 311 275 b 296 269 304 273 300 271 l 293 268 b 284 260 289 266 286 264 b 274 256 282 257 278 256 b 279 264 274 258 275 261 b 292 271 283 267 287 269 l 306 276 b 317 282 310 278 314 280 z m 533 282 l 539 289 l 542 286 l 540 269 l 538 269 b 535 278 538 273 537 276 z m 354 318 b 357 315 356 318 357 317 l 358 314 l 357 314 l 357 313 b 343 305 352 312 348 309 b 332 293 338 301 335 297 b 342 308 335 299 338 303 b 354 318 347 312 350 315 z "},"Ç":{"ha":760,"x_min":0,"x_max":0,"o":"m 299 -60 l 351 -60 l 351 0 l 297 0 b 201 31 256 0 224 10 b 168 125 179 52 168 83 l 168 861 b 203 951 168 903 180 933 b 297 978 226 969 257 978 l 592 978 l 592 797 l 346 797 l 346 181 l 592 181 l 592 0 l 472 0 l 472 -176 l 299 -176 z "},"È":{"ha":760,"x_min":0,"x_max":0,"o":"m 168 978 l 168 0 l 592 0 l 592 181 l 346 181 l 346 406 l 550 406 l 550 586 l 346 586 l 346 797 l 592 797 l 592 978 z m 406 1208 l 228 1208 l 315 1028 l 482 1028 z "},"É":{"ha":760,"x_min":0,"x_max":0,"o":"m 532 1208 l 354 1208 l 278 1028 l 444 1028 z m 168 978 l 168 0 l 592 0 l 592 181 l 346 181 l 346 406 l 550 406 l 550 586 l 346 586 l 346 797 l 592 797 l 592 978 z "},"Ê":{"ha":760,"x_min":0,"x_max":0,"o":"m 261 1208 l 499 1208 l 581 1028 l 414 1028 l 379 1099 l 346 1028 l 179 1028 z m 168 0 l 168 978 l 592 978 l 592 797 l 346 797 l 346 586 l 550 586 l 550 406 l 346 406 l 346 181 l 592 181 l 592 0 z "},"Ë":{"ha":760,"x_min":0,"x_max":0,"o":"m 182 1208 l 360 1208 l 360 1028 l 182 1028 z m 400 1208 l 578 1208 l 578 1028 l 400 1028 z m 168 0 l 168 978 l 592 978 l 592 797 l 346 797 l 346 586 l 550 586 l 550 406 l 346 406 l 346 181 l 592 181 l 592 0 z "},"Ì":{"ha":514,"x_min":0,"x_max":0,"o":"m 106 1208 l 283 1208 l 360 1028 l 193 1028 z m 168 978 l 346 978 l 346 0 l 168 0 z "},"Í":{"ha":514,"x_min":0,"x_max":0,"o":"m 232 1208 l 410 1208 l 322 1028 l 156 1028 z m 168 978 l 346 978 l 346 0 l 168 0 z "},"Î":{"ha":514,"x_min":0,"x_max":0,"o":"m 139 1208 l 376 1208 l 458 1028 l 292 1028 l 257 1099 l 224 1028 l 57 1028 z m 168 978 l 346 978 l 346 0 l 168 0 z "},"Ï":{"ha":514,"x_min":0,"x_max":0,"o":"m 60 1208 l 238 1208 l 238 1028 l 60 1028 z m 278 1208 l 456 1208 l 456 1028 l 278 1028 z m 168 978 l 346 978 l 346 0 l 168 0 z "},"Ð":{"ha":894,"x_min":0,"x_max":0,"o":"m 168 586 l 168 406 l 228 406 l 228 0 l 597 0 b 693 31 639 0 671 10 b 726 125 715 52 726 83 l 726 853 b 693 947 726 894 715 926 b 597 978 671 967 639 978 l 228 978 l 228 586 z m 406 797 l 549 797 l 549 181 l 406 181 l 406 406 l 478 406 l 478 586 l 406 586 z "},"Ñ":{"ha":831,"x_min":0,"x_max":0,"o":"m 538 1028 l 372 1028 l 339 1099 l 307 1028 l 207 1028 l 289 1208 l 456 1208 l 488 1138 l 519 1208 l 619 1208 z m 663 0 l 518 0 l 344 426 l 344 0 l 168 0 l 168 978 l 313 978 l 486 506 l 486 978 l 663 978 z "},"Ò":{"ha":835,"x_min":0,"x_max":0,"o":"m 263 1208 l 440 1208 l 517 1028 l 350 1028 z m 538 0 l 297 0 b 201 31 256 0 224 10 b 168 125 179 52 168 83 l 168 853 b 201 947 168 894 179 926 b 297 978 224 967 256 978 l 538 978 b 633 947 579 978 611 967 b 667 853 656 926 667 894 l 667 125 b 633 31 667 83 656 52 b 538 0 611 10 579 0 z m 357 229 b 359 216 357 227 358 223 b 363 200 360 209 362 204 b 369 178 365 196 368 189 l 369 172 b 371 165 369 169 370 166 l 375 154 l 429 154 l 429 158 b 432 182 430 169 431 176 b 436 203 433 188 434 194 b 438 208 436 206 437 208 b 441 216 438 211 440 214 b 444 225 442 218 444 221 l 446 228 b 449 232 447 231 448 232 l 451 232 b 458 242 456 235 458 238 l 459 245 l 461 256 l 461 257 b 466 255 463 257 465 256 l 468 253 b 465 244 468 249 467 246 b 463 239 463 243 463 241 l 467 243 l 472 239 b 481 249 474 239 477 242 b 485 243 481 245 482 243 b 488 244 487 243 488 244 l 488 243 l 494 243 l 501 233 b 506 218 504 231 506 225 b 508 214 507 218 508 217 l 511 214 l 513 214 l 513 215 b 510 218 511 215 510 216 l 510 225 l 515 235 b 517 232 516 235 517 234 b 519 231 517 231 518 231 l 526 235 b 528 232 527 235 528 234 l 533 232 b 536 233 535 232 536 232 l 536 235 l 536 239 l 536 240 b 538 243 537 240 538 241 b 533 245 536 245 534 246 b 528 249 532 245 531 246 l 529 251 b 530 252 530 251 530 252 l 529 253 b 534 255 533 253 534 253 b 538 258 534 256 535 257 b 539 258 538 259 538 259 l 540 257 l 540 256 b 542 259 541 256 542 258 b 546 261 543 260 544 261 b 549 259 548 261 549 260 l 550 257 l 551 258 b 553 260 552 258 553 259 b 551 262 553 261 552 261 b 550 265 550 262 550 263 b 547 272 549 266 548 269 b 546 279 546 276 546 278 b 549 289 548 281 549 284 b 544 302 549 294 547 298 b 539 314 542 306 540 310 l 539 315 l 544 311 l 543 326 b 544 331 543 328 543 330 b 544 333 544 331 544 332 l 544 336 l 540 344 b 533 361 538 351 536 356 b 529 371 531 366 529 369 b 521 383 529 377 526 381 b 509 403 516 391 512 397 b 499 422 506 408 502 415 b 494 447 497 434 495 442 b 492 449 492 451 492 451 b 475 494 484 464 479 480 b 461 543 471 509 467 525 l 461 549 b 467 551 461 550 463 551 l 468 551 b 474 543 468 550 470 547 b 475 535 475 542 475 539 b 483 517 475 528 478 522 l 506 472 l 506 472 b 507 469 507 471 507 470 l 506 468 l 506 460 b 505 446 506 458 505 453 b 501 431 504 438 503 433 l 501 429 b 507 424 501 425 503 424 b 510 428 506 424 507 425 l 513 431 l 508 414 l 510 404 b 514 412 512 407 513 409 b 518 418 515 414 516 416 b 526 430 521 423 523 427 b 536 440 528 433 531 437 l 536 446 b 534 456 536 450 535 453 b 532 468 533 459 532 463 b 533 472 532 470 532 471 b 533 474 533 472 533 473 l 532 482 b 528 516 532 493 531 504 b 521 550 525 528 523 539 b 519 551 521 551 520 551 b 518 553 519 552 519 553 b 516 551 517 553 516 552 b 513 550 516 550 514 550 b 510 553 511 550 510 551 l 510 558 l 532 561 b 542 563 533 562 536 563 l 546 563 b 553 556 550 561 552 559 b 558 551 554 554 556 552 l 565 549 b 574 540 570 547 573 544 b 575 526 575 535 575 531 b 569 511 575 519 573 514 b 563 504 565 508 563 506 l 563 503 l 564 503 b 572 506 567 504 569 505 b 578 510 574 508 576 509 b 583 525 581 513 583 519 l 585 539 b 586 550 586 540 586 544 b 585 554 586 552 586 553 b 583 558 584 555 583 556 l 583 571 l 578 574 l 575 576 l 572 579 b 556 596 565 583 559 588 b 544 606 553 599 549 602 b 529 618 540 610 535 614 b 517 625 527 619 523 621 b 504 633 510 629 506 631 l 501 635 b 496 672 501 645 500 657 b 475 701 492 686 485 696 l 474 702 b 471 704 473 703 472 703 b 479 735 473 715 475 726 b 497 758 483 745 489 753 b 510 767 499 760 503 763 b 524 776 517 772 522 775 l 529 782 b 532 789 531 784 532 786 b 528 790 532 790 531 790 b 519 790 525 790 522 790 b 513 789 517 789 514 789 b 492 810 500 789 493 796 l 492 831 b 488 839 492 836 490 839 b 484 833 486 839 484 837 l 483 826 l 483 819 b 482 815 483 818 483 816 b 479 804 481 813 480 810 b 478 793 478 799 478 795 b 469 751 476 780 473 766 b 451 710 465 737 459 723 l 450 710 b 447 713 448 710 447 711 b 444 719 447 715 446 718 b 439 722 444 720 442 721 b 435 725 436 722 435 723 l 435 763 b 436 767 436 763 436 765 l 435 783 b 433 785 434 785 433 786 b 431 786 432 785 431 785 b 422 807 429 794 426 800 b 404 821 417 813 412 818 l 397 821 b 392 824 395 823 394 824 l 385 822 l 381 819 b 368 814 375 818 371 816 b 360 797 365 812 363 806 b 358 792 359 796 358 794 b 357 789 358 791 358 790 b 356 788 357 788 356 788 b 350 781 352 787 350 784 l 350 767 l 350 749 b 351 731 350 738 350 731 l 353 726 b 349 725 352 725 350 725 b 343 722 347 725 345 724 b 340 719 342 721 341 720 b 338 717 339 717 338 717 l 332 717 l 331 717 l 331 715 l 326 713 b 317 708 323 711 320 709 b 311 704 315 707 313 706 l 294 686 l 286 680 b 283 669 284 678 283 675 b 282 653 282 669 282 663 l 282 633 b 283 626 282 631 282 628 b 285 618 284 625 285 622 l 285 615 b 283 599 284 610 283 604 b 282 585 282 594 282 589 b 279 580 282 580 281 578 b 276 563 277 581 276 575 b 268 553 275 557 272 554 b 263 540 264 553 263 549 l 263 528 b 265 524 263 526 264 525 b 267 521 266 524 267 523 l 271 496 b 275 491 272 494 273 492 b 279 485 277 490 278 488 b 282 475 281 475 282 472 l 282 468 l 282 465 l 283 467 b 286 461 285 465 286 463 b 288 456 286 458 287 456 b 294 451 289 455 291 453 b 300 447 296 448 298 447 b 304 449 303 447 304 448 b 313 441 307 447 310 444 b 317 429 315 438 317 434 l 319 397 l 319 374 l 318 367 b 314 358 317 367 316 364 b 310 344 312 352 311 347 b 301 333 307 340 304 336 b 293 319 297 329 295 325 l 292 319 b 292 317 292 318 292 318 l 275 264 b 274 262 275 263 275 262 b 274 260 274 261 274 261 l 268 243 b 267 240 267 242 267 241 l 267 239 l 267 238 b 271 235 267 236 268 235 l 274 238 l 300 315 b 304 321 300 319 301 321 b 311 315 309 321 311 319 b 306 300 309 311 307 306 b 300 285 304 294 302 289 b 297 278 299 283 298 281 b 294 269 295 276 294 273 l 282 232 l 283 229 b 285 231 284 229 285 230 b 286 235 285 232 285 234 l 318 308 b 319 318 319 309 319 313 l 319 342 l 321 357 l 325 358 b 328 363 325 360 326 362 l 331 364 l 331 369 b 332 367 331 369 332 369 l 332 357 b 346 331 333 346 338 337 l 349 313 l 332 301 l 332 282 l 332 275 b 333 269 332 272 332 270 l 336 265 l 336 260 l 337 258 b 338 256 337 257 338 256 l 339 251 b 340 242 339 250 339 247 b 343 239 341 238 342 237 l 346 235 l 350 232 b 357 229 353 232 355 231 z m 310 504 l 311 544 b 313 552 312 547 313 550 b 317 560 314 554 315 557 b 319 556 319 558 319 556 l 319 553 b 322 537 320 548 321 543 b 329 521 322 531 325 525 b 324 507 329 514 328 510 b 319 499 321 504 319 501 l 319 494 l 318 494 b 317 492 317 494 317 494 b 318 485 317 490 317 488 b 318 482 319 482 319 481 l 318 472 l 317 472 l 317 467 b 311 482 313 470 311 475 l 311 483 b 313 486 311 485 312 486 l 313 499 b 311 500 313 500 312 500 b 310 503 311 501 311 502 z m 508 335 b 509 337 508 336 509 336 l 510 338 b 511 345 510 339 510 342 b 514 353 512 348 513 351 l 515 353 b 521 337 518 348 520 343 b 522 321 522 331 522 325 l 522 311 l 521 311 b 515 317 517 311 515 313 l 513 317 b 510 328 511 319 510 322 z m 501 358 l 501 363 l 508 364 l 508 361 b 506 353 508 357 507 355 b 501 358 503 354 501 356 z "},"Ó":{"ha":835,"x_min":0,"x_max":0,"o":"m 394 1208 l 572 1208 l 485 1028 l 318 1028 z m 538 0 l 297 0 b 201 31 256 0 224 10 b 168 125 179 52 168 83 l 168 853 b 201 947 168 894 179 926 b 297 978 224 967 256 978 l 538 978 b 633 947 579 978 611 967 b 667 853 656 926 667 894 l 667 125 b 633 31 667 83 656 52 b 538 0 611 10 579 0 z m 357 229 b 359 216 357 227 358 223 b 363 200 360 209 362 204 b 369 178 365 196 368 189 l 369 172 b 371 165 369 169 370 166 l 375 154 l 429 154 l 429 158 b 432 182 430 169 431 176 b 436 203 433 188 434 194 b 438 208 436 206 437 208 b 441 216 438 211 440 214 b 444 225 442 218 444 221 l 446 228 b 449 232 447 231 448 232 l 451 232 b 458 242 456 235 458 238 l 459 245 l 461 256 l 461 257 b 466 255 463 257 465 256 l 468 253 b 465 244 468 249 467 246 b 463 239 463 243 463 241 l 467 243 l 472 239 b 481 249 474 239 477 242 b 485 243 481 245 482 243 b 488 244 487 243 488 244 l 488 243 l 494 243 l 501 233 b 506 218 504 231 506 225 b 508 214 507 218 508 217 l 511 214 l 513 214 l 513 215 b 510 218 511 215 510 216 l 510 225 l 515 235 b 517 232 516 235 517 234 b 519 231 517 231 518 231 l 526 235 b 528 232 527 235 528 234 l 533 232 b 536 233 535 232 536 232 l 536 235 l 536 239 l 536 240 b 538 243 537 240 538 241 b 533 245 536 245 534 246 b 528 249 532 245 531 246 l 529 251 b 530 252 530 251 530 252 l 529 253 b 534 255 533 253 534 253 b 538 258 534 256 535 257 b 539 258 538 259 538 259 l 540 257 l 540 256 b 542 259 541 256 542 258 b 546 261 543 260 544 261 b 549 259 548 261 549 260 l 550 257 l 551 258 b 553 260 552 258 553 259 b 551 262 553 261 552 261 b 550 265 550 262 550 263 b 547 272 549 266 548 269 b 546 279 546 276 546 278 b 549 289 548 281 549 284 b 544 302 549 294 547 298 b 539 314 542 306 540 310 l 539 315 l 544 311 l 543 326 b 544 331 543 328 543 330 b 544 333 544 331 544 332 l 544 336 l 540 344 b 533 361 538 351 536 356 b 529 371 531 366 529 369 b 521 383 529 377 526 381 b 509 403 516 391 512 397 b 499 422 506 408 502 415 b 494 447 497 434 495 442 b 492 449 492 451 492 451 b 475 494 484 464 479 480 b 461 543 471 509 467 525 l 461 549 b 467 551 461 550 463 551 l 468 551 b 474 543 468 550 470 547 b 475 535 475 542 475 539 b 483 517 475 528 478 522 l 506 472 l 506 472 b 507 469 507 471 507 470 l 506 468 l 506 460 b 505 446 506 458 505 453 b 501 431 504 438 503 433 l 501 429 b 507 424 501 425 503 424 b 510 428 506 424 507 425 l 513 431 l 508 414 l 510 404 b 514 412 512 407 513 409 b 518 418 515 414 516 416 b 526 430 521 423 523 427 b 536 440 528 433 531 437 l 536 446 b 534 456 536 450 535 453 b 532 468 533 459 532 463 b 533 472 532 470 532 471 b 533 474 533 472 533 473 l 532 482 b 528 516 532 493 531 504 b 521 550 525 528 523 539 b 519 551 521 551 520 551 b 518 553 519 552 519 553 b 516 551 517 553 516 552 b 513 550 516 550 514 550 b 510 553 511 550 510 551 l 510 558 l 532 561 b 542 563 533 562 536 563 l 546 563 b 553 556 550 561 552 559 b 558 551 554 554 556 552 l 565 549 b 574 540 570 547 573 544 b 575 526 575 535 575 531 b 569 511 575 519 573 514 b 563 504 565 508 563 506 l 563 503 l 564 503 b 572 506 567 504 569 505 b 578 510 574 508 576 509 b 583 525 581 513 583 519 l 585 539 b 586 550 586 540 586 544 b 585 554 586 552 586 553 b 583 558 584 555 583 556 l 583 571 l 578 574 l 575 576 l 572 579 b 556 596 565 583 559 588 b 544 606 553 599 549 602 b 529 618 540 610 535 614 b 517 625 527 619 523 621 b 504 633 510 629 506 631 l 501 635 b 496 672 501 645 500 657 b 475 701 492 686 485 696 l 474 702 b 471 704 473 703 472 703 b 479 735 473 715 475 726 b 497 758 483 745 489 753 b 510 767 499 760 503 763 b 524 776 517 772 522 775 l 529 782 b 532 789 531 784 532 786 b 528 790 532 790 531 790 b 519 790 525 790 522 790 b 513 789 517 789 514 789 b 492 810 500 789 493 796 l 492 831 b 488 839 492 836 490 839 b 484 833 486 839 484 837 l 483 826 l 483 819 b 482 815 483 818 483 816 b 479 804 481 813 480 810 b 478 793 478 799 478 795 b 469 751 476 780 473 766 b 451 710 465 737 459 723 l 450 710 b 447 713 448 710 447 711 b 444 719 447 715 446 718 b 439 722 444 720 442 721 b 435 725 436 722 435 723 l 435 763 b 436 767 436 763 436 765 l 435 783 b 433 785 434 785 433 786 b 431 786 432 785 431 785 b 422 807 429 794 426 800 b 404 821 417 813 412 818 l 397 821 b 392 824 395 823 394 824 l 385 822 l 381 819 b 368 814 375 818 371 816 b 360 797 365 812 363 806 b 358 792 359 796 358 794 b 357 789 358 791 358 790 b 356 788 357 788 356 788 b 350 781 352 787 350 784 l 350 767 l 350 749 b 351 731 350 738 350 731 l 353 726 b 349 725 352 725 350 725 b 343 722 347 725 345 724 b 340 719 342 721 341 720 b 338 717 339 717 338 717 l 332 717 l 331 717 l 331 715 l 326 713 b 317 708 323 711 320 709 b 311 704 315 707 313 706 l 294 686 l 286 680 b 283 669 284 678 283 675 b 282 653 282 669 282 663 l 282 633 b 283 626 282 631 282 628 b 285 618 284 625 285 622 l 285 615 b 283 599 284 610 283 604 b 282 585 282 594 282 589 b 279 580 282 580 281 578 b 276 563 277 581 276 575 b 268 553 275 557 272 554 b 263 540 264 553 263 549 l 263 528 b 265 524 263 526 264 525 b 267 521 266 524 267 523 l 271 496 b 275 491 272 494 273 492 b 279 485 277 490 278 488 b 282 475 281 475 282 472 l 282 468 l 282 465 l 283 467 b 286 461 285 465 286 463 b 288 456 286 458 287 456 b 294 451 289 455 291 453 b 300 447 296 448 298 447 b 304 449 303 447 304 448 b 313 441 307 447 310 444 b 317 429 315 438 317 434 l 319 397 l 319 374 l 318 367 b 314 358 317 367 316 364 b 310 344 312 352 311 347 b 301 333 307 340 304 336 b 293 319 297 329 295 325 l 292 319 b 292 317 292 318 292 318 l 275 264 b 274 262 275 263 275 262 b 274 260 274 261 274 261 l 268 243 b 267 240 267 242 267 241 l 267 239 l 267 238 b 271 235 267 236 268 235 l 274 238 l 300 315 b 304 321 300 319 301 321 b 311 315 309 321 311 319 b 306 300 309 311 307 306 b 300 285 304 294 302 289 b 297 278 299 283 298 281 b 294 269 295 276 294 273 l 282 232 l 283 229 b 285 231 284 229 285 230 b 286 235 285 232 285 234 l 318 308 b 319 318 319 309 319 313 l 319 342 l 321 357 l 325 358 b 328 363 325 360 326 362 l 331 364 l 331 369 b 332 367 331 369 332 369 l 332 357 b 346 331 333 346 338 337 l 349 313 l 332 301 l 332 282 l 332 275 b 333 269 332 272 332 270 l 336 265 l 336 260 l 337 258 b 338 256 337 257 338 256 l 339 251 b 340 242 339 250 339 247 b 343 239 341 238 342 237 l 346 235 l 350 232 b 357 229 353 232 355 231 z m 310 504 l 311 544 b 313 552 312 547 313 550 b 317 560 314 554 315 557 b 319 556 319 558 319 556 l 319 553 b 322 537 320 548 321 543 b 329 521 322 531 325 525 b 324 507 329 514 328 510 b 319 499 321 504 319 501 l 319 494 l 318 494 b 317 492 317 494 317 494 b 318 485 317 490 317 488 b 318 482 319 482 319 481 l 318 472 l 317 472 l 317 467 b 311 482 313 470 311 475 l 311 483 b 313 486 311 485 312 486 l 313 499 b 311 500 313 500 312 500 b 310 503 311 501 311 502 z m 508 335 b 509 337 508 336 509 336 l 510 338 b 511 345 510 339 510 342 b 514 353 512 348 513 351 l 515 353 b 521 337 518 348 520 343 b 522 321 522 331 522 325 l 522 311 l 521 311 b 515 317 517 311 515 313 l 513 317 b 510 328 511 319 510 322 z m 501 358 l 501 363 l 508 364 l 508 361 b 506 353 508 357 507 355 b 501 358 503 354 501 356 z "},"Ô":{"ha":835,"x_min":0,"x_max":0,"o":"m 299 1208 l 536 1208 l 618 1028 l 451 1028 l 417 1099 l 383 1028 l 217 1028 z m 538 0 l 297 0 b 201 31 256 0 224 10 b 168 125 179 52 168 83 l 168 853 b 201 947 168 894 179 926 b 297 978 224 967 256 978 l 538 978 b 633 947 579 978 611 967 b 667 853 656 926 667 894 l 667 125 b 633 31 667 83 656 52 b 538 0 611 10 579 0 z m 357 229 b 359 216 357 227 358 223 b 363 200 360 209 362 204 b 369 178 365 196 368 189 l 369 172 b 371 165 369 169 370 166 l 375 154 l 429 154 l 429 158 b 432 182 430 169 431 176 b 436 203 433 188 434 194 b 438 208 436 206 437 208 b 441 216 438 211 440 214 b 444 225 442 218 444 221 l 446 228 b 449 232 447 231 448 232 l 451 232 b 458 242 456 235 458 238 l 459 245 l 461 256 l 461 257 b 466 255 463 257 465 256 l 468 253 b 465 244 468 249 467 246 b 463 239 463 243 463 241 l 467 243 l 472 239 b 481 249 474 239 477 242 b 485 243 481 245 482 243 b 488 244 487 243 488 244 l 488 243 l 494 243 l 501 233 b 506 218 504 231 506 225 b 508 214 507 218 508 217 l 511 214 l 513 214 l 513 215 b 510 218 511 215 510 216 l 510 225 l 515 235 b 517 232 516 235 517 234 b 519 231 517 231 518 231 l 526 235 b 528 232 527 235 528 234 l 533 232 b 536 233 535 232 536 232 l 536 235 l 536 239 l 536 240 b 538 243 537 240 538 241 b 533 245 536 245 534 246 b 528 249 532 245 531 246 l 529 251 b 530 252 530 251 530 252 l 529 253 b 534 255 533 253 534 253 b 538 258 534 256 535 257 b 539 258 538 259 538 259 l 540 257 l 540 256 b 542 259 541 256 542 258 b 546 261 543 260 544 261 b 549 259 548 261 549 260 l 550 257 l 551 258 b 553 260 552 258 553 259 b 551 262 553 261 552 261 b 550 265 550 262 550 263 b 547 272 549 266 548 269 b 546 279 546 276 546 278 b 549 289 548 281 549 284 b 544 302 549 294 547 298 b 539 314 542 306 540 310 l 539 315 l 544 311 l 543 326 b 544 331 543 328 543 330 b 544 333 544 331 544 332 l 544 336 l 540 344 b 533 361 538 351 536 356 b 529 371 531 366 529 369 b 521 383 529 377 526 381 b 509 403 516 391 512 397 b 499 422 506 408 502 415 b 494 447 497 434 495 442 b 492 449 492 451 492 451 b 475 494 484 464 479 480 b 461 543 471 509 467 525 l 461 549 b 467 551 461 550 463 551 l 468 551 b 474 543 468 550 470 547 b 475 535 475 542 475 539 b 483 517 475 528 478 522 l 506 472 l 506 472 b 507 469 507 471 507 470 l 506 468 l 506 460 b 505 446 506 458 505 453 b 501 431 504 438 503 433 l 501 429 b 507 424 501 425 503 424 b 510 428 506 424 507 425 l 513 431 l 508 414 l 510 404 b 514 412 512 407 513 409 b 518 418 515 414 516 416 b 526 430 521 423 523 427 b 536 440 528 433 531 437 l 536 446 b 534 456 536 450 535 453 b 532 468 533 459 532 463 b 533 472 532 470 532 471 b 533 474 533 472 533 473 l 532 482 b 528 516 532 493 531 504 b 521 550 525 528 523 539 b 519 551 521 551 520 551 b 518 553 519 552 519 553 b 516 551 517 553 516 552 b 513 550 516 550 514 550 b 510 553 511 550 510 551 l 510 558 l 532 561 b 542 563 533 562 536 563 l 546 563 b 553 556 550 561 552 559 b 558 551 554 554 556 552 l 565 549 b 574 540 570 547 573 544 b 575 526 575 535 575 531 b 569 511 575 519 573 514 b 563 504 565 508 563 506 l 563 503 l 564 503 b 572 506 567 504 569 505 b 578 510 574 508 576 509 b 583 525 581 513 583 519 l 585 539 b 586 550 586 540 586 544 b 585 554 586 552 586 553 b 583 558 584 555 583 556 l 583 571 l 578 574 l 575 576 l 572 579 b 556 596 565 583 559 588 b 544 606 553 599 549 602 b 529 618 540 610 535 614 b 517 625 527 619 523 621 b 504 633 510 629 506 631 l 501 635 b 496 672 501 645 500 657 b 475 701 492 686 485 696 l 474 702 b 471 704 473 703 472 703 b 479 735 473 715 475 726 b 497 758 483 745 489 753 b 510 767 499 760 503 763 b 524 776 517 772 522 775 l 529 782 b 532 789 531 784 532 786 b 528 790 532 790 531 790 b 519 790 525 790 522 790 b 513 789 517 789 514 789 b 492 810 500 789 493 796 l 492 831 b 488 839 492 836 490 839 b 484 833 486 839 484 837 l 483 826 l 483 819 b 482 815 483 818 483 816 b 479 804 481 813 480 810 b 478 793 478 799 478 795 b 469 751 476 780 473 766 b 451 710 465 737 459 723 l 450 710 b 447 713 448 710 447 711 b 444 719 447 715 446 718 b 439 722 444 720 442 721 b 435 725 436 722 435 723 l 435 763 b 436 767 436 763 436 765 l 435 783 b 433 785 434 785 433 786 b 431 786 432 785 431 785 b 422 807 429 794 426 800 b 404 821 417 813 412 818 l 397 821 b 392 824 395 823 394 824 l 385 822 l 381 819 b 368 814 375 818 371 816 b 360 797 365 812 363 806 b 358 792 359 796 358 794 b 357 789 358 791 358 790 b 356 788 357 788 356 788 b 350 781 352 787 350 784 l 350 767 l 350 749 b 351 731 350 738 350 731 l 353 726 b 349 725 352 725 350 725 b 343 722 347 725 345 724 b 340 719 342 721 341 720 b 338 717 339 717 338 717 l 332 717 l 331 717 l 331 715 l 326 713 b 317 708 323 711 320 709 b 311 704 315 707 313 706 l 294 686 l 286 680 b 283 669 284 678 283 675 b 282 653 282 669 282 663 l 282 633 b 283 626 282 631 282 628 b 285 618 284 625 285 622 l 285 615 b 283 599 284 610 283 604 b 282 585 282 594 282 589 b 279 580 282 580 281 578 b 276 563 277 581 276 575 b 268 553 275 557 272 554 b 263 540 264 553 263 549 l 263 528 b 265 524 263 526 264 525 b 267 521 266 524 267 523 l 271 496 b 275 491 272 494 273 492 b 279 485 277 490 278 488 b 282 475 281 475 282 472 l 282 468 l 282 465 l 283 467 b 286 461 285 465 286 463 b 288 456 286 458 287 456 b 294 451 289 455 291 453 b 300 447 296 448 298 447 b 304 449 303 447 304 448 b 313 441 307 447 310 444 b 317 429 315 438 317 434 l 319 397 l 319 374 l 318 367 b 314 358 317 367 316 364 b 310 344 312 352 311 347 b 301 333 307 340 304 336 b 293 319 297 329 295 325 l 292 319 b 292 317 292 318 292 318 l 275 264 b 274 262 275 263 275 262 b 274 260 274 261 274 261 l 268 243 b 267 240 267 242 267 241 l 267 239 l 267 238 b 271 235 267 236 268 235 l 274 238 l 300 315 b 304 321 300 319 301 321 b 311 315 309 321 311 319 b 306 300 309 311 307 306 b 300 285 304 294 302 289 b 297 278 299 283 298 281 b 294 269 295 276 294 273 l 282 232 l 283 229 b 285 231 284 229 285 230 b 286 235 285 232 285 234 l 318 308 b 319 318 319 309 319 313 l 319 342 l 321 357 l 325 358 b 328 363 325 360 326 362 l 331 364 l 331 369 b 332 367 331 369 332 369 l 332 357 b 346 331 333 346 338 337 l 349 313 l 332 301 l 332 282 l 332 275 b 333 269 332 272 332 270 l 336 265 l 336 260 l 337 258 b 338 256 337 257 338 256 l 339 251 b 340 242 339 250 339 247 b 343 239 341 238 342 237 l 346 235 l 350 232 b 357 229 353 232 355 231 z m 310 504 l 311 544 b 313 552 312 547 313 550 b 317 560 314 554 315 557 b 319 556 319 558 319 556 l 319 553 b 322 537 320 548 321 543 b 329 521 322 531 325 525 b 324 507 329 514 328 510 b 319 499 321 504 319 501 l 319 494 l 318 494 b 317 492 317 494 317 494 b 318 485 317 490 317 488 b 318 482 319 482 319 481 l 318 472 l 317 472 l 317 467 b 311 482 313 470 311 475 l 311 483 b 313 486 311 485 312 486 l 313 499 b 311 500 313 500 312 500 b 310 503 311 501 311 502 z m 508 335 b 509 337 508 336 509 336 l 510 338 b 511 345 510 339 510 342 b 514 353 512 348 513 351 l 515 353 b 521 337 518 348 520 343 b 522 321 522 331 522 325 l 522 311 l 521 311 b 515 317 517 311 515 313 l 513 317 b 510 328 511 319 510 322 z m 501 358 l 501 363 l 508 364 l 508 361 b 506 353 508 357 507 355 b 501 358 503 354 501 356 z "},"Õ":{"ha":835,"x_min":0,"x_max":0,"o":"m 542 1028 l 376 1028 l 343 1099 l 311 1028 l 211 1028 l 293 1208 l 460 1208 l 492 1138 l 524 1208 l 624 1208 z m 538 0 l 297 0 b 201 31 256 0 224 10 b 168 125 179 52 168 83 l 168 853 b 201 947 168 894 179 926 b 297 978 224 967 256 978 l 538 978 b 633 947 579 978 611 967 b 667 853 656 926 667 894 l 667 125 b 633 31 667 83 656 52 b 538 0 611 10 579 0 z m 357 229 b 359 216 357 227 358 223 b 363 200 360 209 362 204 b 369 178 365 196 368 189 l 369 172 b 371 165 369 169 370 166 l 375 154 l 429 154 l 429 158 b 432 182 430 169 431 176 b 436 203 433 188 434 194 b 438 208 436 206 437 208 b 441 216 438 211 440 214 b 444 225 442 218 444 221 l 446 228 b 449 232 447 231 448 232 l 451 232 b 458 242 456 235 458 238 l 459 245 l 461 256 l 461 257 b 466 255 463 257 465 256 l 468 253 b 465 244 468 249 467 246 b 463 239 463 243 463 241 l 467 243 l 472 239 b 481 249 474 239 477 242 b 485 243 481 245 482 243 b 488 244 487 243 488 244 l 488 243 l 494 243 l 501 233 b 506 218 504 231 506 225 b 508 214 507 218 508 217 l 511 214 l 513 214 l 513 215 b 510 218 511 215 510 216 l 510 225 l 515 235 b 517 232 516 235 517 234 b 519 231 517 231 518 231 l 526 235 b 528 232 527 235 528 234 l 533 232 b 536 233 535 232 536 232 l 536 235 l 536 239 l 536 240 b 538 243 537 240 538 241 b 533 245 536 245 534 246 b 528 249 532 245 531 246 l 529 251 b 530 252 530 251 530 252 l 529 253 b 534 255 533 253 534 253 b 538 258 534 256 535 257 b 539 258 538 259 538 259 l 540 257 l 540 256 b 542 259 541 256 542 258 b 546 261 543 260 544 261 b 549 259 548 261 549 260 l 550 257 l 551 258 b 553 260 552 258 553 259 b 551 262 553 261 552 261 b 550 265 550 262 550 263 b 547 272 549 266 548 269 b 546 279 546 276 546 278 b 549 289 548 281 549 284 b 544 302 549 294 547 298 b 539 314 542 306 540 310 l 539 315 l 544 311 l 543 326 b 544 331 543 328 543 330 b 544 333 544 331 544 332 l 544 336 l 540 344 b 533 361 538 351 536 356 b 529 371 531 366 529 369 b 521 383 529 377 526 381 b 509 403 516 391 512 397 b 499 422 506 408 502 415 b 494 447 497 434 495 442 b 492 449 492 451 492 451 b 475 494 484 464 479 480 b 461 543 471 509 467 525 l 461 549 b 467 551 461 550 463 551 l 468 551 b 474 543 468 550 470 547 b 475 535 475 542 475 539 b 483 517 475 528 478 522 l 506 472 l 506 472 b 507 469 507 471 507 470 l 506 468 l 506 460 b 505 446 506 458 505 453 b 501 431 504 438 503 433 l 501 429 b 507 424 501 425 503 424 b 510 428 506 424 507 425 l 513 431 l 508 414 l 510 404 b 514 412 512 407 513 409 b 518 418 515 414 516 416 b 526 430 521 423 523 427 b 536 440 528 433 531 437 l 536 446 b 534 456 536 450 535 453 b 532 468 533 459 532 463 b 533 472 532 470 532 471 b 533 474 533 472 533 473 l 532 482 b 528 516 532 493 531 504 b 521 550 525 528 523 539 b 519 551 521 551 520 551 b 518 553 519 552 519 553 b 516 551 517 553 516 552 b 513 550 516 550 514 550 b 510 553 511 550 510 551 l 510 558 l 532 561 b 542 563 533 562 536 563 l 546 563 b 553 556 550 561 552 559 b 558 551 554 554 556 552 l 565 549 b 574 540 570 547 573 544 b 575 526 575 535 575 531 b 569 511 575 519 573 514 b 563 504 565 508 563 506 l 563 503 l 564 503 b 572 506 567 504 569 505 b 578 510 574 508 576 509 b 583 525 581 513 583 519 l 585 539 b 586 550 586 540 586 544 b 585 554 586 552 586 553 b 583 558 584 555 583 556 l 583 571 l 578 574 l 575 576 l 572 579 b 556 596 565 583 559 588 b 544 606 553 599 549 602 b 529 618 540 610 535 614 b 517 625 527 619 523 621 b 504 633 510 629 506 631 l 501 635 b 496 672 501 645 500 657 b 475 701 492 686 485 696 l 474 702 b 471 704 473 703 472 703 b 479 735 473 715 475 726 b 497 758 483 745 489 753 b 510 767 499 760 503 763 b 524 776 517 772 522 775 l 529 782 b 532 789 531 784 532 786 b 528 790 532 790 531 790 b 519 790 525 790 522 790 b 513 789 517 789 514 789 b 492 810 500 789 493 796 l 492 831 b 488 839 492 836 490 839 b 484 833 486 839 484 837 l 483 826 l 483 819 b 482 815 483 818 483 816 b 479 804 481 813 480 810 b 478 793 478 799 478 795 b 469 751 476 780 473 766 b 451 710 465 737 459 723 l 450 710 b 447 713 448 710 447 711 b 444 719 447 715 446 718 b 439 722 444 720 442 721 b 435 725 436 722 435 723 l 435 763 b 436 767 436 763 436 765 l 435 783 b 433 785 434 785 433 786 b 431 786 432 785 431 785 b 422 807 429 794 426 800 b 404 821 417 813 412 818 l 397 821 b 392 824 395 823 394 824 l 385 822 l 381 819 b 368 814 375 818 371 816 b 360 797 365 812 363 806 b 358 792 359 796 358 794 b 357 789 358 791 358 790 b 356 788 357 788 356 788 b 350 781 352 787 350 784 l 350 767 l 350 749 b 351 731 350 738 350 731 l 353 726 b 349 725 352 725 350 725 b 343 722 347 725 345 724 b 340 719 342 721 341 720 b 338 717 339 717 338 717 l 332 717 l 331 717 l 331 715 l 326 713 b 317 708 323 711 320 709 b 311 704 315 707 313 706 l 294 686 l 286 680 b 283 669 284 678 283 675 b 282 653 282 669 282 663 l 282 633 b 283 626 282 631 282 628 b 285 618 284 625 285 622 l 285 615 b 283 599 284 610 283 604 b 282 585 282 594 282 589 b 279 580 282 580 281 578 b 276 563 277 581 276 575 b 268 553 275 557 272 554 b 263 540 264 553 263 549 l 263 528 b 265 524 263 526 264 525 b 267 521 266 524 267 523 l 271 496 b 275 491 272 494 273 492 b 279 485 277 490 278 488 b 282 475 281 475 282 472 l 282 468 l 282 465 l 283 467 b 286 461 285 465 286 463 b 288 456 286 458 287 456 b 294 451 289 455 291 453 b 300 447 296 448 298 447 b 304 449 303 447 304 448 b 313 441 307 447 310 444 b 317 429 315 438 317 434 l 319 397 l 319 374 l 318 367 b 314 358 317 367 316 364 b 310 344 312 352 311 347 b 301 333 307 340 304 336 b 293 319 297 329 295 325 l 292 319 b 292 317 292 318 292 318 l 275 264 b 274 262 275 263 275 262 b 274 260 274 261 274 261 l 268 243 b 267 240 267 242 267 241 l 267 239 l 267 238 b 271 235 267 236 268 235 l 274 238 l 300 315 b 304 321 300 319 301 321 b 311 315 309 321 311 319 b 306 300 309 311 307 306 b 300 285 304 294 302 289 b 297 278 299 283 298 281 b 294 269 295 276 294 273 l 282 232 l 283 229 b 285 231 284 229 285 230 b 286 235 285 232 285 234 l 318 308 b 319 318 319 309 319 313 l 319 342 l 321 357 l 325 358 b 328 363 325 360 326 362 l 331 364 l 331 369 b 332 367 331 369 332 369 l 332 357 b 346 331 333 346 338 337 l 349 313 l 332 301 l 332 282 l 332 275 b 333 269 332 272 332 270 l 336 265 l 336 260 l 337 258 b 338 256 337 257 338 256 l 339 251 b 340 242 339 250 339 247 b 343 239 341 238 342 237 l 346 235 l 350 232 b 357 229 353 232 355 231 z m 310 504 l 311 544 b 313 552 312 547 313 550 b 317 560 314 554 315 557 b 319 556 319 558 319 556 l 319 553 b 322 537 320 548 321 543 b 329 521 322 531 325 525 b 324 507 329 514 328 510 b 319 499 321 504 319 501 l 319 494 l 318 494 b 317 492 317 494 317 494 b 318 485 317 490 317 488 b 318 482 319 482 319 481 l 318 472 l 317 472 l 317 467 b 311 482 313 470 311 475 l 311 483 b 313 486 311 485 312 486 l 313 499 b 311 500 313 500 312 500 b 310 503 311 501 311 502 z m 508 335 b 509 337 508 336 509 336 l 510 338 b 511 345 510 339 510 342 b 514 353 512 348 513 351 l 515 353 b 521 337 518 348 520 343 b 522 321 522 331 522 325 l 522 311 l 521 311 b 515 317 517 311 515 313 l 513 317 b 510 328 511 319 510 322 z m 501 358 l 501 363 l 508 364 l 508 361 b 506 353 508 357 507 355 b 501 358 503 354 501 356 z "},"Ö":{"ha":835,"x_min":0,"x_max":0,"o":"m 219 1208 l 397 1208 l 397 1028 l 219 1028 z m 438 1208 l 615 1208 l 615 1028 l 438 1028 z m 538 0 l 297 0 b 201 31 256 0 224 10 b 168 125 179 52 168 83 l 168 853 b 201 947 168 894 179 926 b 297 978 224 967 256 978 l 538 978 b 633 947 579 978 611 967 b 667 853 656 926 667 894 l 667 125 b 633 31 667 83 656 52 b 538 0 611 10 579 0 z m 357 229 b 359 216 357 227 358 223 b 363 200 360 209 362 204 b 369 178 365 196 368 189 l 369 172 b 371 165 369 169 370 166 l 375 154 l 429 154 l 429 158 b 432 182 430 169 431 176 b 436 203 433 188 434 194 b 438 208 436 206 437 208 b 441 216 438 211 440 214 b 444 225 442 218 444 221 l 446 228 b 449 232 447 231 448 232 l 451 232 b 458 242 456 235 458 238 l 459 245 l 461 256 l 461 257 b 466 255 463 257 465 256 l 468 253 b 465 244 468 249 467 246 b 463 239 463 243 463 241 l 467 243 l 472 239 b 481 249 474 239 477 242 b 485 243 481 245 482 243 b 488 244 487 243 488 244 l 488 243 l 494 243 l 501 233 b 506 218 504 231 506 225 b 508 214 507 218 508 217 l 511 214 l 513 214 l 513 215 b 510 218 511 215 510 216 l 510 225 l 515 235 b 517 232 516 235 517 234 b 519 231 517 231 518 231 l 526 235 b 528 232 527 235 528 234 l 533 232 b 536 233 535 232 536 232 l 536 235 l 536 239 l 536 240 b 538 243 537 240 538 241 b 533 245 536 245 534 246 b 528 249 532 245 531 246 l 529 251 b 530 252 530 251 530 252 l 529 253 b 534 255 533 253 534 253 b 538 258 534 256 535 257 b 539 258 538 259 538 259 l 540 257 l 540 256 b 542 259 541 256 542 258 b 546 261 543 260 544 261 b 549 259 548 261 549 260 l 550 257 l 551 258 b 553 260 552 258 553 259 b 551 262 553 261 552 261 b 550 265 550 262 550 263 b 547 272 549 266 548 269 b 546 279 546 276 546 278 b 549 289 548 281 549 284 b 544 302 549 294 547 298 b 539 314 542 306 540 310 l 539 315 l 544 311 l 543 326 b 544 331 543 328 543 330 b 544 333 544 331 544 332 l 544 336 l 540 344 b 533 361 538 351 536 356 b 529 371 531 366 529 369 b 521 383 529 377 526 381 b 509 403 516 391 512 397 b 499 422 506 408 502 415 b 494 447 497 434 495 442 b 492 449 492 451 492 451 b 475 494 484 464 479 480 b 461 543 471 509 467 525 l 461 549 b 467 551 461 550 463 551 l 468 551 b 474 543 468 550 470 547 b 475 535 475 542 475 539 b 483 517 475 528 478 522 l 506 472 l 506 472 b 507 469 507 471 507 470 l 506 468 l 506 460 b 505 446 506 458 505 453 b 501 431 504 438 503 433 l 501 429 b 507 424 501 425 503 424 b 510 428 506 424 507 425 l 513 431 l 508 414 l 510 404 b 514 412 512 407 513 409 b 518 418 515 414 516 416 b 526 430 521 423 523 427 b 536 440 528 433 531 437 l 536 446 b 534 456 536 450 535 453 b 532 468 533 459 532 463 b 533 472 532 470 532 471 b 533 474 533 472 533 473 l 532 482 b 528 516 532 493 531 504 b 521 550 525 528 523 539 b 519 551 521 551 520 551 b 518 553 519 552 519 553 b 516 551 517 553 516 552 b 513 550 516 550 514 550 b 510 553 511 550 510 551 l 510 558 l 532 561 b 542 563 533 562 536 563 l 546 563 b 553 556 550 561 552 559 b 558 551 554 554 556 552 l 565 549 b 574 540 570 547 573 544 b 575 526 575 535 575 531 b 569 511 575 519 573 514 b 563 504 565 508 563 506 l 563 503 l 564 503 b 572 506 567 504 569 505 b 578 510 574 508 576 509 b 583 525 581 513 583 519 l 585 539 b 586 550 586 540 586 544 b 585 554 586 552 586 553 b 583 558 584 555 583 556 l 583 571 l 578 574 l 575 576 l 572 579 b 556 596 565 583 559 588 b 544 606 553 599 549 602 b 529 618 540 610 535 614 b 517 625 527 619 523 621 b 504 633 510 629 506 631 l 501 635 b 496 672 501 645 500 657 b 475 701 492 686 485 696 l 474 702 b 471 704 473 703 472 703 b 479 735 473 715 475 726 b 497 758 483 745 489 753 b 510 767 499 760 503 763 b 524 776 517 772 522 775 l 529 782 b 532 789 531 784 532 786 b 528 790 532 790 531 790 b 519 790 525 790 522 790 b 513 789 517 789 514 789 b 492 810 500 789 493 796 l 492 831 b 488 839 492 836 490 839 b 484 833 486 839 484 837 l 483 826 l 483 819 b 482 815 483 818 483 816 b 479 804 481 813 480 810 b 478 793 478 799 478 795 b 469 751 476 780 473 766 b 451 710 465 737 459 723 l 450 710 b 447 713 448 710 447 711 b 444 719 447 715 446 718 b 439 722 444 720 442 721 b 435 725 436 722 435 723 l 435 763 b 436 767 436 763 436 765 l 435 783 b 433 785 434 785 433 786 b 431 786 432 785 431 785 b 422 807 429 794 426 800 b 404 821 417 813 412 818 l 397 821 b 392 824 395 823 394 824 l 385 822 l 381 819 b 368 814 375 818 371 816 b 360 797 365 812 363 806 b 358 792 359 796 358 794 b 357 789 358 791 358 790 b 356 788 357 788 356 788 b 350 781 352 787 350 784 l 350 767 l 350 749 b 351 731 350 738 350 731 l 353 726 b 349 725 352 725 350 725 b 343 722 347 725 345 724 b 340 719 342 721 341 720 b 338 717 339 717 338 717 l 332 717 l 331 717 l 331 715 l 326 713 b 317 708 323 711 320 709 b 311 704 315 707 313 706 l 294 686 l 286 680 b 283 669 284 678 283 675 b 282 653 282 669 282 663 l 282 633 b 283 626 282 631 282 628 b 285 618 284 625 285 622 l 285 615 b 283 599 284 610 283 604 b 282 585 282 594 282 589 b 279 580 282 580 281 578 b 276 563 277 581 276 575 b 268 553 275 557 272 554 b 263 540 264 553 263 549 l 263 528 b 265 524 263 526 264 525 b 267 521 266 524 267 523 l 271 496 b 275 491 272 494 273 492 b 279 485 277 490 278 488 b 282 475 281 475 282 472 l 282 468 l 282 465 l 283 467 b 286 461 285 465 286 463 b 288 456 286 458 287 456 b 294 451 289 455 291 453 b 300 447 296 448 298 447 b 304 449 303 447 304 448 b 313 441 307 447 310 444 b 317 429 315 438 317 434 l 319 397 l 319 374 l 318 367 b 314 358 317 367 316 364 b 310 344 312 352 311 347 b 301 333 307 340 304 336 b 293 319 297 329 295 325 l 292 319 b 292 317 292 318 292 318 l 275 264 b 274 262 275 263 275 262 b 274 260 274 261 274 261 l 268 243 b 267 240 267 242 267 241 l 267 239 l 267 238 b 271 235 267 236 268 235 l 274 238 l 300 315 b 304 321 300 319 301 321 b 311 315 309 321 311 319 b 306 300 309 311 307 306 b 300 285 304 294 302 289 b 297 278 299 283 298 281 b 294 269 295 276 294 273 l 282 232 l 283 229 b 285 231 284 229 285 230 b 286 235 285 232 285 234 l 318 308 b 319 318 319 309 319 313 l 319 342 l 321 357 l 325 358 b 328 363 325 360 326 362 l 331 364 l 331 369 b 332 367 331 369 332 369 l 332 357 b 346 331 333 346 338 337 l 349 313 l 332 301 l 332 282 l 332 275 b 333 269 332 272 332 270 l 336 265 l 336 260 l 337 258 b 338 256 337 257 338 256 l 339 251 b 340 242 339 250 339 247 b 343 239 341 238 342 237 l 346 235 l 350 232 b 357 229 353 232 355 231 z m 310 504 l 311 544 b 313 552 312 547 313 550 b 317 560 314 554 315 557 b 319 556 319 558 319 556 l 319 553 b 322 537 320 548 321 543 b 329 521 322 531 325 525 b 324 507 329 514 328 510 b 319 499 321 504 319 501 l 319 494 l 318 494 b 317 492 317 494 317 494 b 318 485 317 490 317 488 b 318 482 319 482 319 481 l 318 472 l 317 472 l 317 467 b 311 482 313 470 311 475 l 311 483 b 313 486 311 485 312 486 l 313 499 b 311 500 313 500 312 500 b 310 503 311 501 311 502 z m 508 335 b 509 337 508 336 509 336 l 510 338 b 511 345 510 339 510 342 b 514 353 512 348 513 351 l 515 353 b 521 337 518 348 520 343 b 522 321 522 331 522 325 l 522 311 l 521 311 b 515 317 517 311 515 313 l 513 317 b 510 328 511 319 510 322 z m 501 358 l 501 363 l 508 364 l 508 361 b 506 353 508 357 507 355 b 501 358 503 354 501 356 z "},"×":{"ha":719,"x_min":0,"x_max":0,"o":"m 296 688 l 360 624 l 424 688 l 551 560 l 488 496 l 551 432 l 424 304 l 360 368 l 296 304 l 168 432 l 232 496 l 168 560 z "},"Ø":{"ha":832,"x_min":0,"x_max":0,"o":"m 535 978 l 297 978 b 201 947 256 978 224 967 b 168 853 179 926 168 894 l 168 125 b 201 31 168 83 179 52 b 297 0 224 10 256 0 l 535 0 b 631 31 576 0 608 10 b 664 125 653 52 664 83 l 664 853 b 631 947 664 894 653 926 b 535 978 608 967 576 978 z m 486 181 l 390 181 l 486 524 z m 346 797 l 442 797 l 346 454 z "},"Ù":{"ha":835,"x_min":0,"x_max":0,"o":"m 440 1208 l 263 1208 l 350 1028 l 517 1028 z m 297 0 l 538 0 b 633 31 579 0 611 10 b 667 125 656 52 667 83 l 667 978 l 489 978 l 489 181 l 346 181 l 346 978 l 168 978 l 168 125 b 201 31 168 83 179 52 b 297 0 224 10 256 0 z "},"Ú":{"ha":835,"x_min":0,"x_max":0,"o":"m 572 1208 l 394 1208 l 318 1028 l 485 1028 z m 297 0 l 538 0 b 633 31 579 0 611 10 b 667 125 656 52 667 83 l 667 978 l 489 978 l 489 181 l 346 181 l 346 978 l 168 978 l 168 125 b 201 31 168 83 179 52 b 297 0 224 10 256 0 z "},"Û":{"ha":835,"x_min":0,"x_max":0,"o":"m 536 1208 l 299 1208 l 217 1028 l 383 1028 l 417 1099 l 451 1028 l 618 1028 z m 297 0 l 538 0 b 633 31 579 0 611 10 b 667 125 656 52 667 83 l 667 978 l 489 978 l 489 181 l 346 181 l 346 978 l 168 978 l 168 125 b 201 31 168 83 179 52 b 297 0 224 10 256 0 z "},"Ü":{"ha":835,"x_min":0,"x_max":0,"o":"m 615 1208 l 438 1208 l 438 1028 l 615 1028 z m 397 1208 l 219 1208 l 219 1028 l 397 1028 z m 297 0 l 538 0 b 633 31 579 0 611 10 b 667 125 656 52 667 83 l 667 978 l 489 978 l 489 181 l 346 181 l 346 978 l 168 978 l 168 125 b 201 31 168 83 179 52 b 297 0 224 10 256 0 z "},"Ý":{"ha":844,"x_min":0,"x_max":0,"o":"m 576 1208 l 399 1208 l 322 1028 l 489 1028 z m 338 978 l 154 978 l 332 490 l 332 0 l 510 0 l 510 489 l 690 978 l 507 978 l 422 728 z "},"Þ":{"ha":835,"x_min":0,"x_max":0,"o":"m 168 978 l 346 978 l 346 786 l 538 786 b 633 755 579 786 611 776 b 667 661 656 734 667 703 l 667 339 b 633 245 667 297 656 266 b 538 214 611 224 579 214 l 386 214 l 386 394 l 490 394 l 490 606 l 346 606 l 346 0 l 168 0 z "},"ß":{"ha":849,"x_min":0,"x_max":0,"o":"m 168 853 b 201 947 168 894 179 926 b 297 978 224 967 256 978 l 526 978 b 622 947 568 978 600 967 b 656 853 644 926 656 894 l 656 601 b 643 534 656 575 651 552 b 599 496 635 516 620 503 b 657 455 622 488 641 474 b 681 382 673 436 681 412 l 681 125 b 647 31 681 83 669 52 b 551 0 625 10 593 0 l 385 0 l 385 181 l 503 181 l 503 404 l 386 404 l 386 586 l 478 586 l 478 797 l 346 797 l 346 0 l 168 0 z "},"à":{"ha":903,"x_min":0,"x_max":0,"o":"m 360 978 l 543 978 l 749 0 l 560 0 l 453 539 l 343 0 l 154 0 z m 554 1028 l 388 1028 l 300 1208 l 478 1208 z "},"á":{"ha":904,"x_min":0,"x_max":0,"o":"m 426 1208 l 604 1208 l 517 1028 l 350 1028 z m 750 0 l 561 0 l 451 539 l 344 0 l 156 0 l 361 978 l 544 978 z "},"â":{"ha":904,"x_min":0,"x_max":0,"o":"m 333 1208 l 571 1208 l 653 1028 l 486 1028 l 451 1099 l 418 1028 l 251 1028 z m 750 0 l 561 0 l 451 539 l 344 0 l 156 0 l 361 978 l 544 978 z "},"ã":{"ha":904,"x_min":0,"x_max":0,"o":"m 576 1028 l 411 1028 l 378 1099 l 346 1028 l 246 1028 l 328 1208 l 494 1208 l 526 1138 l 558 1208 l 658 1208 z m 750 0 l 561 0 l 451 539 l 344 0 l 156 0 l 361 978 l 544 978 z "},"ä":{"ha":904,"x_min":0,"x_max":0,"o":"m 254 1208 l 432 1208 l 432 1028 l 254 1028 z m 472 1208 l 650 1208 l 650 1028 l 472 1028 z m 750 0 l 561 0 l 451 539 l 344 0 l 156 0 l 361 978 l 544 978 z "},"å":{"ha":904,"x_min":0,"x_max":0,"o":"m 544 978 l 361 978 l 156 0 l 344 0 l 451 539 l 561 0 l 750 0 z m 363 1028 l 540 1028 l 540 1208 l 363 1208 z m 428 1147 l 476 1147 l 476 1089 l 428 1089 z "},"æ":{"ha":1239,"x_min":0,"x_max":0,"o":"m 647 978 l 1071 978 l 1071 797 l 825 797 l 825 586 l 1029 586 l 1029 406 l 825 406 l 825 181 l 1071 181 l 1071 0 l 560 0 l 450 539 l 343 0 l 154 0 l 360 978 l 543 978 l 647 482 z "},"ç":{"ha":760,"x_min":0,"x_max":0,"o":"m 299 -60 l 351 -60 l 351 0 l 297 0 b 201 31 256 0 224 10 b 168 125 179 52 168 83 l 168 861 b 203 951 168 903 180 933 b 297 978 226 969 257 978 l 592 978 l 592 797 l 346 797 l 346 181 l 592 181 l 592 0 l 472 0 l 472 -176 l 299 -176 z "},"è":{"ha":760,"x_min":0,"x_max":0,"o":"m 168 978 l 168 0 l 592 0 l 592 181 l 346 181 l 346 406 l 550 406 l 550 586 l 346 586 l 346 797 l 592 797 l 592 978 z m 406 1208 l 228 1208 l 315 1028 l 482 1028 z "},"é":{"ha":760,"x_min":0,"x_max":0,"o":"m 532 1208 l 354 1208 l 278 1028 l 444 1028 z m 168 978 l 168 0 l 592 0 l 592 181 l 346 181 l 346 406 l 550 406 l 550 586 l 346 586 l 346 797 l 592 797 l 592 978 z "},"ê":{"ha":760,"x_min":0,"x_max":0,"o":"m 261 1208 l 499 1208 l 581 1028 l 414 1028 l 379 1099 l 346 1028 l 179 1028 z m 168 0 l 168 978 l 592 978 l 592 797 l 346 797 l 346 586 l 550 586 l 550 406 l 346 406 l 346 181 l 592 181 l 592 0 z "},"ë":{"ha":760,"x_min":0,"x_max":0,"o":"m 182 1208 l 360 1208 l 360 1028 l 182 1028 z m 400 1208 l 578 1208 l 578 1028 l 400 1028 z m 168 0 l 168 978 l 592 978 l 592 797 l 346 797 l 346 586 l 550 586 l 550 406 l 346 406 l 346 181 l 592 181 l 592 0 z "},"ì":{"ha":514,"x_min":0,"x_max":0,"o":"m 106 1208 l 283 1208 l 360 1028 l 193 1028 z m 168 978 l 346 978 l 346 0 l 168 0 z "},"í":{"ha":514,"x_min":0,"x_max":0,"o":"m 232 1208 l 410 1208 l 322 1028 l 156 1028 z m 168 978 l 346 978 l 346 0 l 168 0 z "},"î":{"ha":514,"x_min":0,"x_max":0,"o":"m 139 1208 l 376 1208 l 458 1028 l 292 1028 l 257 1099 l 224 1028 l 57 1028 z m 168 978 l 346 978 l 346 0 l 168 0 z "},"ï":{"ha":514,"x_min":0,"x_max":0,"o":"m 60 1208 l 238 1208 l 238 1028 l 60 1028 z m 278 1208 l 456 1208 l 456 1028 l 278 1028 z m 168 978 l 346 978 l 346 0 l 168 0 z "},"ð":{"ha":829,"x_min":0,"x_max":0,"o":"m 442 700 l 442 797 l 485 797 l 485 586 l 297 586 b 201 556 256 586 224 576 b 168 463 179 535 168 504 l 168 125 b 201 31 168 83 179 52 b 297 0 224 10 256 0 l 532 0 b 628 31 574 0 606 10 b 661 125 650 52 661 83 l 661 861 b 626 951 661 903 650 933 b 532 978 603 969 572 978 l 442 978 l 442 1075 l 264 1075 l 264 978 l 168 978 l 168 797 l 264 797 l 264 700 z m 485 406 l 485 181 l 344 181 l 344 406 z "},"ñ":{"ha":831,"x_min":0,"x_max":0,"o":"m 538 1028 l 372 1028 l 339 1099 l 307 1028 l 207 1028 l 289 1208 l 456 1208 l 488 1138 l 519 1208 l 619 1208 z m 663 0 l 518 0 l 344 426 l 344 0 l 168 0 l 168 978 l 313 978 l 486 506 l 486 978 l 663 978 z "},"ò":{"ha":835,"x_min":0,"x_max":0,"o":"m 263 1208 l 440 1208 l 517 1028 l 350 1028 z m 538 0 l 297 0 b 201 31 256 0 224 10 b 168 125 179 52 168 83 l 168 853 b 201 947 168 894 179 926 b 297 978 224 967 256 978 l 538 978 b 633 947 579 978 611 967 b 667 853 656 926 667 894 l 667 125 b 633 31 667 83 656 52 b 538 0 611 10 579 0 z m 489 797 l 346 797 l 346 181 l 489 181 z "},"ó":{"ha":835,"x_min":0,"x_max":0,"o":"m 489 797 l 346 797 l 346 181 l 489 181 z m 538 0 l 297 0 b 201 31 256 0 224 10 b 168 125 179 52 168 83 l 168 853 b 201 947 168 894 179 926 b 297 978 224 967 256 978 l 538 978 b 633 947 579 978 611 967 b 667 853 656 926 667 894 l 667 125 b 633 31 667 83 656 52 b 538 0 611 10 579 0 z m 394 1208 l 572 1208 l 485 1028 l 318 1028 z "},"ô":{"ha":835,"x_min":0,"x_max":0,"o":"m 538 0 l 297 0 b 201 31 256 0 224 10 b 168 125 179 52 168 83 l 168 853 b 201 947 168 894 179 926 b 297 978 224 967 256 978 l 538 978 b 633 947 579 978 611 967 b 667 853 656 926 667 894 l 667 125 b 633 31 667 83 656 52 b 538 0 611 10 579 0 z m 489 797 l 346 797 l 346 181 l 489 181 z m 299 1208 l 536 1208 l 618 1028 l 451 1028 l 417 1099 l 383 1028 l 217 1028 z "},"õ":{"ha":835,"x_min":0,"x_max":0,"o":"m 542 1028 l 376 1028 l 343 1099 l 311 1028 l 211 1028 l 293 1208 l 460 1208 l 492 1138 l 524 1208 l 624 1208 z m 538 0 l 297 0 b 201 31 256 0 224 10 b 168 125 179 52 168 83 l 168 853 b 201 947 168 894 179 926 b 297 978 224 967 256 978 l 538 978 b 633 947 579 978 611 967 b 667 853 656 926 667 894 l 667 125 b 633 31 667 83 656 52 b 538 0 611 10 579 0 z m 489 797 l 346 797 l 346 181 l 489 181 z "},"ö":{"ha":835,"x_min":0,"x_max":0,"o":"m 219 1208 l 397 1208 l 397 1028 l 219 1028 z m 438 1208 l 615 1208 l 615 1028 l 438 1028 z m 489 797 l 346 797 l 346 181 l 489 181 z m 538 0 l 297 0 b 201 31 256 0 224 10 b 168 125 179 52 168 83 l 168 853 b 201 947 168 894 179 926 b 297 978 224 967 256 978 l 538 978 b 633 947 579 978 611 967 b 667 853 656 926 667 894 l 667 125 b 633 31 667 83 656 52 b 538 0 611 10 579 0 z "},"÷":{"ha":767,"x_min":0,"x_max":0,"o":"m 294 361 l 472 361 l 472 181 l 294 181 z m 294 810 l 472 810 l 472 629 l 294 629 z m 168 586 l 599 586 l 599 406 l 168 406 z "},"ø":{"ha":832,"x_min":0,"x_max":0,"o":"m 535 978 l 297 978 b 201 947 256 978 224 967 b 168 853 179 926 168 894 l 168 125 b 201 31 168 83 179 52 b 297 0 224 10 256 0 l 535 0 b 631 31 576 0 608 10 b 664 125 653 52 664 83 l 664 853 b 631 947 664 894 653 926 b 535 978 608 967 576 978 z m 486 181 l 390 181 l 486 524 z m 346 797 l 442 797 l 346 454 z "},"ù":{"ha":835,"x_min":0,"x_max":0,"o":"m 440 1208 l 263 1208 l 350 1028 l 517 1028 z m 297 0 l 538 0 b 633 31 579 0 611 10 b 667 125 656 52 667 83 l 667 978 l 489 978 l 489 181 l 346 181 l 346 978 l 168 978 l 168 125 b 201 31 168 83 179 52 b 297 0 224 10 256 0 z "},"ú":{"ha":835,"x_min":0,"x_max":0,"o":"m 572 1208 l 394 1208 l 318 1028 l 485 1028 z m 297 0 l 538 0 b 633 31 579 0 611 10 b 667 125 656 52 667 83 l 667 978 l 489 978 l 489 181 l 346 181 l 346 978 l 168 978 l 168 125 b 201 31 168 83 179 52 b 297 0 224 10 256 0 z "},"û":{"ha":835,"x_min":0,"x_max":0,"o":"m 536 1208 l 299 1208 l 217 1028 l 383 1028 l 417 1099 l 451 1028 l 618 1028 z m 297 0 l 538 0 b 633 31 579 0 611 10 b 667 125 656 52 667 83 l 667 978 l 489 978 l 489 181 l 346 181 l 346 978 l 168 978 l 168 125 b 201 31 168 83 179 52 b 297 0 224 10 256 0 z "},"ü":{"ha":835,"x_min":0,"x_max":0,"o":"m 615 1208 l 438 1208 l 438 1028 l 615 1028 z m 397 1208 l 219 1208 l 219 1028 l 397 1028 z m 297 0 l 538 0 b 633 31 579 0 611 10 b 667 125 656 52 667 83 l 667 978 l 489 978 l 489 181 l 346 181 l 346 978 l 168 978 l 168 125 b 201 31 168 83 179 52 b 297 0 224 10 256 0 z "},"ý":{"ha":844,"x_min":0,"x_max":0,"o":"m 576 1208 l 399 1208 l 322 1028 l 489 1028 z m 338 978 l 154 978 l 332 490 l 332 0 l 510 0 l 510 489 l 690 978 l 507 978 l 422 728 z "},"þ":{"ha":835,"x_min":0,"x_max":0,"o":"m 168 978 l 346 978 l 346 786 l 538 786 b 633 755 579 786 611 776 b 667 661 656 734 667 703 l 667 339 b 633 245 667 297 656 266 b 538 214 611 224 579 214 l 386 214 l 386 394 l 490 394 l 490 606 l 346 606 l 346 0 l 168 0 z "},"ÿ":{"ha":844,"x_min":0,"x_max":0,"o":"m 619 1208 l 442 1208 l 442 1028 l 619 1028 z m 401 1208 l 224 1208 l 224 1028 l 401 1028 z m 338 978 l 154 978 l 332 490 l 332 0 l 510 0 l 510 489 l 690 978 l 507 978 l 422 728 z "},"Œ":{"ha":1081,"x_min":0,"x_max":0,"o":"m 297 978 l 913 978 l 913 797 l 667 797 l 667 586 l 871 586 l 871 406 l 667 406 l 667 181 l 913 181 l 913 0 l 297 0 b 201 31 256 0 224 10 b 168 125 179 52 168 83 l 168 853 b 201 947 168 894 179 926 b 297 978 224 967 256 978 z m 346 181 l 489 181 l 489 797 l 346 797 z "},"œ":{"ha":1081,"x_min":0,"x_max":0,"o":"m 297 978 l 913 978 l 913 797 l 667 797 l 667 586 l 871 586 l 871 406 l 667 406 l 667 181 l 913 181 l 913 0 l 297 0 b 201 31 256 0 224 10 b 168 125 179 52 168 83 l 168 853 b 201 947 168 894 179 926 b 297 978 224 967 256 978 z m 346 181 l 489 181 l 489 797 l 346 797 z "},"Š":{"ha":763,"x_min":0,"x_max":0,"o":"m 500 1028 l 263 1028 l 181 1208 l 347 1208 l 382 1138 l 415 1208 l 582 1208 z m 583 242 b 590 215 585 234 588 225 b 594 182 593 204 594 193 l 594 125 b 561 31 594 83 583 52 b 465 0 539 10 507 0 l 168 0 l 168 181 l 408 181 l 179 738 b 172 766 176 745 174 754 b 168 796 169 778 168 788 l 168 861 b 203 951 168 903 180 933 b 297 978 226 969 257 978 l 594 978 l 594 797 l 354 797 z "},"š":{"ha":763,"x_min":0,"x_max":0,"o":"m 500 1028 l 263 1028 l 181 1208 l 347 1208 l 382 1138 l 415 1208 l 582 1208 z m 583 242 b 590 215 585 234 588 225 b 594 182 593 204 594 193 l 594 125 b 561 31 594 83 583 52 b 465 0 539 10 507 0 l 168 0 l 168 181 l 408 181 l 179 738 b 172 766 176 745 174 754 b 168 796 169 778 168 788 l 168 861 b 203 951 168 903 180 933 b 297 978 226 969 257 978 l 594 978 l 594 797 l 354 797 z "},"Ÿ":{"ha":844,"x_min":0,"x_max":0,"o":"m 619 1208 l 442 1208 l 442 1028 l 619 1028 z m 401 1208 l 224 1208 l 224 1028 l 401 1028 z m 338 978 l 154 978 l 332 490 l 332 0 l 510 0 l 510 489 l 690 978 l 507 978 l 422 728 z "},"Ž":{"ha":763,"x_min":0,"x_max":0,"o":"m 500 1028 l 263 1028 l 181 1208 l 347 1208 l 382 1138 l 415 1208 l 582 1208 z m 407 797 l 168 797 l 168 978 l 594 978 l 594 796 b 591 766 594 788 593 778 b 583 738 589 754 586 745 l 356 181 l 594 181 l 594 0 l 168 0 l 168 182 b 172 213 168 190 169 200 b 179 242 175 225 177 234 z "},"ž":{"ha":763,"x_min":0,"x_max":0,"o":"m 500 1028 l 263 1028 l 181 1208 l 347 1208 l 382 1138 l 415 1208 l 582 1208 z m 407 797 l 168 797 l 168 978 l 594 978 l 594 796 b 591 766 594 788 593 778 b 583 738 589 754 586 745 l 356 181 l 594 181 l 594 0 l 168 0 l 168 182 b 172 213 168 190 169 200 b 179 242 175 225 177 234 z "},"ƒ":{"ha":769,"x_min":0,"x_max":0,"o":"m 168 0 l 346 0 l 346 406 l 560 406 l 560 586 l 346 586 l 346 797 l 601 797 l 601 978 l 297 978 b 203 951 257 978 226 969 b 168 861 180 933 168 903 z "},"ˆ":{"ha":738,"x_min":0,"x_max":0,"o":"m 488 1208 l 250 1208 l 168 1028 l 335 1028 l 368 1099 l 403 1028 l 569 1028 z "},"˜":{"ha":667,"x_min":0,"x_max":0,"o":"m 499 1028 l 333 1028 l 300 1099 l 268 1028 l 168 1028 l 250 1208 l 417 1208 l 449 1138 l 481 1208 l 581 1208 z "},"–":{"ha":590,"x_min":0,"x_max":0,"o":"m 168 586 l 168 406 l 422 406 l 422 586 z "},"—":{"ha":697,"x_min":0,"x_max":0,"o":"m 168 586 l 529 586 l 529 406 l 168 406 z "},"‘":{"ha":514,"x_min":0,"x_max":0,"o":"m 346 978 l 346 675 l 168 675 l 168 853 b 201 947 168 894 179 926 b 297 978 224 967 256 978 z "},"’":{"ha":514,"x_min":0,"x_max":0,"o":"m 168 675 l 168 978 l 346 978 l 346 800 b 313 706 346 758 335 727 b 217 675 290 685 258 675 z "},"‚":{"ha":514,"x_min":0,"x_max":0,"o":"m 168 -122 l 168 181 l 346 181 l 346 3 b 313 -91 346 -39 335 -70 b 217 -122 290 -112 258 -122 z "},"“":{"ha":732,"x_min":0,"x_max":0,"o":"m 346 978 l 346 675 l 168 675 l 168 853 b 201 947 168 894 179 926 b 297 978 224 967 256 978 z m 564 978 l 564 675 l 386 675 l 386 853 b 419 947 386 894 397 926 b 515 978 442 967 474 978 z "},"”":{"ha":732,"x_min":0,"x_max":0,"o":"m 386 675 l 386 978 l 564 978 l 564 800 b 531 706 564 758 553 727 b 435 675 508 685 476 675 z m 168 675 l 168 978 l 346 978 l 346 800 b 313 706 346 758 335 727 b 217 675 290 685 258 675 z "},"„":{"ha":733,"x_min":0,"x_max":0,"o":"m 388 -122 l 388 181 l 565 181 l 565 3 b 532 -91 565 -39 554 -70 b 436 -122 510 -112 478 -122 z m 168 -122 l 168 181 l 346 181 l 346 3 b 313 -91 346 -39 335 -70 b 217 -122 290 -112 258 -122 z "},"†":{"ha":678,"x_min":0,"x_max":0,"o":"m 168 714 l 168 533 l 250 533 l 250 0 l 428 0 l 428 533 l 510 533 l 510 714 l 428 714 l 428 978 l 250 978 l 250 714 z "},"‡":{"ha":678,"x_min":0,"x_max":0,"o":"m 168 714 l 168 533 l 250 533 l 250 458 l 168 458 l 168 278 l 250 278 l 250 0 l 428 0 l 428 278 l 510 278 l 510 458 l 428 458 l 428 533 l 510 533 l 510 714 l 428 714 l 428 978 l 250 978 l 250 714 z "},"•":{"ha":832,"x_min":0,"x_max":0,"o":"m 297 0 l 535 0 b 631 31 576 0 608 10 b 664 125 653 52 664 83 l 664 853 b 631 947 664 894 653 926 b 535 978 608 967 576 978 l 297 978 b 201 947 256 978 224 967 b 168 853 179 926 168 894 l 168 125 b 201 31 168 83 179 52 b 297 0 224 10 256 0 z "},"…":{"ha":953,"x_min":0,"x_max":0,"o":"m 388 181 l 565 181 l 565 0 l 388 0 z m 607 181 l 785 181 l 785 0 l 607 0 z m 168 181 l 346 181 l 346 0 l 168 0 z "},"‰":{"ha":1460,"x_min":0,"x_max":0,"o":"m 828 125 l 828 413 l 867 413 l 867 125 z m 789 0 l 906 0 b 983 81 957 0 983 27 l 983 458 b 906 538 983 511 957 538 l 789 538 b 710 458 736 538 710 511 l 710 81 b 789 0 710 27 736 0 z m 775 978 l 588 978 l 379 0 l 567 0 z m 286 565 l 286 853 l 325 853 l 325 565 z m 247 440 l 364 440 b 442 521 416 440 442 467 l 442 899 b 364 978 442 951 416 978 l 247 978 b 168 899 194 978 168 951 l 168 521 b 247 440 168 467 194 440 z m 1136 125 l 1136 413 l 1175 413 l 1175 125 z m 1097 0 l 1214 0 b 1292 81 1266 0 1292 27 l 1292 458 b 1214 538 1292 511 1266 538 l 1097 538 b 1018 458 1044 538 1018 511 l 1018 81 b 1097 0 1018 27 1044 0 z "},"‹":{"ha":517,"x_min":0,"x_max":0,"o":"m 168 376 l 168 614 l 349 696 l 349 529 l 278 494 l 349 461 l 349 294 z "},"›":{"ha":517,"x_min":0,"x_max":0,"o":"m 349 376 l 349 614 l 168 696 l 168 529 l 239 494 l 168 461 l 168 294 z "},"€":{"ha":835,"x_min":0,"x_max":0,"o":"m 168 700 l 168 519 l 243 519 l 243 472 l 168 472 l 168 292 l 243 292 l 243 125 b 276 31 243 83 254 52 b 372 0 299 10 331 0 l 667 0 l 667 181 l 421 181 l 421 292 l 535 292 l 535 472 l 421 472 l 421 519 l 535 519 l 535 700 l 421 700 l 421 797 l 667 797 l 667 978 l 372 978 b 278 951 332 978 301 969 b 243 861 255 933 243 903 l 243 700 z "},"™":{"ha":718,"x_min":0,"x_max":0,"o":"m 229 771 l 271 771 l 271 983 l 332 983 l 332 1029 l 168 1029 l 168 983 l 229 983 z m 349 771 l 386 771 l 386 976 l 431 771 l 468 771 l 511 976 l 511 771 l 550 771 l 550 1029 l 485 1029 l 449 850 l 411 1029 l 349 1029 z "}}}
